{
.appVersion = "1064";
DisplayStrings = (
service
);
customParameters = (
{
name = fsType;
value = (
);
},
{
name = licenseURL;
value = "http://scripts.sil.org/OFL";
},
{
name = license;
value = "This Font Software is licensed under the SIL Open Font License, Version 1.1. This license is available with a FAQ at: http://scripts.sil.org/OFL";
},
{
name = trademark;
value = "18Franklin is based on Libre Franklin, which is a trademark of Impallari Type.";
},
{
name = description;
value = "Libre Franklin is a reinterpretation and expansion of the 1912 Morris Fuller Benton￢ﾀﾙs classic.";
},
{
name = vendorID;
value = IMPA;
},
{
name = note;
value = "Based on Libre Franklin\012\012";
},
{
name = vsuffix;
value = "-v.030";
}
);
date = "2016-12-20 19:59:26 +0000";
designer = "Pablo Impallari, Rodrigo Fuenzalida (Modified by Dan O. Williams)";
familyName = "18Franklin";
featurePrefixes = (
{
automatic = 1;
code = "languagesystem DFLT dflt;\012languagesystem latn dflt;\012languagesystem latn CAT;\012languagesystem latn ROM;\012languagesystem latn MOL;\012languagesystem latn KAZ;\012languagesystem latn TAT;\012languagesystem latn TRK;\012languagesystem latn CRT;\012languagesystem latn AZE;\012";
name = Languagesystems;
}
);
features = (
{
automatic = 1;
code = "feature ccmp;\012feature locl;\012feature subs;\012feature sinf;\012feature sups;\012feature numr;\012feature dnom;\012feature frac;\012feature ordn;\012";
name = aalt;
},
{
automatic = 1;

glyphs = (
{
glyphname = A;
lastChange = "2017-05-01 14:06:08 +0000";
layers = (
{
anchors = (
{
name = ogonek;
position = "{705, 9}";
},
{
name = top;
position = "{457, 742}";
}
);
background = {
anchors = (
{
name = ogonek;
position = "{808, 9}";
},
{
name = top;
position = "{457, 742}";
}
);
paths = (
{
closed = 1;
nodes = (
"257 0 LINE SMOOTH",
"271 0 OFFCURVE",
"278 7 OFFCURVE",
"281 15 CURVE SMOOTH",
"322 133 LINE SMOOTH",
"324 140 OFFCURVE",
"329 144 OFFCURVE",
"337 144 CURVE SMOOTH",
"549 144 LINE SMOOTH",
"559 144 OFFCURVE",
"561 139 OFFCURVE",
"564 132 CURVE SMOOTH",
"603 17 LINE SMOOTH",
"607 4 OFFCURVE",
"615 0 OFFCURVE",
"625 0 CURVE SMOOTH",
"821 0 LINE SMOOTH",
"836 0 OFFCURVE",
"840 20 OFFCURVE",
"835 34 CURVE SMOOTH",
"595 715 LINE SMOOTH",
"589 731 OFFCURVE",
"576 742 OFFCURVE",
"559 742 CURVE SMOOTH",
"362 742 LINE SMOOTH",
"344 742 OFFCURVE",
"338 735 OFFCURVE",
"332 719 CURVE SMOOTH",
"90 37 LINE SMOOTH",
"82 15 OFFCURVE",
"90 0 OFFCURVE",
"105 0 CURVE SMOOTH"
);
},
{
closed = 1;
nodes = (
"373 314 OFFCURVE",
"370 322 OFFCURVE",
"375 335 CURVE SMOOTH",
"436 505 LINE SMOOTH",
"438 512 OFFCURVE",
"445 512 OFFCURVE",
"448 505 CURVE SMOOTH",
"508 334 LINE SMOOTH",
"512 321 OFFCURVE",
"510 314 OFFCURVE",
"499 314 CURVE SMOOTH",
"385 314 LINE SMOOTH"
);
}
);
};
layerId = "258ED206-D907-4350-8EBA-CBDDA1C16BF7";
paths = (
{
closed = 1;
nodes = (
"172 0 LINE",
"242 144 LINE",
"476 144 LINE",
"505 0 LINE",
"702 0 LINE",
"544 742 LINE",
"340 742 LINE",
"-27 0 LINE"
);
},
{
closed = 1;
nodes = (
"415 551 LINE",
"455 314 LINE",
"308 314 LINE"
);
}
);
width = 739;
},
{
anchors = (
{
name = ogonek;
position = "{583, 11}";
},
{
name = top;
position = "{397, 742}";
}
);
background = {
anchors = (
{
name = ogonek;
position = "{686, 11}";
},
{
name = top;
position = "{397, 742}";
}
);
paths = (
{
closed = 1;
nodes = (
"132 0 LINE SMOOTH",
"138 0 OFFCURVE",
"142 2 OFFCURVE",
"143 7 CURVE SMOOTH",
"226 231 LINE SMOOTH",
"228 236 OFFCURVE",
"230 238 OFFCURVE",
"236 238 CURVE SMOOTH",
"558 238 LINE SMOOTH",
"564 238 OFFCURVE",
"566 236 OFFCURVE",
"568 231 CURVE SMOOTH",
"649 8 LINE SMOOTH",
"651 2 OFFCURVE",
"655 0 OFFCURVE",
"662 0 CURVE SMOOTH",
"686 0 LINE SMOOTH",
"693 0 OFFCURVE",
"696 4 OFFCURVE",
"694 10 CURVE SMOOTH",
"432 732 LINE SMOOTH",
"430 739 OFFCURVE",
"424 742 OFFCURVE",
"414 742 CURVE SMOOTH",
"381 742 LINE SMOOTH",
"372 742 OFFCURVE",
"368 739 OFFCURVE",
"365 731 CURVE SMOOTH",
"100 9 LINE SMOOTH",
"98 3 OFFCURVE",
"101 0 OFFCURVE",
"107 0 CURVE SMOOTH"
);
},
{
closed = 1;
nodes = (
"244 278 OFFCURVE",
"242 279 OFFCURVE",
"245 286 CURVE SMOOTH",
"390 677 LINE SMOOTH",
"395 691 OFFCURVE",
"400 691 OFFCURVE",
"405 678 CURVE SMOOTH",
"548 288 LINE SMOOTH",
"550 282 OFFCURVE",
"549 278 OFFCURVE",
"541 278 CURVE SMOOTH",
"250 278 LINE SMOOTH"
);
}
);
};
guideLines = (
{
angle = 69.4967;
position = "{10, 119}";
},
{
angle = 110.0797;
position = "{434, 119}";
}
);
layerId = "91AB5BCA-6A50-42DA-B2F7-8181BF189245";
paths = (
{
closed = 1;
nodes = (
"36 0 LINE",
"157 234 LINE",
"496 234 LINE",
"548 0 LINE",
"592 0 LINE",
"426 742 LINE",
"369 742 LINE",
"-7 0 LINE"
);
},
{
closed = 1;
nodes = (
"392 698 LINE",
"487 278 LINE",
"177 278 LINE"
);
}
);
width = 659;
}
);
leftKerningGroup = A;
rightKerningGroup = A;
unicode = 0041;
},
{
glyphname = Aringacute;
lastChange = "2017-04-27 20:04:40 +0000";
layers = (
{
background = {
paths = (
{
closed = 1;
nodes = (
"588 850 OFFCURVE",
"542 899 OFFCURVE",
"477 899 CURVE SMOOTH",
"421 899 OFFCURVE",
"370 863 OFFCURVE",
"362 809 CURVE SMOOTH",
"353 741 OFFCURVE",
"399 693 OFFCURVE",
"464 693 CURVE SMOOTH",
"521 693 OFFCURVE",
"571 728 OFFCURVE",
"579 785 CURVE SMOOTH"
);
},
{
closed = 1;
nodes = (
"515 775 OFFCURVE",
"486 746 OFFCURVE",
"455 746 CURVE SMOOTH",
"433 746 OFFCURVE",
"416 763 OFFCURVE",
"419 784 CURVE SMOOTH",
"423 816 OFFCURVE",
"454 842 OFFCURVE",
"484 842 CURVE SMOOTH",
"507 842 OFFCURVE",
"522 828 OFFCURVE",
"519 806 CURVE SMOOTH"
);
},
{
closed = 1;
nodes = (
"340 742 OFFCURVE",
"336 740 OFFCURVE",
"329 724 CURVE SMOOTH",
"-2 42 LINE SMOOTH",
"-12 20 OFFCURVE",
"-2 0 OFFCURVE",
"13 0 CURVE SMOOTH",
"165 0 LINE SMOOTH",
"179 0 OFFCURVE",
"183 2 OFFCURVE",
"187 10 CURVE SMOOTH",
"243 127 LINE SMOOTH",
"245 134 OFFCURVE",
"254 144 OFFCURVE",
"262 144 CURVE SMOOTH",
"463 144 LINE SMOOTH",
"473 144 OFFCURVE",
"473 144 OFFCURVE",
"475 137 CURVE SMOOTH",
"495 22 LINE SMOOTH",
"496 9 OFFCURVE",
"506 0 OFFCURVE",
"516 0 CURVE SMOOTH",
"712 0 LINE SMOOTH",
"727 0 OFFCURVE",
"728 15 OFFCURVE",
"725 29 CURVE SMOOTH",
"588 710 LINE SMOOTH",
"586 726 OFFCURVE",
"572 742 OFFCURVE",
"555 742 CURVE SMOOTH",
"357 742 LINE SMOOTH"
);
},
{
closed = 1;
nodes = (
"449 326 OFFCURVE",
"440 314 OFFCURVE",
"429 314 CURVE SMOOTH",
"326 314 LINE SMOOTH",
"314 314 OFFCURVE",
"316 317 OFFCURVE",
"323 330 CURVE SMOOTH",
"404 499 LINE SMOOTH",
"406 506 OFFCURVE",
"414 517 OFFCURVE",
"416 510 CURVE SMOOTH",
"447 339 LINE SMOOTH"
);
},
{
closed = 1;
nodes = (
"480 964 OFFCURVE",
"470 963 OFFCURVE",
"461 938 CURVE SMOOTH",
"438 875 LINE",
"526 875 LINE",
"560 930 LINE SMOOTH",
"566 944 OFFCURVE",
"560 964 OFFCURVE",
"544 964 CURVE SMOOTH",
"499 964 LINE SMOOTH"
);
}
);
};
layerId = "258ED206-D907-4350-8EBA-CBDDA1C16BF7";
paths = (
{
closed = 1;
nodes = (
"588 850 OFFCURVE",
"542 899 OFFCURVE",
"477 899 CURVE SMOOTH",
"421 899 OFFCURVE",
"370 863 OFFCURVE",
"362 809 CURVE SMOOTH",
"353 741 OFFCURVE",
"399 693 OFFCURVE",
"464 693 CURVE SMOOTH",
"521 693 OFFCURVE",
"571 728 OFFCURVE",
"579 785 CURVE SMOOTH"
);
},
{
closed = 1;
nodes = (
"515 775 OFFCURVE",
"486 746 OFFCURVE",
"455 746 CURVE SMOOTH",
"433 746 OFFCURVE",
"416 763 OFFCURVE",
"419 784 CURVE SMOOTH",
"423 816 OFFCURVE",
"454 842 OFFCURVE",
"484 842 CURVE SMOOTH",
"507 842 OFFCURVE",
"522 828 OFFCURVE",
"519 806 CURVE SMOOTH"
);
},
{
closed = 1;
nodes = (
"-22 0 LINE",
"182 0 LINE",
"251 144 LINE",
"474 144 LINE",
"499 0 LINE",
"731 0 LINE",
"582 742 LINE",
"338 742 LINE"
);
},
{
closed = 1;
nodes = (
"315 314 LINE",
"414 520 LINE",
"452 314 LINE"
);
},
{
closed = 1;
nodes = (
"438 875 LINE",
"526 875 LINE",
"581 964 LINE",
"470 964 LINE"
);
}
);
width = 792;
},
{
background = {
paths = (
{
closed = 1;
nodes = (
"498 856 OFFCURVE",
"459 900 OFFCURVE",
"402 900 CURVE SMOOTH",
"348 900 OFFCURVE",
"298 858 OFFCURVE",
"291 806 CURVE SMOOTH",
"283 747 OFFCURVE",
"321 702 OFFCURVE",
"378 702 CURVE SMOOTH",
"433 702 OFFCURVE",
"482 744 OFFCURVE",
"490 800 CURVE SMOOTH"
);
},
{
closed = 1;
nodes = (
"443 771 OFFCURVE",
"413 742 OFFCURVE",
"379 742 CURVE SMOOTH",
"349 742 OFFCURVE",
"326 769 OFFCURVE",
"330 799 CURVE SMOOTH",
"335 835 OFFCURVE",
"368 860 OFFCURVE",
"400 860 CURVE SMOOTH",
"432 860 OFFCURVE",
"452 837 OFFCURVE",
"448 803 CURVE SMOOTH"
);
},
{
closed = 1;
nodes = (
"357 742 OFFCURVE",
"354 740 OFFCURVE",
"350 732 CURVE SMOOTH",
"0 10 LINE",
"-2 5 OFFCURVE",
"2 0 OFFCURVE",
"8 0 CURVE SMOOTH",
"30 0 LINE SMOOTH",
"36 0 OFFCURVE",
"38 1 OFFCURVE",
"41 6 CURVE",
"150 230 LINE SMOOTH",
"152 235 OFFCURVE",
"155 238 OFFCURVE",
"161 238 CURVE SMOOTH",
"457 238 LINE SMOOTH",
"463 238 OFFCURVE",
"464 237 OFFCURVE",
"465 232 CURVE SMOOTH",
"511 9 LINE SMOOTH",
"511 3 OFFCURVE",
"515 0 OFFCURVE",
"522 0 CURVE SMOOTH",
"549 0 LINE SMOOTH",
"556 0 OFFCURVE",
"558 3 OFFCURVE",
"557 9 CURVE SMOOTH",
"414 731 LINE",
"414 738 OFFCURVE",
"408 742 OFFCURVE",
"398 742 CURVE SMOOTH",
"366 742 LINE SMOOTH"
);
},
{
closed = 1;
nodes = (
"457 283 OFFCURVE",
"454 278 OFFCURVE",
"446 278 CURVE SMOOTH",
"177 278 LINE SMOOTH",
"171 278 OFFCURVE",
"171 278 OFFCURVE",
"175 285 CURVE SMOOTH",
"364 676 LINE SMOOTH",
"370 690 OFFCURVE",
"376 692 OFFCURVE",
"378 679 CURVE SMOOTH",
"456 289 LINE SMOOTH"
);
},
{
closed = 1;
nodes = (
"422 964 OFFCURVE",
"418 961 OFFCURVE",
"415 952 CURVE SMOOTH",
"386 875 LINE",
"424 875 LINE",
"466 947 LINE SMOOTH",
"470 957 OFFCURVE",
"467 964 OFFCURVE",
"456 964 CURVE SMOOTH",
"433 964 LINE SMOOTH"
);
}
);
};
layerId = "91AB5BCA-6A50-42DA-B2F7-8181BF189245";
paths = (
{
closed = 1;
nodes = (
"503 856 OFFCURVE",
"464 900 OFFCURVE",
"407 900 CURVE SMOOTH",
"353 900 OFFCURVE",
"303 858 OFFCURVE",
"296 806 CURVE SMOOTH",
"288 747 OFFCURVE",
"326 702 OFFCURVE",
"383 702 CURVE SMOOTH",
"438 702 OFFCURVE",
"487 744 OFFCURVE",
"495 800 CURVE SMOOTH"
);
},
{
closed = 1;
nodes = (
"448 771 OFFCURVE",
"418 742 OFFCURVE",
"384 742 CURVE SMOOTH",
"354 742 OFFCURVE",
"331 769 OFFCURVE",
"335 799 CURVE SMOOTH",
"340 835 OFFCURVE",
"373 860 OFFCURVE",
"405 860 CURVE SMOOTH",
"437 860 OFFCURVE",
"457 837 OFFCURVE",
"453 803 CURVE SMOOTH"
);
},
{
closed = 1;
nodes = (
"0 0 LINE",
"43 0 LINE",
"159 238 LINE",
"469 238 LINE",
"518 0 LINE",
"564 0 LINE",
"417 742 LINE",
"360 742 LINE"
);
},
{
closed = 1;
nodes = (
"177 278 LINE",
"379 697 LINE",
"463 278 LINE"
);
},
{
closed = 1;
nodes = (
"391 875 LINE",
"429 875 LINE",
"481 964 LINE",
"425 964 LINE"
);
}
);
width = 639;
}
);
leftKerningGroup = A;
rightKerningGroup = A;
unicode = 01FA;
},
{
glyphname = AE;
lastChange = "2017-05-01 14:06:08 +0000";
layers = (
{
anchors = (
{
name = top;
position = "{792, 742}";
}
);
background = {
anchors = (
{
name = top;
position = "{792, 742}";
}
);
paths = (
{
closed = 1;
nodes = (
"733 164 LINE SMOOTH",
"724 164 OFFCURVE",
"724 161 OFFCURVE",
"726 172 CURVE SMOOTH",
"740 272 LINE SMOOTH",
"741 280 OFFCURVE",
"753 292 OFFCURVE",
"763 292 CURVE SMOOTH",
"948 292 LINE SMOOTH",
"961 292 OFFCURVE",
"962 294 OFFCURVE",
"963 303 CURVE SMOOTH",
"981 427 LINE SMOOTH",
"983 440 OFFCURVE",
"973 453 OFFCURVE",
"959 453 CURVE SMOOTH",
"779 453 LINE SMOOTH",
"769 453 OFFCURVE",
"766 454 OFFCURVE",
"768 468 CURVE SMOOTH",
"779 553 LINE SMOOTH",
"781 566 OFFCURVE",
"795 578 OFFCURVE",
"810 578 CURVE SMOOTH",
"1110 578 LINE SMOOTH",
"1128 578 OFFCURVE",
"1133 583 OFFCURVE",
"1135 599 CURVE SMOOTH",
"1152 715 LINE SMOOTH",
"1154 728 OFFCURVE",
"1146 742 OFFCURVE",
"1134 742 CURVE SMOOTH",
"485 742 LINE SMOOTH",
"468 742 OFFCURVE",
"462 740 OFFCURVE",
"452 724 CURVE SMOOTH",
"1 42 LINE SMOOTH",
"-13 20 OFFCURVE",
"-4 0 OFFCURVE",
"11 0 CURVE SMOOTH",
"163 0 LINE SMOOTH",
"177 0 OFFCURVE",
"183 2 OFFCURVE",
"188 10 CURVE SMOOTH",
"264 128 LINE",
"267 135 OFFCURVE",
"277 144 OFFCURVE",
"285 144 CURVE SMOOTH",
"486 144 LINE SMOOTH",
"496 144 OFFCURVE",
"495 145 OFFCURVE",
"494 136 CURVE SMOOTH",
"479 31 LINE SMOOTH",
"477 14 OFFCURVE",
"486 0 OFFCURVE",
"506 0 CURVE SMOOTH",
"1041 0 LINE SMOOTH",
"1058 0 OFFCURVE",
"1061 4 OFFCURVE",
"1063 16 CURVE SMOOTH",
"1080 139 LINE SMOOTH",
"1082 153 OFFCURVE",
"1072 164 OFFCURVE",
"1058 164 CURVE SMOOTH"
);
},
{
closed = 1;
nodes = (
"379 314 LINE SMOOTH",
"367 314 OFFCURVE",
"371 317 OFFCURVE",
"381 330 CURVE",
"513 532 LINE SMOOTH",
"532 562 OFFCURVE",
"555 571 OFFCURVE",
"551 541 CURVE SMOOTH",
"523 340 LINE SMOOTH",
"521 327 OFFCURVE",
"508 314 OFFCURVE",
"496 314 CURVE SMOOTH"
);
}
);
};
layerId = "258ED206-D907-4350-8EBA-CBDDA1C16BF7";
paths = (
{
closed = 1;
nodes = (
"725 164 LINE",
"743 292 LINE",
"961 292 LINE",
"985 453 LINE",
"766 453 LINE",
"782 578 LINE",
"1132 578 LINE",
"1156 742 LINE",
"464 742 LINE",
"-27 0 LINE",
"182 0 LINE",
"274 144 LINE",
"495 144 LINE",
"475 0 LINE",
"1061 0 LINE",
"1083 164 LINE"
);
},
{
closed = 1;
nodes = (
"371 314 LINE",
"560 604 LINE",
"519 314 LINE"
);
}
);
width = 1138;
},
{
anchors = (
{
name = top;
position = "{732, 742}";
}
);
background = {
anchors = (
{
name = top;
position = "{727, 742}";
}
);
paths = (
{
closed = 1;
nodes = (
"496 40 LINE SMOOTH",
"489 40 OFFCURVE",
"488 40 OFFCURVE",
"490 48 CURVE SMOOTH",
"531 345 LINE SMOOTH",
"532 353 OFFCURVE",
"536 355 OFFCURVE",
"543 355 CURVE SMOOTH",
"811 355 LINE SMOOTH",
"817 355 OFFCURVE",
"818 355 OFFCURVE",
"818 361 CURVE SMOOTH",
"822 387 LINE SMOOTH",
"823 392 OFFCURVE",
"820 395 OFFCURVE",
"815 395 CURVE SMOOTH",
"546 395 LINE SMOOTH",
"539 395 OFFCURVE",
"538 395 OFFCURVE",
"539 401 CURVE SMOOTH",
"580 692 LINE SMOOTH",
"581 700 OFFCURVE",
"584 702 OFFCURVE",
"591 702 CURVE SMOOTH",
"929 702 LINE SMOOTH",
"935 702 OFFCURVE",
"936 702 OFFCURVE",
"937 708 CURVE SMOOTH",
"941 734 LINE SMOOTH",
"942 739 OFFCURVE",
"939 742 OFFCURVE",
"934 742 CURVE SMOOTH",
"529 742 LINE SMOOTH",
"520 742 OFFCURVE",
"516 740 OFFCURVE",
"511 732 CURVE",
"-5 10 LINE SMOOTH",
"-9 5 OFFCURVE",
"-5 0 OFFCURVE",
"1 0 CURVE SMOOTH",
"26 0 LINE SMOOTH",
"32 0 OFFCURVE",
"35 1 OFFCURVE",
"39 6 CURVE SMOOTH",
"199 230 LINE SMOOTH",
"203 235 OFFCURVE",
"206 238 OFFCURVE",
"212 238 CURVE SMOOTH",
"466 238 LINE SMOOTH",
"469 238 OFFCURVE",
"470 237 OFFCURVE",
"470 234 CURVE SMOOTH",
"438 11 LINE SMOOTH",
"437 3 OFFCURVE",
"440 0 OFFCURVE",
"447 0 CURVE SMOOTH",
"847 0 LINE SMOOTH",
"852 0 OFFCURVE",
"853 1 OFFCURVE",
"854 6 CURVE SMOOTH",
"857 32 LINE SMOOTH",
"858 38 OFFCURVE",
"855 40 OFFCURVE",
"849 40 CURVE SMOOTH"
);
},
{
closed = 1;
nodes = (
"235 278 LINE SMOOTH",
"229 278 OFFCURVE",
"230 278 OFFCURVE",
"235 285 CURVE SMOOTH",
"518 676 LINE SMOOTH",
"528 690 OFFCURVE",
"533 692 OFFCURVE",
"532 679 CURVE",
"477 288 LINE SMOOTH",
"477 283 OFFCURVE",
"473 278 OFFCURVE",
"467 278 CURVE SMOOTH"
);
}
);
};
layerId = "91AB5BCA-6A50-42DA-B2F7-8181BF189245";
paths = (
{
closed = 1;
nodes = (
"494 40 LINE",
"537 355 LINE",
"822 355 LINE",
"828 395 LINE",
"543 395 LINE",
"586 702 LINE",
"941 702 LINE",
"947 742 LINE",
"523 742 LINE",
"-7 0 LINE",
"40 0 LINE",
"210 238 LINE",
"476 238 LINE",
"441 0 LINE",
"858 0 LINE",
"863 40 LINE"
);
},
{
closed = 1;
nodes = (
"235 278 LINE",
"540 699 LINE",
"481 278 LINE"
);
}
);
width = 965;
}
);
leftKerningGroup = AE;
leftMetricsKey = A;
rightMetricsKey = E;
unicode = 00C6;
},
{
glyphname = B;
lastChange = "2017-05-01 14:06:08 +0000";
layers = (
{
background = {
paths = (
{
closed = 1;
nodes = (
"459 0 LINE SMOOTH",
"675 0 OFFCURVE",
"778 65 OFFCURVE",
"778 202 CURVE SMOOTH",
"778 287 OFFCURVE",
"739 338 OFFCURVE",
"629 379 CURVE SMOOTH",
"626 380 OFFCURVE",
"626 385 OFFCURVE",
"629 386 CURVE SMOOTH",
"729 432 OFFCURVE",
"760 477 OFFCURVE",
"760 546 CURVE SMOOTH",
"760 675 OFFCURVE",
"650 742 OFFCURVE",
"443 742 CURVE SMOOTH",
"145 742 LINE SMOOTH",
"130 742 OFFCURVE",
"120 731 OFFCURVE",
"120 716 CURVE SMOOTH",
"120 22 LINE SMOOTH",
"120 10 OFFCURVE",
"129 0 OFFCURVE",
"143 0 CURVE SMOOTH"
);
},
{
closed = 1;
nodes = (
"351 150 OFFCURVE",
"347 157 OFFCURVE",
"347 172 CURVE SMOOTH",
"347 277 LINE SMOOTH",
"347 292 OFFCURVE",
"353 298 OFFCURVE",
"370 298 CURVE SMOOTH",
"459 298 LINE SMOOTH",
"509 298 OFFCURVE",
"542 268 OFFCURVE",
"542 227 CURVE SMOOTH",
"542 188 OFFCURVE",
"512 150 OFFCURVE",
"454 150 CURVE SMOOTH",
"364 150 LINE SMOOTH"
);
},
{
closed = 1;
nodes = (
"351 452 OFFCURVE",
"347 459 OFFCURVE",
"347 474 CURVE SMOOTH",
"347 572 LINE SMOOTH",
"347 587 OFFCURVE",
"353 592 OFFCURVE",
"370 592 CURVE SMOOTH",
"452 592 LINE SMOOTH",
"499 592 OFFCURVE",
"536 564 OFFCURVE",
"536 520 CURVE SMOOTH",
"536 481 OFFCURVE",
"506 452 OFFCURVE",
"459 452 CURVE SMOOTH",
"364 452 LINE SMOOTH"
);
}
);
};
layerId = "258ED206-D907-4350-8EBA-CBDDA1C16BF7";
paths = (
{
closed = 1;
nodes = (
"335 0 LINE SMOOTH",
"551 0 OFFCURVE",
"643 64 OFFCURVE",
"662 202 CURVE",
"670 257 OFFCURVE",
"675 343 OFFCURVE",
"549 382 CURVE",
"648 427 OFFCURVE",
"683 477 OFFCURVE",
"692 546 CURVE SMOOTH",
"710 672 OFFCURVE",
"630 742 OFFCURVE",
"423 742 CURVE SMOOTH",
"127 742 LINE",
"23 0 LINE"
);
},
{
closed = 1;
nodes = (
"265 298 LINE",
"390 298 LINE",
"440 298 OFFCURVE",
"468 268 OFFCURVE",
"463 227 CURVE SMOOTH",
"457 188 OFFCURVE",
"422 150 OFFCURVE",
"364 150 CURVE",
"244 150 LINE"
);
},
{
closed = 1;
nodes = (
"306 592 LINE",
"424 592 LINE SMOOTH",
"471 592 OFFCURVE",
"504 564 OFFCURVE",
"498 520 CURVE SMOOTH",
"492 481 OFFCURVE",
"458 452 OFFCURVE",
"411 452 CURVE SMOOTH",
"286 452 LINE"
);
}
);
width = 691;
},
{
background = {
paths = (
{
closed = 1;
nodes = (
"395 0 LINE SMOOTH",
"570 0 OFFCURVE",
"673 65 OFFCURVE",
"673 197 CURVE SMOOTH",
"673 297 OFFCURVE",
"614 356 OFFCURVE",
"524 373 CURVE SMOOTH",
"518 374 OFFCURVE",
"518 380 OFFCURVE",
"524 382 CURVE SMOOTH",
"612 409 OFFCURVE",
"655 467 OFFCURVE",
"655 551 CURVE SMOOTH",
"655 675 OFFCURVE",
"558 742 OFFCURVE",
"392 742 CURVE SMOOTH",
"187 742 LINE SMOOTH",
"180 742 OFFCURVE",
"178 740 OFFCURVE",
"178 732 CURVE SMOOTH",
"178 8 LINE SMOOTH",
"178 3 OFFCURVE",
"181 0 OFFCURVE",
"186 0 CURVE SMOOTH"
);
},
{
closed = 1;
nodes = (
"226 40 OFFCURVE",
"224 43 OFFCURVE",
"224 50 CURVE SMOOTH",
"224 346 LINE SMOOTH",
"224 353 OFFCURVE",
"227 355 OFFCURVE",
"235 355 CURVE SMOOTH",
"404 355 LINE SMOOTH",
"529 355 OFFCURVE",
"625 311 OFFCURVE",
"625 191 CURVE SMOOTH",
"625 82 OFFCURVE",
"548 40 OFFCURVE",
"390 40 CURVE SMOOTH",
"231 40 LINE SMOOTH"
);
},
{
closed = 1;
nodes = (
"226 395 OFFCURVE",
"224 398 OFFCURVE",
"224 405 CURVE SMOOTH",
"224 694 LINE SMOOTH",
"224 700 OFFCURVE",
"227 702 OFFCURVE",
"233 702 CURVE SMOOTH",
"388 702 LINE SMOOTH",
"523 702 OFFCURVE",
"607 654 OFFCURVE",
"607 546 CURVE SMOOTH",
"607 424 OFFCURVE",
"497 395 OFFCURVE",
"404 395 CURVE SMOOTH",
"231 395 LINE SMOOTH"
);
}
);
};
layerId = "91AB5BCA-6A50-42DA-B2F7-8181BF189245";
paths = (
{
closed = 1;
nodes = (
"289 0 LINE",
"464 0 OFFCURVE",
"576 66 OFFCURVE",
"595 198 CURVE",
"608 296 OFFCURVE",
"562 358 OFFCURVE",
"455 376 CURVE",
"566 407 OFFCURVE",
"614 466 OFFCURVE",
"626 550 CURVE SMOOTH",
"643 674 OFFCURVE",
"556 742 OFFCURVE",
"390 742 CURVE SMOOTH",
"182 742 LINE",
"78 0 LINE"
);
},
{
closed = 1;
nodes = (
"167 354 LINE",
"347 354 LINE SMOOTH",
"472 354 OFFCURVE",
"571 312 OFFCURVE",
"554 192 CURVE SMOOTH",
"538 83 OFFCURVE",
"448 42 OFFCURVE",
"290 42 CURVE",
"124 42 LINE"
);
},
{
closed = 1;
nodes = (
"216 700 LINE",
"380 700 LINE SMOOTH",
"515 700 OFFCURVE",
"600 653 OFFCURVE",
"585 545 CURVE SMOOTH",
"568 423 OFFCURVE",
"446 396 OFFCURVE",
"353 396 CURVE SMOOTH",
"173 396 LINE"
);
}
);
width = 669;
}
);
leftMetricsKey = N;
rightKerningGroup = B;
unicode = 0042;
},
{
glyphname = C;
lastChange = "2017-05-01 18:47:18 +0000";
layers = (
{
anchors = (
{
name = bottom;
position = "{338, 0}";
},
{
name = top;
position = "{442, 742}";
}
);
background = {
anchors = (
{
name = bottom;
position = "{440, 0}";
},
{
name = top;
position = "{442, 742}";
}
);
paths = (
{
closed = 1;
nodes = (
"225 752 OFFCURVE",
"87 606 OFFCURVE",
"87 381 CURVE SMOOTH",
"87 155 OFFCURVE",
"225 -10 OFFCURVE",
"440 -10 CURVE SMOOTH",
"671 -10 OFFCURVE",
"757 167 OFFCURVE",
"767 221 CURVE SMOOTH",
"771 247 OFFCURVE",
"760 252 OFFCURVE",
"753 254 CURVE SMOOTH",
"628 279 LINE SMOOTH",
"612 282 OFFCURVE",
"603 279 OFFCURVE",
"600 271 CURVE SMOOTH",
"565 183 OFFCURVE",
"514 154 OFFCURVE",
"447 154 CURVE SMOOTH",
"366 154 OFFCURVE",
"325 212 OFFCURVE",
"325 377 CURVE SMOOTH",
"325 540 OFFCURVE",
"373 598 OFFCURVE",
"448 598 CURVE SMOOTH",
"516 598 OFFCURVE",
"543 544 OFFCURVE",
"555 475 CURVE",
"745 487 LINE",
"760 489 OFFCURVE",
"764 494 OFFCURVE",
"758 522 CURVE SMOOTH",
"732 655 OFFCURVE",
"611 752 OFFCURVE",
"442 752 CURVE SMOOTH"
);
}
);
};
guideLines = (
{
angle = -183.559;
position = "{451, 331}";
}
);
layerId = "258ED206-D907-4350-8EBA-CBDDA1C16BF7";
paths = (
{
closed = 1;
nodes = (
"226 752 OFFCURVE",
"68 606 OFFCURVE",
"36 381 CURVE SMOOTH",
"5 155 OFFCURVE",
"121 -10 OFFCURVE",
"336 -10 CURVE SMOOTH",
"573 -10 OFFCURVE",
"654 110 OFFCURVE",
"697 264 CURVE",
"501 277 LINE",
"479 208 OFFCURVE",
"433 150 OFFCURVE",
"365 150 CURVE SMOOTH",
"290 150 OFFCURVE",
"231 212 OFFCURVE",
"254 377 CURVE SMOOTH",
"277 540 OFFCURVE",
"352 592 OFFCURVE",
"427 592 CURVE SMOOTH",
"495 592 OFFCURVE",
"526 544 OFFCURVE",
"528 475 CURVE",
"728 488 LINE",
"734 648 OFFCURVE",
"619 752 OFFCURVE",
"443 752 CURVE SMOOTH"
);
}
);
width = 707;
},
{
anchors = (
{
name = bottom;
position = "{320, 0}";
},
{
name = top;
position = "{424, 742}";
}
);
background = {
anchors = (
{
name = bottom;
position = "{430, 0}";
},
{
name = top;
position = "{424, 742}";
}
);
guideLines = (
{
angle = 90;
position = "{685, 369}";
}
);
paths = (
{
closed = 1;
nodes = (
"237 752 OFFCURVE",
"127 610 OFFCURVE",
"127 368 CURVE SMOOTH",
"127 127 OFFCURVE",
"237 -10 OFFCURVE",
"430 -10 CURVE SMOOTH",
"551 -10 OFFCURVE",
"651 61 OFFCURVE",
"686 171 CURVE SMOOTH",
"687 175 OFFCURVE",
"686 177 OFFCURVE",
"684 178 CURVE SMOOTH",
"650 188 LINE SMOOTH",
"647 189 OFFCURVE",
"645 188 OFFCURVE",
"644 186 CURVE SMOOTH",
"604 81 OFFCURVE",
"538 32 OFFCURVE",
"434 32 CURVE SMOOTH",
"261 32 OFFCURVE",
"175 153 OFFCURVE",
"175 368 CURVE SMOOTH",
"175 591 OFFCURVE",
"263 710 OFFCURVE",
"426 710 CURVE SMOOTH",
"527 710 OFFCURVE",
"607 647 OFFCURVE",
"630 552 CURVE SMOOTH",
"631 546 OFFCURVE",
"633 544 OFFCURVE",
"637 545 CURVE SMOOTH",
"673 549 LINE SMOOTH",
"678 549 OFFCURVE",
"679 551 OFFCURVE",
"678 556 CURVE SMOOTH",
"666 659 OFFCURVE",
"546 752 OFFCURVE",
"424 752 CURVE SMOOTH"
);
}
);
};
guideLines = (
{
angle = 90;
position = "{688, 369}";
}
);
layerId = "91AB5BCA-6A50-42DA-B2F7-8181BF189245";
paths = (
{
closed = 1;
nodes = (
"230 752 OFFCURVE",
"108 610 OFFCURVE",
"74 368 CURVE SMOOTH",
"41 127 OFFCURVE",
"125 -10 OFFCURVE",
"318 -10 CURVE SMOOTH",
"440 -10 OFFCURVE",
"570 71 OFFCURVE",
"596 177 CURVE",
"554 189 LINE",
"517 89 OFFCURVE",
"428 32 OFFCURVE",
"326 32 CURVE SMOOTH",
"153 32 OFFCURVE",
"89 153 OFFCURVE",
"119 368 CURVE SMOOTH",
"151 591 OFFCURVE",
"251 710 OFFCURVE",
"414 710 CURVE SMOOTH",
"541 710 OFFCURVE",
"602 639 OFFCURVE",
"607 543 CURVE",
"652 550 LINE",
"655 656 OFFCURVE",
"569 752 OFFCURVE",
"417 752 CURVE SMOOTH"
);
}
);
width = 672;
}
);
leftKerningGroup = O;
unicode = 0043;
},
{
glyphname = D;
lastChange = "2017-06-03 00:02:38 +0000";
layers = (
{
anchors = (
{
name = center;
position = "{386, 371}";
},
{
name = top;
position = "{438, 742}";
}
);
background = {
anchors = (
{
name = center;
position = "{438, 371}";
},
{
name = top;
position = "{438, 742}";
}
);
paths = (
{
closed = 1;
nodes = (
"100 0 LINE",
"392 0 LINE SMOOTH",
"655 0 OFFCURVE",
"788 157 OFFCURVE",
"788 373 CURVE SMOOTH",
"788 584 OFFCURVE",
"661 731 OFFCURVE",
"393 741 CURVE SMOOTH",
"329 743 OFFCURVE",
"121 742 OFFCURVE",
"100 742 CURVE"
);
},
{
closed = 1;
nodes = (
"347 585 LINE SMOOTH",
"499 585 OFFCURVE",
"550 513 OFFCURVE",
"550 376 CURVE SMOOTH",
"550 215 OFFCURVE",
"474 157 OFFCURVE",
"348 157 CURVE SMOOTH",
"327 157 LINE",
"327 585 LINE"
);
}
);
};
layerId = "258ED206-D907-4350-8EBA-CBDDA1C16BF7";
paths = (
{
closed = 1;
nodes = (
"23 0 LINE",
"288 0 LINE SMOOTH",
"551 0 OFFCURVE",
"695 157 OFFCURVE",
"725 373 CURVE SMOOTH",
"755 584 OFFCURVE",
"659 731 OFFCURVE",
"393 741 CURVE SMOOTH",
"329 743 OFFCURVE",
"148 742 OFFCURVE",
"127 742 CURVE"
);
},
{
closed = 1;
nodes = (
"376 585 LINE SMOOTH",
"478 585 OFFCURVE",
"537 513 OFFCURVE",
"518 376 CURVE SMOOTH",
"495 215 OFFCURVE",
"392 157 OFFCURVE",
"316 157 CURVE SMOOTH",
"245 157 LINE",
"305 585 LINE"
);
}
);
width = 730;
},
{
anchors = (
{
name = center;
position = "{356, 371}";
},
{
name = top;
position = "{402, 742}";
}
);
background = {
anchors = (
{
name = center;
position = "{408, 371}";
},
{
name = top;
position = "{402, 742}";
}
);
paths = (
{
closed = 1;
nodes = (
"180 0 LINE",
"291 0 LINE SMOOTH",
"563 0 OFFCURVE",
"692 115 OFFCURVE",
"692 376 CURVE SMOOTH",
"692 624 OFFCURVE",
"580 739 OFFCURVE",
"305 741 CURVE SMOOTH",
"243 741 OFFCURVE",
"182 742 OFFCURVE",
"180 742 CURVE"
);
},
{
closed = 1;
nodes = (
"228 701 OFFCURVE",
"276 701 OFFCURVE",
"294 701 CURVE SMOOTH",
"538 696 OFFCURVE",
"644 628 OFFCURVE",
"644 372 CURVE SMOOTH",
"644 130 OFFCURVE",
"545 40 OFFCURVE",
"287 40 CURVE SMOOTH",
"226 40 LINE",
"226 701 LINE"
);
}
);
};
layerId = "91AB5BCA-6A50-42DA-B2F7-8181BF189245";
paths = (
{
closed = 1;
nodes = (
"78 0 LINE",
"187 0 LINE SMOOTH",
"459 0 OFFCURVE",
"604 115 OFFCURVE",
"641 376 CURVE SMOOTH",
"675 624 OFFCURVE",
"580 739 OFFCURVE",
"305 741 CURVE SMOOTH",
"243 741 OFFCURVE",
"184 742 OFFCURVE",
"182 742 CURVE"
);
},
{
closed = 1;
nodes = (
"288 699 LINE SMOOTH",
"514 699 OFFCURVE",
"632 628 OFFCURVE",
"596 372 CURVE SMOOTH",
"562 130 OFFCURVE",
"429 42 OFFCURVE",
"189 42 CURVE SMOOTH",
"128 42 LINE",
"220 699 LINE"
);
}
);
width = 685;
}
);
leftMetricsKey = N;
rightKerningGroup = O;
unicode = 0044;
},
{
glyphname = Eth;
lastChange = "2017-05-01 14:06:44 +0000";
layers = (
{
background = {
components = (
{
name = D;
transform = "{1, 0, 0, 1, 4, 0}";
}
);
paths = (
{
closed = 1;
nodes = (
"455 420 OFFCURVE",
"446 434 OFFCURVE",
"435 434 CURVE SMOOTH",
"64 434 LINE SMOOTH",
"52 434 OFFCURVE",
"48 432 OFFCURVE",
"46 417 CURVE SMOOTH",
"33 324 LINE SMOOTH",
"31 307 OFFCURVE",
"39 293 OFFCURVE",
"59 293 CURVE SMOOTH",
"408 293 LINE SMOOTH",
"431 293 OFFCURVE",
"437 295 OFFCURVE",
"440 315 CURVE SMOOTH",
"453 408 LINE SMOOTH"
);
}
);
};
components = (
{
name = D;
transform = "{1, 0, 0, 1, 4, 0}";
}
);
layerId = "258ED206-D907-4350-8EBA-CBDDA1C16BF7";
paths = (
{
closed = 1;
nodes = (
"48 434 LINE",
"29 293 LINE",
"437 293 LINE",
"457 434 LINE"
);
}
);
width = 734;
},
{
background = {
components = (
{
name = D;
transform = "{1, 0, 0, 1, -22, 0}";
}
);
paths = (
{
closed = 1;
nodes = (
"355 391 OFFCURVE",
"352 395 OFFCURVE",
"347 395 CURVE SMOOTH",
"54 395 LINE SMOOTH",
"49 395 OFFCURVE",
"48 393 OFFCURVE",
"47 387 CURVE SMOOTH",
"44 364 LINE SMOOTH",
"43 357 OFFCURVE",
"45 353 OFFCURVE",
"53 353 CURVE SMOOTH",
"337 353 LINE SMOOTH",
"346 353 OFFCURVE",
"350 355 OFFCURVE",
"351 363 CURVE SMOOTH",
"354 386 LINE SMOOTH"
);
}
);
};
components = (
{
name = D;
transform = "{1, 0, 0, 1, -22, 0}";
}
);
layerId = "91AB5BCA-6A50-42DA-B2F7-8181BF189245";
paths = (
{
closed = 1;
nodes = (
"53 395 LINE",
"48 353 LINE",
"355 353 LINE",
"360 395 LINE"
);
}
);
width = 663;
}
);
rightKerningGroup = O;
rightMetricsKey = D;
unicode = 00D0;
},
{
glyphname = E;
lastChange = "2017-05-01 13:51:30 +0000";
layers = (
{
anchors = (
{
name = bottom;
position = "{296, 0}";
},
{
name = ogonek;
position = "{571, 10}";
},
{
name = top;
position = "{400, 742}";
}
);
background = {
anchors = (
{
name = bottom;
position = "{400, 0}";
},
{
name = ogonek;
position = "{674, 10}";
},
{
name = top;
position = "{400, 742}";
}
);
paths = (
{
closed = 1;
nodes = (
"116 25 LINE SMOOTH",
"116 8 OFFCURVE",
"123 0 OFFCURVE",
"143 0 CURVE SMOOTH",
"678 0 LINE SMOOTH",
"695 0 OFFCURVE",
"702 10 OFFCURVE",
"702 22 CURVE SMOOTH",
"702 145 LINE SMOOTH",
"702 159 OFFCURVE",
"694 164 OFFCURVE",
"680 164 CURVE SMOOTH",
"355 164 LINE SMOOTH",
"346 164 OFFCURVE",
"343 167 OFFCURVE",
"343 178 CURVE SMOOTH",
"343 278 LINE SMOOTH",
"343 286 OFFCURVE",
"349 292 OFFCURVE",
"359 292 CURVE SMOOTH",
"544 292 LINE SMOOTH",
"557 292 OFFCURVE",
"562 300 OFFCURVE",
"562 309 CURVE SMOOTH",
"562 433 LINE SMOOTH",
"562 446 OFFCURVE",
"555 453 OFFCURVE",
"541 453 CURVE SMOOTH",
"361 453 LINE SMOOTH",
"351 453 OFFCURVE",
"343 460 OFFCURVE",
"343 474 CURVE SMOOTH",
"343 559 LINE SMOOTH",
"343 572 OFFCURVE",
"351 578 OFFCURVE",
"366 578 CURVE SMOOTH",
"666 578 LINE SMOOTH",
"684 578 OFFCURVE",
"692 589 OFFCURVE",
"692 605 CURVE SMOOTH",
"693 721 LINE SMOOTH",
"693 734 OFFCURVE",
"687 742 OFFCURVE",
"675 742 CURVE SMOOTH",
"135 742 LINE SMOOTH",
"123 742 OFFCURVE",
"116 734 OFFCURVE",
"116 719 CURVE SMOOTH"
);
}
);
};
layerId = "258ED206-D907-4350-8EBA-CBDDA1C16BF7";
paths = (
{
closed = 1;
nodes = (
"571 0 LINE",
"594 166 LINE",
"246 166 LINE",
"264 292 LINE",
"554 292 LINE",
"576 453 LINE",
"287 453 LINE",
"305 576 LINE",
"650 576 LINE",
"674 742 LINE",
"127 742 LINE",
"23 0 LINE"
);
}
);
width = 648;
},
{
anchors = (
{
name = bottom;
position = "{324, 0}";
},
{
name = ogonek;
position = "{510, 10}";
},
{
name = top;
position = "{409, 742}";
}
);
background = {
anchors = (
{
name = bottom;
position = "{428, 0}";
},
{
name = ogonek;
position = "{613, 10}";
},
{
name = top;
position = "{409, 742}";
}
);
paths = (
{
closed = 1;
nodes = (
"178 10 LINE SMOOTH",
"178 2 OFFCURVE",
"180 0 OFFCURVE",
"187 0 CURVE SMOOTH",
"617 0 LINE SMOOTH",
"622 0 OFFCURVE",
"624 2 OFFCURVE",
"624 7 CURVE SMOOTH",
"624 33 LINE SMOOTH",
"624 39 OFFCURVE",
"622 40 OFFCURVE",
"616 40 CURVE SMOOTH",
"233 40 LINE SMOOTH",
"226 40 OFFCURVE",
"224 41 OFFCURVE",
"224 49 CURVE SMOOTH",
"224 346 LINE SMOOTH",
"224 354 OFFCURVE",
"226 355 OFFCURVE",
"233 355 CURVE SMOOTH",
"521 355 LINE SMOOTH",
"527 355 OFFCURVE",
"529 356 OFFCURVE",
"529 362 CURVE SMOOTH",
"529 388 LINE SMOOTH",
"529 393 OFFCURVE",
"527 395 OFFCURVE",
"522 395 CURVE SMOOTH",
"233 395 LINE SMOOTH",
"226 395 OFFCURVE",
"224 396 OFFCURVE",
"224 402 CURVE SMOOTH",
"224 693 LINE SMOOTH",
"224 701 OFFCURVE",
"226 702 OFFCURVE",
"233 702 CURVE SMOOTH",
"601 702 LINE SMOOTH",
"607 702 OFFCURVE",
"609 703 OFFCURVE",
"609 709 CURVE SMOOTH",
"609 735 LINE SMOOTH",
"609 740 OFFCURVE",
"607 742 OFFCURVE",
"602 742 CURVE SMOOTH",
"187 742 LINE SMOOTH",
"180 742 OFFCURVE",
"178 740 OFFCURVE",
"178 732 CURVE SMOOTH"
);
}
);
};
layerId = "91AB5BCA-6A50-42DA-B2F7-8181BF189245";
paths = (
{
closed = 1;
nodes = (
"518 0 LINE",
"524 42 LINE",
"124 43 LINE",
"167 354 LINE",
"526 354 LINE",
"532 396 LINE",
"173 396 LINE",
"216 700 LINE",
"601 700 LINE",
"607 742 LINE",
"182 742 LINE",
"78 0 LINE"
);
}
);
width = 625;
}
);
leftMetricsKey = N;
unicode = 0045;
},
{
glyphname = F;
lastChange = "2017-05-01 14:06:08 +0000";
layers = (
{
background = {
paths = (
{
closed = 1;
nodes = (
"100 25 LINE SMOOTH",
"100 8 OFFCURVE",
"106 0 OFFCURVE",
"127 0 CURVE",
"294 0 LINE SMOOTH",
"317 0 OFFCURVE",
"327 8 OFFCURVE",
"327 29 CURVE SMOOTH",
"327 271 LINE SMOOTH",
"327 280 OFFCURVE",
"333 286 OFFCURVE",
"343 286 CURVE SMOOTH",
"530 286 LINE SMOOTH",
"544 286 OFFCURVE",
"548 293 OFFCURVE",
"548 303 CURVE SMOOTH",
"548 425 LINE SMOOTH",
"548 438 OFFCURVE",
"542 445 OFFCURVE",
"528 445 CURVE SMOOTH",
"345 445 LINE SMOOTH",
"334 445 OFFCURVE",
"327 451 OFFCURVE",
"327 465 CURVE SMOOTH",
"327 559 LINE SMOOTH",
"327 572 OFFCURVE",
"334 578 OFFCURVE",
"350 578 CURVE SMOOTH",
"644 578 LINE SMOOTH",
"662 578 OFFCURVE",
"669 589 OFFCURVE",
"669 605 CURVE SMOOTH",
"670 721 LINE SMOOTH",
"670 734 OFFCURVE",
"664 742 OFFCURVE",
"652 742 CURVE SMOOTH",
"119 742 LINE SMOOTH",
"108 742 OFFCURVE",
"100 734 OFFCURVE",
"100 719 CURVE SMOOTH"
);
}
);
};
layerId = "258ED206-D907-4350-8EBA-CBDDA1C16BF7";
paths = (
{
closed = 1;
nodes = (
"23 0 LINE",
"223 0 LINE",
"263 286 LINE",
"549 286 LINE",
"571 445 LINE",
"285 445 LINE",
"304 578 LINE",
"646 578 LINE",
"670 742 LINE",
"127 742 LINE"
);
}
);
width = 623;
},
{
background = {
paths = (
{
closed = 1;
nodes = (
"182 10 LINE SMOOTH",
"182 2 OFFCURVE",
"184 0 OFFCURVE",
"191 0 CURVE SMOOTH",
"221 0 LINE SMOOTH",
"226 0 OFFCURVE",
"228 2 OFFCURVE",
"228 7 CURVE SMOOTH",
"228 333 LINE SMOOTH",
"228 341 OFFCURVE",
"230 342 OFFCURVE",
"237 342 CURVE SMOOTH",
"535 342 LINE SMOOTH",
"541 342 OFFCURVE",
"543 343 OFFCURVE",
"543 349 CURVE SMOOTH",
"543 375 LINE SMOOTH",
"543 380 OFFCURVE",
"541 382 OFFCURVE",
"536 382 CURVE SMOOTH",
"237 382 LINE SMOOTH",
"230 382 OFFCURVE",
"228 383 OFFCURVE",
"228 389 CURVE SMOOTH",
"228 693 LINE SMOOTH",
"228 701 OFFCURVE",
"230 702 OFFCURVE",
"237 702 CURVE SMOOTH",
"595 702 LINE SMOOTH",
"601 702 OFFCURVE",
"603 703 OFFCURVE",
"603 709 CURVE SMOOTH",
"603 735 LINE SMOOTH",
"603 740 OFFCURVE",
"601 742 OFFCURVE",
"596 742 CURVE SMOOTH",
"191 742 LINE SMOOTH",
"184 742 OFFCURVE",
"182 740 OFFCURVE",
"182 732 CURVE SMOOTH"
);
}
);
};
layerId = "91AB5BCA-6A50-42DA-B2F7-8181BF189245";
paths = (
{
closed = 1;
nodes = (
"78 0 LINE",
"122 0 LINE",
"172 355 LINE",
"521 355 LINE",
"527 397 LINE",
"178 397 LINE",
"220 700 LINE",
"595 700 LINE",
"601 742 LINE",
"182 742 LINE"
);
}
);
width = 584;
}
);
leftMetricsKey = N;
rightKerningGroup = F;
unicode = 0046;
},
{
glyphname = G;
lastChange = "2017-05-01 14:06:08 +0000";
layers = (
{
anchors = (
{
name = bottom;
position = "{335, 0}";
},
{
name = top;
position = "{439, 742}";
}
);
background = {
anchors = (
{
name = bottom;
position = "{439, 0}";
},
{
name = top;
position = "{439, 742}";
}
);
paths = (
{
closed = 1;
nodes = (
"555 -10 OFFCURVE",
"606 40 OFFCURVE",
"642 75 CURVE SMOOTH",
"647 81 OFFCURVE",
"650 81 OFFCURVE",
"653 77 CURVE SMOOTH",
"693 19 LINE SMOOTH",
"703 5 OFFCURVE",
"713 0 OFFCURVE",
"725 0 CURVE SMOOTH",
"763 0 LINE SMOOTH",
"773 0 OFFCURVE",
"780 8 OFFCURVE",
"780 17 CURVE SMOOTH",
"780 344 LINE SMOOTH",
"780 362 OFFCURVE",
"767 375 OFFCURVE",
"742 375 CURVE SMOOTH",
"462 377 LINE SMOOTH",
"447 377 OFFCURVE",
"441 370 OFFCURVE",
"441 360 CURVE SMOOTH",
"441 264 LINE SMOOTH",
"441 247 OFFCURVE",
"447 242 OFFCURVE",
"461 242 CURVE SMOOTH",
"555 242 LINE SMOOTH",
"565 242 OFFCURVE",
"568 236 OFFCURVE",
"564 225 CURVE",
"561 216 LINE",
"543 170 OFFCURVE",
"509 146 OFFCURVE",
"453 146 CURVE SMOOTH",
"377 146 OFFCURVE",
"325 193 OFFCURVE",
"325 374 CURVE SMOOTH",
"325 544 OFFCURVE",
"371 597 OFFCURVE",
"445 597 CURVE SMOOTH",
"517 597 OFFCURVE",
"552 547 OFFCURVE",
"562 492 CURVE SMOOTH",
"565 479 OFFCURVE",
"566 472 OFFCURVE",
"582 472 CURVE SMOOTH",
"753 498 LINE SMOOTH",
"769 500 OFFCURVE",
"773 505 OFFCURVE",
"767 533 CURVE SMOOTH",
"743 640 OFFCURVE",
"630 752 OFFCURVE",
"450 752 CURVE SMOOTH",
"236 752 OFFCURVE",
"87 599 OFFCURVE",
"87 368 CURVE SMOOTH",
"87 145 OFFCURVE",
"226 -10 OFFCURVE",
"437 -10 CURVE SMOOTH"
);
}
);
};
layerId = "258ED206-D907-4350-8EBA-CBDDA1C16BF7";
paths = (
{
closed = 1;
nodes = (
"453 -10 OFFCURVE",
"514 44 OFFCURVE",
"556 82 CURVE",
"545 0 LINE",
"676 0 LINE",
"731 392 LINE",
"392 394 LINE",
"373 259 LINE",
"502 259 LINE",
"489 233 LINE",
"465 187 OFFCURVE",
"428 163 OFFCURVE",
"372 163 CURVE SMOOTH",
"308 163 OFFCURVE",
"227 193 OFFCURVE",
"252 374 CURVE SMOOTH",
"275 534 OFFCURVE",
"349 587 OFFCURVE",
"423 587 CURVE SMOOTH",
"492 587 OFFCURVE",
"518 541 OFFCURVE",
"528 470 CURVE",
"740 501 LINE",
"733 624 OFFCURVE",
"650 752 OFFCURVE",
"451 752 CURVE SMOOTH",
"237 752 OFFCURVE",
"67 599 OFFCURVE",
"34 368 CURVE SMOOTH",
"3 145 OFFCURVE",
"120 -10 OFFCURVE",
"331 -10 CURVE SMOOTH"
);
}
);
width = 753;
},
{
anchors = (
{
name = bottom;
position = "{324, 0}";
},
{
name = top;
position = "{423, 742}";
}
);
background = {
anchors = (
{
name = bottom;
position = "{428, 0}";
},
{
name = top;
position = "{423, 742}";
}
);
paths = (
{
closed = 1;
nodes = (
"533 -10 OFFCURVE",
"606 45 OFFCURVE",
"645 115 CURVE SMOOTH",
"649 122 OFFCURVE",
"653 121 OFFCURVE",
"653 115 CURVE SMOOTH",
"653 9 LINE SMOOTH",
"653 0 OFFCURVE",
"658 0 OFFCURVE",
"666 0 CURVE SMOOTH",
"683 0 LINE SMOOTH",
"690 0 OFFCURVE",
"693 2 OFFCURVE",
"693 11 CURVE SMOOTH",
"693 371 LINE SMOOTH",
"693 375 OFFCURVE",
"691 377 OFFCURVE",
"687 377 CURVE SMOOTH",
"451 377 LINE SMOOTH",
"448 377 OFFCURVE",
"446 375 OFFCURVE",
"446 371 CURVE SMOOTH",
"446 348 LINE SMOOTH",
"446 344 OFFCURVE",
"448 342 OFFCURVE",
"453 342 CURVE SMOOTH",
"642 342 LINE SMOOTH",
"648 342 OFFCURVE",
"653 341 OFFCURVE",
"653 334 CURVE SMOOTH",
"653 255 LINE SMOOTH",
"653 161 OFFCURVE",
"581 32 OFFCURVE",
"423 32 CURVE SMOOTH",
"260 32 OFFCURVE",
"175 153 OFFCURVE",
"175 374 CURVE SMOOTH",
"175 584 OFFCURVE",
"262 710 OFFCURVE",
"423 710 CURVE SMOOTH",
"529 710 OFFCURVE",
"614 640 OFFCURVE",
"630 551 CURVE SMOOTH",
"631 546 OFFCURVE",
"634 544 OFFCURVE",
"637 545 CURVE SMOOTH",
"672 551 LINE SMOOTH",
"677 552 OFFCURVE",
"677 555 OFFCURVE",
"677 559 CURVE SMOOTH",
"665 663 OFFCURVE",
"546 752 OFFCURVE",
"423 752 CURVE SMOOTH",
"242 752 OFFCURVE",
"127 614 OFFCURVE",
"127 368 CURVE SMOOTH",
"127 129 OFFCURVE",
"237 -10 OFFCURVE",
"422 -10 CURVE SMOOTH"
);
}
);
};
layerId = "91AB5BCA-6A50-42DA-B2F7-8181BF189245";
paths = (
{
closed = 1;
nodes = (
"431 -10 OFFCURVE",
"516 51 OFFCURVE",
"567 129 CURVE",
"549 0 LINE",
"589 0 LINE",
"642 377 LINE",
"395 377 LINE",
"390 342 LINE",
"597 342 LINE",
"585 255 LINE SMOOTH",
"571 161 OFFCURVE",
"481 30 OFFCURVE",
"323 30 CURVE SMOOTH",
"160 30 OFFCURVE",
"86 153 OFFCURVE",
"117 374 CURVE SMOOTH",
"147 584 OFFCURVE",
"258 710 OFFCURVE",
"419 710 CURVE SMOOTH",
"526 710 OFFCURVE",
"600 637 OFFCURVE",
"603 544 CURVE",
"651 552 LINE",
"654 660 OFFCURVE",
"547 752 OFFCURVE",
"424 752 CURVE SMOOTH",
"243 752 OFFCURVE",
"109 614 OFFCURVE",
"74 368 CURVE SMOOTH",
"41 129 OFFCURVE",
"131 -10 OFFCURVE",
"316 -10 CURVE SMOOTH"
);
}
);
width = 706;
}
);
leftKerningGroup = O;
rightKerningGroup = G;
unicode = 0047;
},
{
glyphname = H;
lastChange = "2017-05-01 13:51:30 +0000";
layers = (
{
anchors = (
{
name = bottom;
position = "{330, 0}";
},
{
name = top;
position = "{436, 742}";
}
);
background = {
anchors = (
{
name = bottom;
position = "{434, 0}";
},
{
name = top;
position = "{436, 742}";
}
);
paths = (
{
closed = 1;
nodes = (
"533 297 OFFCURVE",
"539 290 OFFCURVE",
"539 282 CURVE SMOOTH",
"539 29 LINE SMOOTH",
"539 8 OFFCURVE",
"549 0 OFFCURVE",
"572 0 CURVE SMOOTH",
"739 0 LINE SMOOTH",
"760 0 OFFCURVE",
"766 8 OFFCURVE",
"766 25 CURVE SMOOTH",
"766 719 LINE SMOOTH",
"766 734 OFFCURVE",
"758 742 OFFCURVE",
"747 742 CURVE SMOOTH",
"557 742 LINE SMOOTH",
"546 742 OFFCURVE",
"539 734 OFFCURVE",
"539 721 CURVE SMOOTH",
"539 489 LINE SMOOTH",
"539 476 OFFCURVE",
"532 469 OFFCURVE",
"521 469 CURVE SMOOTH",
"353 469 LINE SMOOTH",
"342 469 OFFCURVE",
"335 476 OFFCURVE",
"335 489 CURVE SMOOTH",
"335 721 LINE SMOOTH",
"335 734 OFFCURVE",
"328 742 OFFCURVE",
"317 742 CURVE SMOOTH",
"127 742 LINE SMOOTH",
"116 742 OFFCURVE",
"108 734 OFFCURVE",
"108 719 CURVE SMOOTH",
"108 25 LINE SMOOTH",
"108 8 OFFCURVE",
"114 0 OFFCURVE",
"135 0 CURVE SMOOTH",
"302 0 LINE SMOOTH",
"325 0 OFFCURVE",
"335 8 OFFCURVE",
"335 29 CURVE SMOOTH",
"335 282 LINE SMOOTH",
"335 290 OFFCURVE",
"341 297 OFFCURVE",
"351 297 CURVE SMOOTH",
"523 297 LINE SMOOTH"
);
}
);
};
layerId = "258ED206-D907-4350-8EBA-CBDDA1C16BF7";
paths = (
{
closed = 1;
nodes = (
"447 0 LINE",
"647 0 LINE",
"751 742 LINE",
"551 742 LINE",
"512 461 LINE",
"288 461 LINE",
"327 742 LINE",
"127 742 LINE",
"23 0 LINE",
"223 0 LINE",
"264 297 LINE",
"488 297 LINE"
);
}
);
width = 744;
},
{
anchors = (
{
name = bottom;
position = "{323, 0}";
},
{
name = top;
position = "{427, 742}";
}
);
background = {
anchors = (
{
name = bottom;
position = "{427, 0}";
},
{
name = top;
position = "{427, 742}";
}
);
paths = (
{
closed = 1;
nodes = (
"627 366 OFFCURVE",
"629 364 OFFCURVE",
"629 359 CURVE SMOOTH",
"629 9 LINE SMOOTH",
"629 2 OFFCURVE",
"632 0 OFFCURVE",
"639 0 CURVE SMOOTH",
"666 0 LINE SMOOTH",
"672 0 OFFCURVE",
"675 3 OFFCURVE",
"675 10 CURVE SMOOTH",
"675 732 LINE SMOOTH",
"675 740 OFFCURVE",
"673 742 OFFCURVE",
"666 742 CURVE SMOOTH",
"637 742 LINE SMOOTH",
"631 742 OFFCURVE",
"629 739 OFFCURVE",
"629 733 CURVE SMOOTH",
"629 414 LINE SMOOTH",
"629 408 OFFCURVE",
"627 406 OFFCURVE",
"621 406 CURVE SMOOTH",
"233 406 LINE SMOOTH",
"226 406 OFFCURVE",
"224 407 OFFCURVE",
"224 415 CURVE SMOOTH",
"224 732 LINE SMOOTH",
"224 740 OFFCURVE",
"222 742 OFFCURVE",
"215 742 CURVE SMOOTH",
"187 742 LINE SMOOTH",
"180 742 OFFCURVE",
"178 740 OFFCURVE",
"178 732 CURVE SMOOTH",
"178 10 LINE SMOOTH",
"178 3 OFFCURVE",
"180 0 OFFCURVE",
"187 0 CURVE SMOOTH",
"214 0 LINE SMOOTH",
"221 0 OFFCURVE",
"224 3 OFFCURVE",
"224 9 CURVE SMOOTH",
"224 360 LINE SMOOTH",
"224 363 OFFCURVE",
"226 366 OFFCURVE",
"230 366 CURVE SMOOTH",
"622 366 LINE SMOOTH"
);
}
);
};
layerId = "91AB5BCA-6A50-42DA-B2F7-8181BF189245";
paths = (
{
closed = 1;
nodes = (
"527 0 LINE",
"567 0 LINE",
"671 742 LINE",
"631 742 LINE",
"584 407 LINE",
"175 407 LINE",
"222 742 LINE",
"182 742 LINE",
"78 0 LINE",
"118 0 LINE",
"169 365 LINE",
"578 365 LINE"
);
}
);
width = 719;
}
);
leftMetricsKey = N;
rightMetricsKey = N;
unicode = 0048;
},
{
glyphname = Hbar;
lastChange = "2017-05-01 20:16:21 +0000";
layers = (
{
background = {
components = (
{
name = H;
transform = "{1, 0, 0, 1, -12, 0}";
}
);
paths = (
{
closed = 1;
nodes = (
"852 645 OFFCURVE",
"844 658 OFFCURVE",
"834 658 CURVE SMOOTH",
"67 658 LINE SMOOTH",
"57 658 OFFCURVE",
"55 657 OFFCURVE",
"53 644 CURVE SMOOTH",
"45 583 LINE SMOOTH",
"43 568 OFFCURVE",
"50 555 OFFCURVE",
"67 555 CURVE SMOOTH",
"815 555 LINE SMOOTH",
"835 555 OFFCURVE",
"840 556 OFFCURVE",
"842 573 CURVE SMOOTH",
"851 634 LINE SMOOTH"
);
}
);
};
components = (
{
name = H;
transform = "{1, 0, 0, 1, -12, 0}";
}
);
layerId = "258ED206-D907-4350-8EBA-CBDDA1C16BF7";
paths = (
{
closed = 1;
nodes = (
"55 658 LINE",
"41 555 LINE",
"839 555 LINE",
"855 658 LINE"
);
}
);
width = 810;
},
{
background = {
components = (
{
name = H;
transform = "{1, 0, 0, 1, -42, 0}";
}
);
paths = (
{
closed = 1;
nodes = (
"747 614 OFFCURVE",
"745 618 OFFCURVE",
"740 618 CURVE SMOOTH",
"57 618 LINE SMOOTH",
"52 618 OFFCURVE",
"50 616 OFFCURVE",
"49 610 CURVE SMOOTH",
"47 589 LINE SMOOTH",
"46 582 OFFCURVE",
"48 578 OFFCURVE",
"56 578 CURVE SMOOTH",
"730 578 LINE SMOOTH",
"739 578 OFFCURVE",
"742 580 OFFCURVE",
"743 588 CURVE SMOOTH",
"746 609 LINE SMOOTH"
);
}
);
};
components = (
{
name = H;
transform = "{1, 0, 0, 1, -42, 0}";
}
);
layerId = "91AB5BCA-6A50-42DA-B2F7-8181BF189245";
paths = (
{
closed = 1;
nodes = (
"55 618 LINE",
"51 578 LINE",
"747 578 LINE",
"752 618 LINE"
);
}
);
width = 708;
}
);
unicode = 0126;
},
{
glyphname = I;
lastChange = "2017-05-01 13:51:30 +0000";
layers = (
{
anchors = (
{
name = bottom;
position = "{133, 0}";
},
{
name = ogonek;
position = "{198, 3}";
},
{
name = top;
position = "{227, 742}";
}
);
background = {
anchors = (
{
name = bottom;
position = "{240, 0}";
},
{
name = ogonek;
position = "{322, 10}";
},
{
name = top;
position = "{241, 742}";
}
);
paths = (
{
closed = 1;
nodes = (
"135 742 OFFCURVE",
"127 734 OFFCURVE",
"127 719 CURVE SMOOTH",
"127 25 LINE SMOOTH",
"127 8 OFFCURVE",
"133 0 OFFCURVE",
"154 0 CURVE SMOOTH",
"321 0 LINE SMOOTH",
"344 0 OFFCURVE",
"354 8 OFFCURVE",
"354 29 CURVE SMOOTH",
"354 721 LINE SMOOTH",
"354 734 OFFCURVE",
"348 742 OFFCURVE",
"336 742 CURVE SMOOTH",
"146 742 LINE SMOOTH"
);
}
);
};
layerId = "258ED206-D907-4350-8EBA-CBDDA1C16BF7";
paths = (
{
closed = 1;
nodes = (
"23 0 LINE",
"223 0 LINE",
"327 742 LINE",
"127 742 LINE"
);
}
);
width = 320;
},
{
anchors = (
{
name = bottom;
position = "{99, 0}";
},
{
name = ogonek;
position = "{112, 10}";
},
{
name = top;
position = "{206, 742}";
}
);
background = {
anchors = (
{
name = bottom;
position = "{203, 0}";
},
{
name = ogonek;
position = "{215, 10}";
},
{
name = top;
position = "{206, 742}";
}
);
paths = (
{
closed = 1;
nodes = (
"182 742 OFFCURVE",
"180 740 OFFCURVE",
"180 732 CURVE SMOOTH",
"180 10 LINE SMOOTH",
"180 2 OFFCURVE",
"182 0 OFFCURVE",
"191 0 CURVE SMOOTH",
"214 0 LINE SMOOTH",
"224 0 OFFCURVE",
"226 2 OFFCURVE",
"226 12 CURVE SMOOTH",
"226 732 LINE SMOOTH",
"226 740 OFFCURVE",
"224 742 OFFCURVE",
"217 742 CURVE SMOOTH",
"189 742 LINE SMOOTH"
);
}
);
};
layerId = "91AB5BCA-6A50-42DA-B2F7-8181BF189245";
paths = (
{
closed = 1;
nodes = (
"78 0 LINE",
"118 0 LINE",
"222 742 LINE",
"182 742 LINE"
);
}
);
width = 270;
}
);
unicode = 0049;
},
{
glyphname = J;
lastChange = "2017-05-01 14:06:08 +0000";
layers = (
{
anchors = (
{
name = top;
position = "{285, 742}";
}
);
background = {
anchors = (
{
name = top;
position = "{285, 742}";
}
);
paths = (
{
closed = 1;
nodes = (
"462 721 LINE SMOOTH",
"462 734 OFFCURVE",
"456 742 OFFCURVE",
"444 742 CURVE SMOOTH",
"255 742 LINE SMOOTH",
"243 742 OFFCURVE",
"235 734 OFFCURVE",
"235 719 CURVE SMOOTH",
"235 268 LINE SMOOTH",
"235 200 OFFCURVE",
"206 175 OFFCURVE",
"157 175 CURVE SMOOTH",
"135 175 OFFCURVE",
"118 180 OFFCURVE",
"102 182 CURVE SMOOTH",
"86 184 OFFCURVE",
"79 174 OFFCURVE",
"78 159 CURVE SMOOTH",
"69 45 LINE SMOOTH",
"67 17 OFFCURVE",
"77 6 OFFCURVE",
"100 2 CURVE SMOOTH",
"145 -6 OFFCURVE",
"183 -10 OFFCURVE",
"224 -10 CURVE SMOOTH",
"380 -10 OFFCURVE",
"462 48 OFFCURVE",
"462 212 CURVE SMOOTH"
);
}
);
};
layerId = "258ED206-D907-4350-8EBA-CBDDA1C16BF7";
paths = (
{
closed = 1;
nodes = (
"435 742 LINE",
"235 742 LINE",
"171 286 LINE SMOOTH",
"160 209 OFFCURVE",
"138 174 OFFCURVE",
"67 174 CURVE SMOOTH",
"46 174 OFFCURVE",
"21 177 OFFCURVE",
"3 179 CURVE",
"-22 0 LINE",
"7 -6 OFFCURVE",
"68 -10 OFFCURVE",
"110 -10 CURVE SMOOTH",
"289 -10 OFFCURVE",
"341 71 OFFCURVE",
"364 235 CURVE SMOOTH"
);
}
);
width = 418;
},
{
anchors = (
{
name = top;
position = "{307, 742}";
}
);
background = {
anchors = (
{
name = top;
position = "{307, 742}";
}
);
paths = (
{
closed = 1;
nodes = (
"330 732 LINE SMOOTH",
"330 739 OFFCURVE",
"328 742 OFFCURVE",
"322 742 CURVE SMOOTH",
"292 742 LINE SMOOTH",
"286 742 OFFCURVE",
"284 739 OFFCURVE",
"284 733 CURVE SMOOTH",
"284 154 LINE SMOOTH",
"284 61 OFFCURVE",
"262 34 OFFCURVE",
"197 34 CURVE SMOOTH",
"148 34 OFFCURVE",
"126 49 OFFCURVE",
"105 59 CURVE SMOOTH",
"101 61 OFFCURVE",
"98 60 OFFCURVE",
"97 55 CURVE SMOOTH",
"88 24 LINE SMOOTH",
"87 20 OFFCURVE",
"89 17 OFFCURVE",
"92 15 CURVE SMOOTH",
"99 10 OFFCURVE",
"144 -10 OFFCURVE",
"199 -10 CURVE SMOOTH",
"296 -10 OFFCURVE",
"330 49 OFFCURVE",
"330 144 CURVE SMOOTH"
);
}
);
};
layerId = "91AB5BCA-6A50-42DA-B2F7-8181BF189245";
paths = (
{
closed = 1;
nodes = (
"325 742 LINE",
"285 742 LINE",
"203 158 LINE SMOOTH",
"190 65 OFFCURVE",
"162 32 OFFCURVE",
"97 32 CURVE SMOOTH",
"45 32 OFFCURVE",
"22 53 OFFCURVE",
"2 64 CURVE",
"-15 19 LINE",
"-8 13 OFFCURVE",
"35 -10 OFFCURVE",
"93 -10 CURVE SMOOTH",
"190 -10 OFFCURVE",
"228 49 OFFCURVE",
"241 144 CURVE SMOOTH"
);
}
);
width = 358;
}
);
leftKerningGroup = J;
unicode = 004A;
},
{
glyphname = K;
lastChange = "2017-05-01 14:20:56 +0000";
layers = (
{
anchors = (
{
name = bottom;
position = "{322, 0}";
},
{
name = top;
position = "{426, 742}";
}
);
background = {
anchors = (
{
name = bottom;
position = "{426, 0}";
},
{
name = top;
position = "{426, 742}";
}
);
paths = (
{
closed = 1;
nodes = (
"582 480 LINE SMOOTH",
"576 494 OFFCURVE",
"577 501 OFFCURVE",
"585 512 CURVE SMOOTH",
"749 713 LINE SMOOTH",
"762 728 OFFCURVE",
"750 742 OFFCURVE",
"728 742 CURVE SMOOTH",
"576 742 LINE SMOOTH",
"552 742 OFFCURVE",
"544 736 OFFCURVE",
"533 721 CURVE SMOOTH",
"349 463 LINE",
"341 453 OFFCURVE",
"334 452 OFFCURVE",
"334 468 CURVE SMOOTH",
"334 721 LINE SMOOTH",
"334 734 OFFCURVE",
"328 742 OFFCURVE",
"316 742 CURVE SMOOTH",
"126 742 LINE SMOOTH",
"115 742 OFFCURVE",
"107 734 OFFCURVE",
"107 719 CURVE SMOOTH",
"107 25 LINE SMOOTH",
"107 8 OFFCURVE",
"113 0 OFFCURVE",
"134 0 CURVE SMOOTH",
"301 0 LINE SMOOTH",
"324 0 OFFCURVE",
"334 8 OFFCURVE",
"334 29 CURVE SMOOTH",
"334 180 LINE SMOOTH",
"334 190 OFFCURVE",
"335 196 OFFCURVE",
"340 202 CURVE SMOOTH",
"411 293 LINE SMOOTH",
"421 306 OFFCURVE",
"427 308 OFFCURVE",
"433 298 CURVE SMOOTH",
"555 20 LINE SMOOTH",
"562 5 OFFCURVE",
"574 0 OFFCURVE",
"591 0 CURVE SMOOTH",
"786 0 LINE SMOOTH",
"806 0 OFFCURVE",
"808 15 OFFCURVE",
"800 31 CURVE SMOOTH"
);
}
);
};
guideLines = (
{
angle = 54.4985;
position = "{773, 742}";
},
{
angle = -62.8805;
position = "{305, 313}";
}
);
hints = (
{
horizontal = 1;
origin = "{0, 6}";
target = up;
type = BottomGhost;
},
{
horizontal = 1;
origin = "{0, 5}";
target = down;
type = TopGhost;
},
{
place = "{-156, -1}";
}
);
layerId = "258ED206-D907-4350-8EBA-CBDDA1C16BF7";
paths = (
{
closed = 1;
nodes = (
"529 458 LINE",
"773 742 LINE",
"548 742 LINE",
"292 442 LINE",
"334 742 LINE",
"127 742 LINE",
"23 0 LINE",
"230 0 LINE",
"257 194 LINE",
"366 313 LINE",
"487 0 LINE",
"702 0 LINE"
);
}
);
width = 749;
},
{
anchors = (
{
name = bottom;
position = "{305, 0}";
},
{
name = top;
position = "{439, 742}";
}
);
background = {
anchors = (
{
name = bottom;
position = "{411, 0}";
},
{
name = top;
position = "{441, 742}";
}
);
paths = (
{
closed = 1;
nodes = (
"411 445 LINE SMOOTH",
"409 449 OFFCURVE",
"409 449 OFFCURVE",
"411 451 CURVE SMOOTH",
"670 734 LINE SMOOTH",
"674 738 OFFCURVE",
"673 742 OFFCURVE",
"667 742 CURVE SMOOTH",
"629 742 LINE SMOOTH",
"623 742 OFFCURVE",
"621 741 OFFCURVE",
"618 738 CURVE SMOOTH",
"235 322 LINE SMOOTH",
"230 317 OFFCURVE",
"228 317 OFFCURVE",
"228 323 CURVE SMOOTH",
"228 734 LINE SMOOTH",
"228 740 OFFCURVE",
"225 742 OFFCURVE",
"220 742 CURVE SMOOTH",
"190 742 LINE SMOOTH",
"184 742 OFFCURVE",
"182 739 OFFCURVE",
"182 734 CURVE SMOOTH",
"182 9 LINE SMOOTH",
"182 2 OFFCURVE",
"185 0 OFFCURVE",
"192 0 CURVE SMOOTH",
"218 0 LINE SMOOTH",
"225 0 OFFCURVE",
"228 3 OFFCURVE",
"228 9 CURVE SMOOTH",
"228 246 LINE SMOOTH",
"228 254 OFFCURVE",
"230 257 OFFCURVE",
"236 263 CURVE SMOOTH",
"368 409 LINE SMOOTH",
"373 414 OFFCURVE",
"376 415 OFFCURVE",
"380 409 CURVE SMOOTH",
"638 5 LINE SMOOTH",
"640 2 OFFCURVE",
"644 0 OFFCURVE",
"649 0 CURVE SMOOTH",
"688 0 LINE SMOOTH",
"692 0 OFFCURVE",
"694 3 OFFCURVE",
"691 7 CURVE SMOOTH"
);
}
);
};
guideLines = (
{
angle = 116.4117;
position = "{535, 0}";
},
{
angle = 223.3115;
position = "{722, 785}";
}
);
layerId = "91AB5BCA-6A50-42DA-B2F7-8181BF189245";
paths = (
{
closed = 1;
nodes = (
"364 447 LINE",
"676 742 LINE",
"618 742 LINE",
"164 314 LINE",
"224 742 LINE",
"182 742 LINE",
"78 0 LINE",
"120 0 LINE",
"155 250 LINE",
"329 415 LINE",
"535 0 LINE",
"587 0 LINE"
);
}
);
width = 664;
}
);
leftMetricsKey = N;
rightKerningGroup = K;
unicode = 004B;
},
{
glyphname = L;
lastChange = "2017-05-01 14:06:08 +0000";
layers = (
{
anchors = (
{
name = bottom;
position = "{268, 0}";
},
{
name = top;
position = "{216, 742}";
},
{
name = topright;
position = "{558, 742}";
}
);
background = {
anchors = (
{
name = bottom;
position = "{372, 0}";
},
{
name = top;
position = "{226, 742}";
},
{
name = topright;
position = "{568, 742}";
}
);
paths = (
{
closed = 1;
nodes = (
"110 25 LINE SMOOTH",
"110 8 OFFCURVE",
"116 0 OFFCURVE",
"137 0 CURVE SMOOTH",
"648 0 LINE SMOOTH",
"665 0 OFFCURVE",
"673 10 OFFCURVE",
"673 22 CURVE SMOOTH",
"673 145 LINE SMOOTH",
"673 159 OFFCURVE",
"664 164 OFFCURVE",
"650 164 CURVE SMOOTH",
"349 164 LINE SMOOTH",
"340 164 OFFCURVE",
"337 167 OFFCURVE",
"337 178 CURVE SMOOTH",
"337 721 LINE SMOOTH",
"337 734 OFFCURVE",
"331 742 OFFCURVE",
"319 742 CURVE SMOOTH",
"129 742 LINE SMOOTH",
"118 742 OFFCURVE",
"110 734 OFFCURVE",
"110 719 CURVE SMOOTH"
);
}
);
};
layerId = "258ED206-D907-4350-8EBA-CBDDA1C16BF7";
paths = (
{
closed = 1;
nodes = (
"23 0 LINE",
"519 0 LINE",
"542 164 LINE",
"246 164 LINE",
"327 742 LINE",
"127 742 LINE"
);
}
);
width = 571;
},
{
anchors = (
{
name = bottom;
position = "{283, 0}";
},
{
name = top;
position = "{207, 742}";
},
{
name = topright;
position = "{489, 742}";
}
);
background = {
anchors = (
{
name = bottom;
position = "{387, 0}";
},
{
name = top;
position = "{205, 742}";
},
{
name = topright;
position = "{491, 742}";
}
);
paths = (
{
closed = 1;
nodes = (
"182 10 LINE SMOOTH",
"182 3 OFFCURVE",
"184 0 OFFCURVE",
"191 0 CURVE",
"601 0 LINE",
"606 0 OFFCURVE",
"608 2 OFFCURVE",
"608 7 CURVE SMOOTH",
"608 33 LINE SMOOTH",
"608 39 OFFCURVE",
"606 40 OFFCURVE",
"600 40 CURVE SMOOTH",
"237 40 LINE SMOOTH",
"230 40 OFFCURVE",
"228 41 OFFCURVE",
"228 49 CURVE SMOOTH",
"228 732 LINE SMOOTH",
"228 740 OFFCURVE",
"226 742 OFFCURVE",
"219 742 CURVE SMOOTH",
"191 742 LINE SMOOTH",
"184 742 OFFCURVE",
"182 740 OFFCURVE",
"182 732 CURVE SMOOTH"
);
}
);
};
layerId = "91AB5BCA-6A50-42DA-B2F7-8181BF189245";
paths = (
{
closed = 1;
nodes = (
"78 0 LINE",
"500 0 LINE",
"506 44 LINE",
"128 44 LINE",
"226 742 LINE",
"182 742 LINE"
);
}
);
width = 567;
}
);
leftMetricsKey = N;
rightKerningGroup = L;
unicode = 004C;
},
{
glyphname = Lslash;
lastChange = "2017-05-01 14:07:12 +0000";
layers = (
{
background = {
components = (
{
name = L;
transform = "{1, 0, 0, 1, -7, 0}";
}
);
paths = (
{
closed = 1;
nodes = (
"478 544 OFFCURVE",
"469 558 OFFCURVE",
"452 554 CURVE SMOOTH",
"31 445 LINE SMOOTH",
"19 442 OFFCURVE",
"16 442 OFFCURVE",
"14 427 CURVE SMOOTH",
"-3 307 LINE SMOOTH",
"-5 290 OFFCURVE",
"2 275 OFFCURVE",
"23 281 CURVE SMOOTH",
"441 395 LINE SMOOTH",
"456 399 OFFCURVE",
"458 403 OFFCURVE",
"460 415 CURVE SMOOTH",
"476 528 LINE SMOOTH"
);
}
);
};
components = (
{
name = L;
transform = "{1, 0, 0, 1, -7, 0}";
}
);
layerId = "258ED206-D907-4350-8EBA-CBDDA1C16BF7";
paths = (
{
closed = 1;
nodes = (
"16 441 LINE",
"-8 273 LINE",
"458 400 LINE",
"481 561 LINE"
);
}
);
width = 564;
},
{
background = {
components = (
{
name = L;
transform = "{1, 0, 0, 1, -42, 0}";
}
);
paths = (
{
closed = 1;
nodes = (
"346 435 OFFCURVE",
"343 438 OFFCURVE",
"338 437 CURVE SMOOTH",
"46 365 LINE SMOOTH",
"43 364 OFFCURVE",
"42 362 OFFCURVE",
"41 357 CURVE SMOOTH",
"38 333 LINE SMOOTH",
"37 328 OFFCURVE",
"40 326 OFFCURVE",
"45 327 CURVE SMOOTH",
"336 400 LINE SMOOTH",
"340 401 OFFCURVE",
"341 403 OFFCURVE",
"342 407 CURVE SMOOTH",
"345 431 LINE SMOOTH"
);
}
);
};
components = (
{
name = L;
transform = "{1, 0, 0, 1, -42, 0}";
}
);
layerId = "91AB5BCA-6A50-42DA-B2F7-8181BF189245";
paths = (
{
closed = 1;
nodes = (
"47 364 LINE",
"42 325 LINE",
"346 401 LINE",
"351 439 LINE"
);
}
);
width = 525;
}
);
rightMetricsKey = L;
unicode = 0141;
},
{
glyphname = M;
lastChange = "2017-05-01 13:51:30 +0000";
layers = (
{
background = {
paths = (
{
closed = 1;
nodes = (
"281 0 LINE SMOOTH",
"299 0 OFFCURVE",
"303 4 OFFCURVE",
"303 22 CURVE SMOOTH",
"303 464 LINE SMOOTH",
"303 477 OFFCURVE",
"310 481 OFFCURVE",
"315 465 CURVE SMOOTH",
"459 18 LINE SMOOTH",
"463 6 OFFCURVE",
"471 0 OFFCURVE",
"483 0 CURVE SMOOTH",
"588 0 LINE SMOOTH",
"599 0 OFFCURVE",
"608 7 OFFCURVE",
"612 18 CURVE SMOOTH",
"756 473 LINE SMOOTH",
"760 485 OFFCURVE",
"768 485 OFFCURVE",
"768 474 CURVE SMOOTH",
"768 25 LINE SMOOTH",
"768 8 OFFCURVE",
"774 0 OFFCURVE",
"794 0 CURVE SMOOTH",
"963 0 LINE SMOOTH",
"986 0 OFFCURVE",
"995 8 OFFCURVE",
"995 29 CURVE SMOOTH",
"995 721 LINE SMOOTH",
"995 734 OFFCURVE",
"989 742 OFFCURVE",
"977 742 CURVE SMOOTH",
"688 742 LINE SMOOTH",
"674 742 OFFCURVE",
"666 731 OFFCURVE",
"661 713 CURVE SMOOTH",
"568 406 LINE SMOOTH",
"565 397 OFFCURVE",
"559 395 OFFCURVE",
"555 406 CURVE SMOOTH",
"451 724 LINE SMOOTH",
"446 738 OFFCURVE",
"440 742 OFFCURVE",
"423 742 CURVE SMOOTH",
"143 742 LINE SMOOTH",
"128 742 OFFCURVE",
"122 735 OFFCURVE",
"122 719 CURVE SMOOTH",
"122 28 LINE SMOOTH",
"122 11 OFFCURVE",
"132 0 OFFCURVE",
"148 0 CURVE SMOOTH"
);
}
);
};
guideLines = (
{
angle = -105;
position = "{416, 289}";
},
{
angle = 105;
position = "{416, 289}";
}
);
layerId = "258ED206-D907-4350-8EBA-CBDDA1C16BF7";
paths = (
{
closed = 1;
nodes = (
"223 0 LINE",
"298 537 LINE",
"367 0 LINE",
"511 0 LINE",
"730 537 LINE",
"655 0 LINE",
"855 0 LINE",
"959 742 LINE",
"664 742 LINE",
"479 289 LINE",
"423 742 LINE",
"127 742 LINE",
"23 0 LINE"
);
}
);
width = 952;
},
{
background = {
guideLines = (
{
position = "{107, 566}";
showMeasurement = 1;
}
);
paths = (
{
closed = 1;
nodes = (
"212 0 LINE SMOOTH",
"219 0 OFFCURVE",
"222 3 OFFCURVE",
"222 9 CURVE SMOOTH",
"222 622 LINE SMOOTH",
"222 626 OFFCURVE",
"224 625 OFFCURVE",
"225 622 CURVE SMOOTH",
"469 10 LINE SMOOTH",
"472 3 OFFCURVE",
"477 0 OFFCURVE",
"488 0 CURVE SMOOTH",
"515 0 LINE SMOOTH",
"524 0 OFFCURVE",
"528 3 OFFCURVE",
"531 11 CURVE SMOOTH",
"780 627 LINE SMOOTH",
"781 630 OFFCURVE",
"783 632 OFFCURVE",
"783 627 CURVE SMOOTH",
"783 9 LINE SMOOTH",
"783 2 OFFCURVE",
"786 0 OFFCURVE",
"793 0 CURVE SMOOTH",
"820 0 LINE SMOOTH",
"826 0 OFFCURVE",
"829 3 OFFCURVE",
"829 10 CURVE SMOOTH",
"829 732 LINE SMOOTH",
"829 740 OFFCURVE",
"827 742 OFFCURVE",
"820 742 CURVE SMOOTH",
"791 742 LINE SMOOTH",
"785 742 OFFCURVE",
"782 740 OFFCURVE",
"780 735 CURVE SMOOTH",
"509 65 LINE SMOOTH",
"503 51 OFFCURVE",
"498 51 OFFCURVE",
"493 64 CURVE SMOOTH",
"226 734 LINE",
"224 740 OFFCURVE",
"221 742 OFFCURVE",
"213 742 CURVE SMOOTH",
"187 742 LINE SMOOTH",
"180 742 OFFCURVE",
"178 740 OFFCURVE",
"178 732 CURVE SMOOTH",
"178 10 LINE SMOOTH",
"178 3 OFFCURVE",
"180 0 OFFCURVE",
"187 0 CURVE SMOOTH"
);
}
);
};
guideLines = (
{
position = "{166, 566}";
showMeasurement = 1;
},
{
angle = 68.255;
position = "{326, 0}";
}
);
layerId = "91AB5BCA-6A50-42DA-B2F7-8181BF189245";
paths = (
{
closed = 1;
nodes = (
"122 0 LINE",
"209 624 LINE",
"371 0 LINE",
"431 0 LINE",
"772 632 LINE",
"683 0 LINE",
"727 0 LINE",
"831 742 LINE",
"787 742 LINE",
"407 45 LINE",
"227 742 LINE",
"182 742 LINE",
"78 0 LINE"
);
}
);
width = 879;
}
);
leftMetricsKey = N;
rightMetricsKey = N;
unicode = 004D;
},
{
glyphname = N;
lastChange = "2017-05-01 13:51:30 +0000";
layers = (
{
anchors = (
{
name = bottom;
position = "{367, 0}";
},
{
name = top;
position = "{471, 742}";
}
);
background = {
anchors = (
{
name = bottom;
position = "{471, 0}";
},
{
name = top;
position = "{471, 742}";
}
);
paths = (
{
closed = 1;
nodes = (
"624 742 OFFCURVE",
"617 734 OFFCURVE",
"617 721 CURVE SMOOTH",
"617 394 LINE SMOOTH",
"617 378 OFFCURVE",
"610 378 OFFCURVE",
"601 390 CURVE SMOOTH",
"361 724 LINE SMOOTH",
"350 739 OFFCURVE",
"344 742 OFFCURVE",
"327 742 CURVE SMOOTH",
"164 742 LINE SMOOTH",
"149 742 OFFCURVE",
"142 735 OFFCURVE",
"142 719 CURVE SMOOTH",
"142 20 LINE SMOOTH",
"142 5 OFFCURVE",
"152 0 OFFCURVE",
"167 0 CURVE SMOOTH",
"303 0 LINE SMOOTH",
"321 0 OFFCURVE",
"328 6 OFFCURVE",
"327 22 CURVE SMOOTH",
"327 386 LINE SMOOTH",
"327 393 OFFCURVE",
"332 395 OFFCURVE",
"337 388 CURVE SMOOTH",
"612 15 LINE SMOOTH",
"622 2 OFFCURVE",
"628 0 OFFCURVE",
"639 0 CURVE SMOOTH",
"776 0 LINE SMOOTH",
"789 0 OFFCURVE",
"799 7 OFFCURVE",
"799 18 CURVE SMOOTH",
"799 725 LINE SMOOTH",
"799 736 OFFCURVE",
"794 742 OFFCURVE",
"784 742 CURVE SMOOTH",
"639 742 LINE SMOOTH"
);
}
);
};
guideLines = (
{
angle = 125.0467;
position = "{501, 328}";
}
);
layerId = "258ED206-D907-4350-8EBA-CBDDA1C16BF7";
paths = (
{
closed = 1;
nodes = (
"559 328 LINE",
"328 742 LINE",
"127 742 LINE",
"23 0 LINE",
"223 0 LINE",
"285 442 LINE",
"532 0 LINE",
"713 0 LINE",
"817 742 LINE",
"617 742 LINE"
);
}
);
width = 810;
},
{
anchors = (
{
name = bottom;
position = "{313, 0}";
},
{
name = top;
position = "{456, 742}";
}
);
background = {
anchors = (
{
name = bottom;
position = "{423, 0}";
},
{
name = top;
position = "{458, 742}";
}
);
guideLines = (
{
position = "{112, 576}";
showMeasurement = 1;
}
);
paths = (
{
closed = 1;
nodes = (
"663 742 OFFCURVE",
"661 739 OFFCURVE",
"661 733 CURVE SMOOTH",
"661 107 LINE SMOOTH",
"661 101 OFFCURVE",
"654 95 OFFCURVE",
"647 105 CURVE SMOOTH",
"220 735 LINE SMOOTH",
"216 741 OFFCURVE",
"213 742 OFFCURVE",
"205 742 CURVE SMOOTH",
"187 742 LINE",
"180 742 OFFCURVE",
"178 740 OFFCURVE",
"178 732 CURVE SMOOTH",
"178 10 LINE SMOOTH",
"178 3 OFFCURVE",
"180 0 OFFCURVE",
"187 0 CURVE SMOOTH",
"212 0 LINE SMOOTH",
"219 0 OFFCURVE",
"222 3 OFFCURVE",
"222 9 CURVE SMOOTH",
"222 637 LINE SMOOTH",
"222 645 OFFCURVE",
"227 647 OFFCURVE",
"234 637 CURVE SMOOTH",
"662 6 LINE SMOOTH",
"667 -1 OFFCURVE",
"673 0 OFFCURVE",
"681 0 CURVE SMOOTH",
"696 0 LINE SMOOTH",
"702 0 OFFCURVE",
"705 3 OFFCURVE",
"705 10 CURVE SMOOTH",
"705 732 LINE SMOOTH",
"705 740 OFFCURVE",
"703 742 OFFCURVE",
"696 742 CURVE SMOOTH",
"669 742 LINE SMOOTH"
);
}
);
};
guideLines = (
{
position = "{173, 576}";
showMeasurement = 1;
},
{
angle = 123.9688;
position = "{199, 659}";
}
);
layerId = "91AB5BCA-6A50-42DA-B2F7-8181BF189245";
paths = (
{
closed = 1;
nodes = (
"568 80 LINE",
"215 742 LINE",
"182 742 LINE",
"78 0 LINE",
"118 0 LINE",
"210 659 LINE",
"562 0 LINE",
"597 0 LINE",
"701 742 LINE",
"661 742 LINE"
);
}
);
width = 749;
}
);
unicode = 004E;
},
{
glyphname = Eng;
lastChange = "2017-04-27 20:04:40 +0000";
layers = (
{
background = {
guideLines = (
{
angle = 82.0656;
position = "{581, 584}";
}
);
paths = (
{
closed = 1;
nodes = (
"621 742 LINE SMOOTH",
"606 742 OFFCURVE",
"603 740 OFFCURVE",
"601 727 CURVE SMOOTH",
"561 440 LINE SMOOTH",
"559 423 OFFCURVE",
"548 415 OFFCURVE",
"541 426 CURVE SMOOTH",
"340 719 LINE SMOOTH",
"332 734 OFFCURVE",
"323 742 OFFCURVE",
"306 742 CURVE SMOOTH",
"146 742 LINE SMOOTH",
"131 742 OFFCURVE",
"128 737 OFFCURVE",
"126 724 CURVE SMOOTH",
"27 26 LINE SMOOTH",
"25 11 OFFCURVE",
"38 0 OFFCURVE",
"53 0 CURVE SMOOTH",
"189 0 LINE SMOOTH",
"207 0 OFFCURVE",
"210 0 OFFCURVE",
"211 16 CURVE",
"262 380 LINE SMOOTH",
"264 395 OFFCURVE",
"272 399 OFFCURVE",
"277 392 CURVE SMOOTH",
"489 73 LINE",
"487 63 LINE SMOOTH",
"476 10 OFFCURVE",
"463 -13 OFFCURVE",
"410 -13 CURVE SMOOTH",
"392 -13 OFFCURVE",
"331 -6 OFFCURVE",
"311 -2 CURVE SMOOTH",
"300 0 OFFCURVE",
"296 -2 OFFCURVE",
"293 -17 CURVE SMOOTH",
"270 -114 LINE SMOOTH",
"265 -142 OFFCURVE",
"277 -158 OFFCURVE",
"303 -161 CURVE SMOOTH",
"343 -170 OFFCURVE",
"386 -175 OFFCURVE",
"431 -175 CURVE SMOOTH",
"579 -175 OFFCURVE",
"664 -120 OFFCURVE",
"687 41 CURVE SMOOTH",
"782 719 LINE SMOOTH",
"784 733 OFFCURVE",
"779 742 OFFCURVE",
"766 742 CURVE SMOOTH"
);
}
);
};
guideLines = (
{
angle = 82.0656;
position = "{581, 584}";
}
);
layerId = "258ED206-D907-4350-8EBA-CBDDA1C16BF7";
paths = (
{
closed = 1;
nodes = (
"603 742 LINE",
"556 404 LINE",
"324 742 LINE",
"129 742 LINE",
"23 0 LINE",
"209 0 LINE",
"266 409 LINE",
"489 73 LINE",
"487 63 LINE SMOOTH",
"476 10 OFFCURVE",
"463 -13 OFFCURVE",
"410 -13 CURVE SMOOTH",
"389 -13 OFFCURVE",
"320 -4 OFFCURVE",
"297 1 CURVE",
"261 -152 LINE",
"314 -167 OFFCURVE",
"371 -175 OFFCURVE",
"431 -175 CURVE SMOOTH",
"579 -175 OFFCURVE",
"664 -120 OFFCURVE",
"687 41 CURVE SMOOTH",
"785 742 LINE"
);
}
);
width = 778;
},
{
background = {
paths = (
{
closed = 1;
nodes = (
"669 742 LINE SMOOTH",
"663 742 OFFCURVE",
"662 740 OFFCURVE",
"661 734 CURVE SMOOTH",
"573 108 LINE SMOOTH",
"572 102 OFFCURVE",
"563 93 OFFCURVE",
"557 103 CURVE SMOOTH",
"220 734 LINE SMOOTH",
"217 740 OFFCURVE",
"214 742 OFFCURVE",
"207 742 CURVE SMOOTH",
"186 742 LINE SMOOTH",
"179 742 OFFCURVE",
"178 741 OFFCURVE",
"177 733 CURVE SMOOTH",
"75 11 LINE SMOOTH",
"74 4 OFFCURVE",
"77 0 OFFCURVE",
"84 0 CURVE SMOOTH",
"109 0 LINE SMOOTH",
"116 0 OFFCURVE",
"118 2 OFFCURVE",
"119 8 CURVE SMOOTH",
"208 639 LINE SMOOTH",
"209 647 OFFCURVE",
"212 651 OFFCURVE",
"218 641 CURVE SMOOTH",
"556 12 LINE",
"549 -40 LINE SMOOTH",
"539 -111 OFFCURVE",
"504 -135 OFFCURVE",
"449 -135 CURVE SMOOTH",
"420 -135 OFFCURVE",
"397 -128 OFFCURVE",
"380 -123 CURVE SMOOTH",
"377 -120 OFFCURVE",
"376 -120 OFFCURVE",
"374 -125 CURVE",
"368 -150 LINE",
"367 -154 OFFCURVE",
"369 -157 OFFCURVE",
"372 -159 CURVE SMOOTH",
"378 -164 OFFCURVE",
"409 -175 OFFCURVE",
"451 -175 CURVE SMOOTH",
"544 -175 OFFCURVE",
"583 -125 OFFCURVE",
"594 -47 CURVE SMOOTH",
"703 731 LINE SMOOTH",
"705 739 OFFCURVE",
"702 742 OFFCURVE",
"695 742 CURVE SMOOTH"
);
}
);
};
layerId = "91AB5BCA-6A50-42DA-B2F7-8181BF189245";
paths = (
{
closed = 1;
nodes = (
"667 742 LINE",
"574 80 LINE",
"221 742 LINE",
"183 742 LINE",
"78 0 LINE",
"123 0 LINE",
"215 655 LINE",
"561 12 LINE",
"554 -40 LINE SMOOTH",
"544 -111 OFFCURVE",
"509 -135 OFFCURVE",
"454 -135 CURVE SMOOTH",
"423 -135 OFFCURVE",
"398 -127 OFFCURVE",
"380 -121 CURVE",
"372 -155 LINE",
"378 -161 OFFCURVE",
"411 -175 OFFCURVE",
"456 -175 CURVE SMOOTH",
"549 -175 OFFCURVE",
"588 -125 OFFCURVE",
"599 -47 CURVE SMOOTH",
"710 742 LINE"
);
}
);
width = 758;
}
);
leftMetricsKey = N;
rightMetricsKey = N;
unicode = 014A;
},
{
glyphname = O;
lastChange = "2017-05-01 14:06:08 +0000";
layers = (
{
anchors = (
{
name = bottom;
position = "{344, 0}";
},
{
name = ogonek;
position = "{436, 10}";
},
{
name = top;
position = "{446, 742}";
}
);
background = {
anchors = (
{
name = bottom;
position = "{448, 0}";
},
{
name = ogonek;
position = "{539, 10}";
},
{
name = top;
position = "{446, 742}";
}
);
paths = (
{
closed = 1;
nodes = (
"665 -10 OFFCURVE",
"805 139 OFFCURVE",
"805 369 CURVE SMOOTH",
"805 601 OFFCURVE",
"662 752 OFFCURVE",
"447 752 CURVE SMOOTH",
"230 752 OFFCURVE",
"87 601 OFFCURVE",
"87 369 CURVE SMOOTH",
"87 138 OFFCURVE",
"226 -10 OFFCURVE",
"447 -10 CURVE SMOOTH"
);
},
{
closed = 1;
nodes = (
"358 146 OFFCURVE",
"325 206 OFFCURVE",
"325 366 CURVE SMOOTH",
"325 531 OFFCURVE",
"360 598 OFFCURVE",
"447 598 CURVE SMOOTH",
"532 598 OFFCURVE",
"567 531 OFFCURVE",
"567 366 CURVE SMOOTH",
"567 206 OFFCURVE",
"534 146 OFFCURVE",
"447 146 CURVE SMOOTH"
);
}
);
};
guideLines = (
{
angle = 90;
position = "{-637, 431}";
}
);
layerId = "258ED206-D907-4350-8EBA-CBDDA1C16BF7";
paths = (
{
closed = 1;
nodes = (
"559 -10 OFFCURVE",
"720 139 OFFCURVE",
"753 369 CURVE SMOOTH",
"785 601 OFFCURVE",
"663 752 OFFCURVE",
"448 752 CURVE SMOOTH",
"231 752 OFFCURVE",
"67 601 OFFCURVE",
"35 369 CURVE SMOOTH",
"2 138 OFFCURVE",
"120 -10 OFFCURVE",
"341 -10 CURVE SMOOTH"
);
},
{
closed = 1;
nodes = (
"282 150 OFFCURVE",
"229 206 OFFCURVE",
"251 366 CURVE SMOOTH",
"274 531 OFFCURVE",
"344 592 OFFCURVE",
"426 592 CURVE SMOOTH",
"508 592 OFFCURVE",
"558 531 OFFCURVE",
"535 366 CURVE SMOOTH",
"513 206 OFFCURVE",
"446 150 OFFCURVE",
"364 150 CURVE SMOOTH"
);
}
);
width = 758;
},
{
anchors = (
{
name = bottom;
position = "{326, 0}";
},
{
name = ogonek;
position = "{397, 9}";
},
{
name = top;
position = "{430, 742}";
}
);
background = {
anchors = (
{
name = bottom;
position = "{430, 0}";
},
{
name = ogonek;
position = "{500, 9}";
},
{
name = top;
position = "{430, 742}";
}
);
paths = (
{
closed = 1;
nodes = (
"616 -10 OFFCURVE",
"729 122 OFFCURVE",
"729 369 CURVE SMOOTH",
"729 618 OFFCURVE",
"616 752 OFFCURVE",
"429 752 CURVE SMOOTH",
"241 752 OFFCURVE",
"127 617 OFFCURVE",
"127 367 CURVE SMOOTH",
"127 121 OFFCURVE",
"239 -10 OFFCURVE",
"428 -10 CURVE SMOOTH"
);
},
{
closed = 1;
nodes = (
"264 32 OFFCURVE",
"175 143 OFFCURVE",
"175 369 CURVE SMOOTH",
"175 597 OFFCURVE",
"264 710 OFFCURVE",
"429 710 CURVE SMOOTH",
"593 710 OFFCURVE",
"681 598 OFFCURVE",
"681 369 CURVE SMOOTH",
"681 142 OFFCURVE",
"595 32 OFFCURVE",
"430 32 CURVE SMOOTH"
);
}
);
};
guideLines = (
{
angle = 90;
position = "{-506, 431}";
},
{
angle = 90;
position = "{509, 640}";
}
);
layerId = "91AB5BCA-6A50-42DA-B2F7-8181BF189245";
paths = (
{
closed = 1;
nodes = (
"510 -10 OFFCURVE",
"642 122 OFFCURVE",
"677 369 CURVE SMOOTH",
"712 618 OFFCURVE",
"617 752 OFFCURVE",
"430 752 CURVE SMOOTH",
"242 752 OFFCURVE",
"109 617 OFFCURVE",
"74 367 CURVE SMOOTH",
"40 121 OFFCURVE",
"133 -10 OFFCURVE",
"322 -10 CURVE SMOOTH"
);
},
{
closed = 1;
nodes = (
"164 32 OFFCURVE",
"88 143 OFFCURVE",
"120 369 CURVE SMOOTH",
"152 597 OFFCURVE",
"260 710 OFFCURVE",
"425 710 CURVE SMOOTH",
"589 710 OFFCURVE",
"664 598 OFFCURVE",
"632 369 CURVE SMOOTH",
"600 142 OFFCURVE",
"495 32 OFFCURVE",
"330 32 CURVE SMOOTH"
);
}
);
width = 722;
}
);
leftKerningGroup = O;
rightKerningGroup = O;
unicode = 004F;
},
{
glyphname = Oslash;
lastChange = "2017-04-27 20:04:40 +0000";
layers = (
{
anchors = (
{
name = top;
position = "{469, 742}";
}
);
background = {
anchors = (
{
name = top;
position = "{469, 742}";
}
);
paths = (
{
closed = 1;
nodes = (
"793 738 LINE SMOOTH",
"788 746 OFFCURVE",
"776 752 OFFCURVE",
"764 741 CURVE SMOOTH",
"688 670 LINE",
"636 720 OFFCURVE",
"560 752 OFFCURVE",
"463 752 CURVE SMOOTH",
"250 752 OFFCURVE",
"91 607 OFFCURVE",
"59 380 CURVE SMOOTH",
"46 289 OFFCURVE",
"57 214 OFFCURVE",
"83 154 CURVE",
"1 88 LINE SMOOTH",
"-12 76 OFFCURVE",
"-6 66 OFFCURVE",
"7 51 CURVE SMOOTH",
"41 11 LINE SMOOTH",
"54 -5 OFFCURVE",
"65 -12 OFFCURVE",
"82 3 CURVE SMOOTH",
"150 66 LINE",
"201 19 OFFCURVE",
"276 -10 OFFCURVE",
"372 -10 CURVE SMOOTH",
"586 -10 OFFCURVE",
"742 133 OFFCURVE",
"774 358 CURVE SMOOTH",
"787 447 OFFCURVE",
"776 521 OFFCURVE",
"751 580 CURVE",
"843 655 LINE",
"853 664 OFFCURVE",
"847 674 OFFCURVE",
"841 682 CURVE SMOOTH"
);
},
{
closed = 1;
nodes = (
"318 525 OFFCURVE",
"367 598 OFFCURVE",
"458 598 CURVE SMOOTH",
"498 598 OFFCURVE",
"525 585 OFFCURVE",
"538 544 CURVE",
"289 324 LINE",
"291 336 OFFCURVE",
"293 348 OFFCURVE",
"294 355 CURVE"
);
},
{
closed = 1;
nodes = (
"516 212 OFFCURVE",
"469 146 OFFCURVE",
"378 146 CURVE SMOOTH",
"338 146 OFFCURVE",
"311 156 OFFCURVE",
"296 190 CURVE",
"543 409 LINE",
"542 397 OFFCURVE",
"540 385 OFFCURVE",
"539 377 CURVE SMOOTH"
);
}
);
};
layerId = "258ED206-D907-4350-8EBA-CBDDA1C16BF7";
paths = (
{
closed = 1;
nodes = (
"150 66 LINE",
"201 19 OFFCURVE",
"276 -10 OFFCURVE",
"372 -10 CURVE SMOOTH",
"586 -10 OFFCURVE",
"742 133 OFFCURVE",
"774 358 CURVE SMOOTH",
"787 447 OFFCURVE",
"776 521 OFFCURVE",
"751 580 CURVE",
"855 665 LINE",
"779 755 LINE",
"688 670 LINE",
"636 720 OFFCURVE",
"560 752 OFFCURVE",
"463 752 CURVE SMOOTH",
"250 752 OFFCURVE",
"91 607 OFFCURVE",
"59 380 CURVE SMOOTH",
"46 289 OFFCURVE",
"57 214 OFFCURVE",
"83 154 CURVE",
"-14 76 LINE",
"63 -15 LINE"
);
},
{
closed = 1;
nodes = (
"338 146 OFFCURVE",
"311 156 OFFCURVE",
"296 190 CURVE",
"544 409 LINE",
"542 390 OFFCURVE",
"539 372 OFFCURVE",
"536 355 CURVE SMOOTH",
"510 207 OFFCURVE",
"462 146 OFFCURVE",
"378 146 CURVE SMOOTH"
);
},
{
closed = 1;
nodes = (
"293 352 OFFCURVE",
"297 377 OFFCURVE",
"302 400 CURVE SMOOTH",
"329 538 OFFCURVE",
"378 598 OFFCURVE",
"458 598 CURVE SMOOTH",
"498 598 OFFCURVE",
"525 585 OFFCURVE",
"538 544 CURVE",
"290 325 LINE"
);
}
);
width = 813;
},
{
anchors = (
{
name = top;
position = "{426, 742}";
}
);
background = {
anchors = (
{
name = top;
position = "{421, 742}";
}
);
paths = (
{
closed = 1;
nodes = (
"725 748 LINE",
"720 752 OFFCURVE",
"716 752 OFFCURVE",
"712 747 CURVE",
"624 658 LINE",
"581 719 OFFCURVE",
"512 752 OFFCURVE",
"420 752 CURVE SMOOTH",
"233 752 OFFCURVE",
"102 618 OFFCURVE",
"67 369 CURVE SMOOTH",
"52 267 OFFCURVE",
"61 185 OFFCURVE",
"88 124 CURVE",
"-11 27 LINE",
"-16 22 OFFCURVE",
"-14 19 OFFCURVE",
"-8 12 CURVE SMOOTH",
"7 -4 LINE",
"14 -10 OFFCURVE",
"19 -12 OFFCURVE",
"26 -4 CURVE",
"111 82 LINE",
"154 22 OFFCURVE",
"223 -10 OFFCURVE",
"316 -10 CURVE SMOOTH",
"503 -10 OFFCURVE",
"634 121 OFFCURVE",
"668 367 CURVE SMOOTH",
"683 471 OFFCURVE",
"675 554 OFFCURVE",
"647 616 CURVE",
"748 715 LINE",
"752 719 OFFCURVE",
"749 723 OFFCURVE",
"747 726 CURVE"
);
},
{
closed = 1;
nodes = (
"150 596 OFFCURVE",
"252 709 OFFCURVE",
"418 709 CURVE SMOOTH",
"499 709 OFFCURVE",
"558 682 OFFCURVE",
"592 626 CURVE",
"124 160 LINE",
"108 213 OFFCURVE",
"105 282 OFFCURVE",
"117 367 CURVE SMOOTH"
);
},
{
closed = 1;
nodes = (
"586 143 OFFCURVE",
"486 33 OFFCURVE",
"320 33 CURVE SMOOTH",
"238 33 OFFCURVE",
"179 60 OFFCURVE",
"144 116 CURVE",
"611 581 LINE",
"628 527 OFFCURVE",
"630 457 OFFCURVE",
"618 371 CURVE SMOOTH"
);
}
);
};
layerId = "91AB5BCA-6A50-42DA-B2F7-8181BF189245";
paths = (
{
closed = 1;
nodes = (
"116 82 LINE",
"159 22 OFFCURVE",
"228 -10 OFFCURVE",
"321 -10 CURVE SMOOTH",
"508 -10 OFFCURVE",
"639 121 OFFCURVE",
"673 367 CURVE SMOOTH",
"688 471 OFFCURVE",
"680 554 OFFCURVE",
"652 616 CURVE",
"758 720 LINE",
"724 754 LINE",
"629 658 LINE",
"586 719 OFFCURVE",
"517 752 OFFCURVE",
"425 752 CURVE SMOOTH",
"238 752 OFFCURVE",
"107 618 OFFCURVE",
"72 369 CURVE SMOOTH",
"57 267 OFFCURVE",
"66 185 OFFCURVE",
"93 124 CURVE",
"-12 21 LINE",
"21 -14 LINE"
);
},
{
closed = 1;
nodes = (
"243 33 OFFCURVE",
"184 60 OFFCURVE",
"149 116 CURVE",
"616 581 LINE",
"633 527 OFFCURVE",
"635 457 OFFCURVE",
"623 371 CURVE SMOOTH",
"591 143 OFFCURVE",
"491 33 OFFCURVE",
"325 33 CURVE SMOOTH"
);
},
{
closed = 1;
nodes = (
"113 213 OFFCURVE",
"110 282 OFFCURVE",
"122 367 CURVE SMOOTH",
"155 596 OFFCURVE",
"257 709 OFFCURVE",
"423 709 CURVE SMOOTH",
"504 709 OFFCURVE",
"563 682 OFFCURVE",
"597 626 CURVE",
"129 160 LINE"
);
}
);
width = 715;
}
);
unicode = 00D8;
},
{
glyphname = OE;
lastChange = "2017-04-27 20:04:40 +0000";
layers = (
{
background = {
paths = (
{
closed = 1;
nodes = (
"721 164 LINE SMOOTH",
"712 164 OFFCURVE",
"712 161 OFFCURVE",
"714 172 CURVE SMOOTH",
"728 272 LINE SMOOTH",
"729 280 OFFCURVE",
"741 292 OFFCURVE",
"751 292 CURVE SMOOTH",
"936 292 LINE SMOOTH",
"949 292 OFFCURVE",
"950 294 OFFCURVE",
"951 303 CURVE SMOOTH",
"969 427 LINE SMOOTH",
"971 440 OFFCURVE",
"961 453 OFFCURVE",
"947 453 CURVE SMOOTH",
"767 453 LINE SMOOTH",
"757 453 OFFCURVE",
"754 454 OFFCURVE",
"756 468 CURVE SMOOTH",
"767 553 LINE SMOOTH",
"769 566 OFFCURVE",
"783 578 OFFCURVE",
"798 578 CURVE SMOOTH",
"1098 578 LINE SMOOTH",
"1116 578 OFFCURVE",
"1121 583 OFFCURVE",
"1123 599 CURVE SMOOTH",
"1140 715 LINE SMOOTH",
"1142 728 OFFCURVE",
"1134 742 OFFCURVE",
"1122 742 CURVE SMOOTH",
"658 742 LINE",
"651 742 OFFCURVE",
"644 742 OFFCURVE",
"637 742 CURVE",
"596 741 LINE",
"562 748 OFFCURVE",
"519 752 OFFCURVE",
"464 752 CURVE SMOOTH",
"227 752 OFFCURVE",
"68 607 OFFCURVE",
"36 380 CURVE SMOOTH",
"3 144 OFFCURVE",
"124 -10 OFFCURVE",
"361 -10 CURVE SMOOTH",
"413 -10 OFFCURVE",
"461 -8 OFFCURVE",
"500 -1 CURVE",
"550 0 LINE",
"557 0 OFFCURVE",
"564 0 OFFCURVE",
"571 0 CURVE",
"1029 0 LINE SMOOTH",
"1046 0 OFFCURVE",
"1049 4 OFFCURVE",
"1051 16 CURVE SMOOTH",
"1068 139 LINE SMOOTH",
"1070 153 OFFCURVE",
"1060 164 OFFCURVE",
"1046 164 CURVE SMOOTH"
);
},
{
closed = 1;
nodes = (
"270 146 OFFCURVE",
"249 200 OFFCURVE",
"271 355 CURVE SMOOTH",
"295 525 OFFCURVE",
"344 598 OFFCURVE",
"435 598 CURVE SMOOTH",
"516 598 OFFCURVE",
"538 537 OFFCURVE",
"516 377 CURVE SMOOTH",
"493 212 OFFCURVE",
"446 146 OFFCURVE",
"355 146 CURVE SMOOTH"
);
}
);
};
layerId = "258ED206-D907-4350-8EBA-CBDDA1C16BF7";
paths = (
{
closed = 1;
nodes = (
"713 164 LINE",
"731 292 LINE",
"949 292 LINE",
"973 453 LINE",
"754 453 LINE",
"770 578 LINE",
"1120 578 LINE",
"1144 742 LINE",
"637 742 LINE",
"596 741 LINE",
"562 748 OFFCURVE",
"519 752 OFFCURVE",
"464 752 CURVE SMOOTH",
"227 752 OFFCURVE",
"68 607 OFFCURVE",
"36 380 CURVE SMOOTH",
"3 144 OFFCURVE",
"124 -10 OFFCURVE",
"361 -10 CURVE SMOOTH",
"413 -10 OFFCURVE",
"461 -8 OFFCURVE",
"500 -1 CURVE",
"550 0 LINE",
"1049 0 LINE",
"1071 164 LINE"
);
},
{
closed = 1;
nodes = (
"270 146 OFFCURVE",
"249 200 OFFCURVE",
"271 355 CURVE SMOOTH",
"295 525 OFFCURVE",
"344 598 OFFCURVE",
"435 598 CURVE SMOOTH",
"516 598 OFFCURVE",
"538 537 OFFCURVE",
"516 377 CURVE SMOOTH",
"493 212 OFFCURVE",
"446 146 OFFCURVE",
"355 146 CURVE SMOOTH"
);
}
);
width = 1126;
},
{
background = {
paths = (
{
closed = 1;
nodes = (
"633 40 LINE SMOOTH",
"626 40 OFFCURVE",
"625 40 OFFCURVE",
"627 48 CURVE SMOOTH",
"668 345 LINE SMOOTH",
"669 353 OFFCURVE",
"673 355 OFFCURVE",
"680 355 CURVE SMOOTH",
"957 355 LINE SMOOTH",
"963 355 OFFCURVE",
"964 355 OFFCURVE",
"964 361 CURVE SMOOTH",
"968 387 LINE SMOOTH",
"969 392 OFFCURVE",
"966 395 OFFCURVE",
"961 395 CURVE SMOOTH",
"683 395 LINE SMOOTH",
"676 395 OFFCURVE",
"675 395 OFFCURVE",
"676 401 CURVE SMOOTH",
"717 692 LINE SMOOTH",
"718 700 OFFCURVE",
"721 702 OFFCURVE",
"728 702 CURVE SMOOTH",
"1086 702 LINE SMOOTH",
"1092 702 OFFCURVE",
"1093 702 OFFCURVE",
"1094 708 CURVE SMOOTH",
"1098 734 LINE SMOOTH",
"1099 739 OFFCURVE",
"1096 742 OFFCURVE",
"1091 742 CURVE SMOOTH",
"686 742 LINE SMOOTH",
"679 742 OFFCURVE",
"678 741 OFFCURVE",
"677 733 CURVE SMOOTH",
"658 599 LINE",
"622 699 OFFCURVE",
"541 752 OFFCURVE",
"423 752 CURVE SMOOTH",
"236 752 OFFCURVE",
"105 618 OFFCURVE",
"70 369 CURVE SMOOTH",
"35 122 OFFCURVE",
"129 -10 OFFCURVE",
"319 -10 CURVE SMOOTH",
"435 -10 OFFCURVE",
"530 40 OFFCURVE",
"594 139 CURVE",
"575 11 LINE SMOOTH",
"574 3 OFFCURVE",
"577 0 OFFCURVE",
"584 0 CURVE SMOOTH",
"1004 0 LINE SMOOTH",
"1009 0 OFFCURVE",
"1010 1 OFFCURVE",
"1011 6 CURVE SMOOTH",
"1014 32 LINE SMOOTH",
"1015 38 OFFCURVE",
"1012 40 OFFCURVE",
"1006 40 CURVE SMOOTH"
);
},
{
closed = 1;
nodes = (
"158 32 OFFCURVE",
"86 142 OFFCURVE",
"117 367 CURVE SMOOTH",
"150 596 OFFCURVE",
"256 710 OFFCURVE",
"422 710 CURVE SMOOTH",
"585 710 OFFCURVE",
"653 599 OFFCURVE",
"621 371 CURVE SMOOTH",
"589 143 OFFCURVE",
"489 32 OFFCURVE",
"323 32 CURVE SMOOTH"
);
}
);
};
layerId = "91AB5BCA-6A50-42DA-B2F7-8181BF189245";
paths = (
{
closed = 1;
nodes = (
"631 40 LINE",
"674 355 LINE",
"968 355 LINE",
"974 395 LINE",
"680 395 LINE",
"723 702 LINE",
"1098 702 LINE",
"1104 742 LINE",
"683 742 LINE",
"663 599 LINE",
"627 699 OFFCURVE",
"546 752 OFFCURVE",
"428 752 CURVE SMOOTH",
"241 752 OFFCURVE",
"110 618 OFFCURVE",
"75 369 CURVE SMOOTH",
"40 122 OFFCURVE",
"134 -10 OFFCURVE",
"324 -10 CURVE SMOOTH",
"440 -10 OFFCURVE",
"535 40 OFFCURVE",
"599 139 CURVE",
"578 0 LINE",
"1015 0 LINE",
"1020 40 LINE"
);
},
{
closed = 1;
nodes = (
"163 32 OFFCURVE",
"91 142 OFFCURVE",
"122 367 CURVE SMOOTH",
"155 596 OFFCURVE",
"261 710 OFFCURVE",
"427 710 CURVE SMOOTH",
"590 710 OFFCURVE",
"658 599 OFFCURVE",
"626 371 CURVE SMOOTH",
"594 143 OFFCURVE",
"494 32 OFFCURVE",
"328 32 CURVE SMOOTH"
);
}
);
width = 1122;
}
);
leftKerningGroup = O;
leftMetricsKey = O;
rightMetricsKey = E;
unicode = 0152;
},
{
glyphname = P;
lastChange = "2017-07-13 02:51:05 +0000";
layers = (
{
background = {
paths = (
{
closed = 1;
nodes = (
"761 662 OFFCURVE",
"624 742 OFFCURVE",
"460 742 CURVE SMOOTH",
"129 742 LINE SMOOTH",
"117 742 OFFCURVE",
"110 734 OFFCURVE",
"110 719 CURVE SMOOTH",
"110 25 LINE SMOOTH",
"110 8 OFFCURVE",
"116 0 OFFCURVE",
"136 0 CURVE SMOOTH",
"304 0 LINE SMOOTH",
"327 0 OFFCURVE",
"337 8 OFFCURVE",
"337 29 CURVE SMOOTH",
"337 255 LINE SMOOTH",
"337 262 OFFCURVE",
"340 266 OFFCURVE",
"349 266 CURVE SMOOTH",
"486 266 LINE SMOOTH",
"649 266 OFFCURVE",
"761 355 OFFCURVE",
"761 501 CURVE SMOOTH"
);
},
{
closed = 1;
nodes = (
"529 461 OFFCURVE",
"500 426 OFFCURVE",
"452 426 CURVE SMOOTH",
"354 426 LINE SMOOTH",
"341 426 OFFCURVE",
"337 433 OFFCURVE",
"337 448 CURVE SMOOTH",
"337 561 LINE SMOOTH",
"337 576 OFFCURVE",
"343 582 OFFCURVE",
"360 582 CURVE SMOOTH",
"446 582 LINE SMOOTH",
"492 582 OFFCURVE",
"529 552 OFFCURVE",
"529 504 CURVE SMOOTH"
);
}
);
};
layerId = "258ED206-D907-4350-8EBA-CBDDA1C16BF7";
paths = (
{
closed = 1;
nodes = (
"223 0 LINE",
"259 255 LINE",
"378 255 LINE SMOOTH",
"541 255 OFFCURVE",
"655 344 OFFCURVE",
"676 490 CURVE SMOOTH",
"698 651 OFFCURVE",
"584 742 OFFCURVE",
"420 742 CURVE SMOOTH",
"127 742 LINE",
"23 0 LINE"
);
},
{
closed = 1;
nodes = (
"304 594 LINE",
"418 594 LINE SMOOTH",
"463 594 OFFCURVE",
"501 552 OFFCURVE",
"494 500 CURVE SMOOTH",
"487 452 OFFCURVE",
"442 404 OFFCURVE",
"391 404 CURVE SMOOTH",
"277 404 LINE"
);
}
);
width = 654;
},
{
background = {
paths = (
{
closed = 1;
nodes = (
"679 684 OFFCURVE",
"568 742 OFFCURVE",
"413 742 CURVE SMOOTH",
"191 742 LINE SMOOTH",
"184 742 OFFCURVE",
"182 740 OFFCURVE",
"182 732 CURVE SMOOTH",
"182 8 LINE SMOOTH",
"182 3 OFFCURVE",
"185 0 OFFCURVE",
"190 0 CURVE SMOOTH",
"220 0 LINE SMOOTH",
"225 0 OFFCURVE",
"228 3 OFFCURVE",
"228 9 CURVE SMOOTH",
"228 318 LINE SMOOTH",
"228 324 OFFCURVE",
"230 327 OFFCURVE",
"236 327 CURVE SMOOTH",
"419 327 LINE SMOOTH",
"570 327 OFFCURVE",
"679 387 OFFCURVE",
"679 535 CURVE SMOOTH"
);
},
{
closed = 1;
nodes = (
"631 415 OFFCURVE",
"547 367 OFFCURVE",
"419 367 CURVE SMOOTH",
"235 367 LINE SMOOTH",
"230 367 OFFCURVE",
"228 370 OFFCURVE",
"228 377 CURVE SMOOTH",
"228 694 LINE SMOOTH",
"228 700 OFFCURVE",
"231 702 OFFCURVE",
"237 702 CURVE SMOOTH",
"412 702 LINE SMOOTH",
"547 702 OFFCURVE",
"631 662 OFFCURVE",
"631 538 CURVE SMOOTH"
);
}
);
};
layerId = "91AB5BCA-6A50-42DA-B2F7-8181BF189245";
paths = (
{
closed = 1;
nodes = (
"122 0 LINE",
"167 325 LINE",
"358 325 LINE SMOOTH",
"509 325 OFFCURVE",
"627 388 OFFCURVE",
"648 536 CURVE SMOOTH",
"669 685 OFFCURVE",
"566 742 OFFCURVE",
"411 742 CURVE SMOOTH",
"182 742 LINE",
"78 0 LINE"
);
},
{
closed = 1;
nodes = (
"220 698 LINE",
"404 698 LINE SMOOTH",
"539 698 OFFCURVE",
"621 663 OFFCURVE",
"603 539 CURVE SMOOTH",
"586 416 OFFCURVE",
"493 369 OFFCURVE",
"365 369 CURVE SMOOTH",
"174 369 LINE"
);
}
);
width = 640;
}
);
rightKerningGroup = P;
unicode = 0050;
},
{
glyphname = Thorn;
lastChange = "2017-04-27 20:04:40 +0000";
layers = (
{
background = {
paths = (
{
closed = 1;
nodes = (
"760 524 OFFCURVE",
"631 608 OFFCURVE",
"467 608 CURVE SMOOTH",
"341 608 LINE SMOOTH",
"334 608 OFFCURVE",
"335 606 OFFCURVE",
"336 614 CURVE SMOOTH",
"350 715 LINE SMOOTH",
"352 728 OFFCURVE",
"344 742 OFFCURVE",
"332 742 CURVE SMOOTH",
"142 742 LINE SMOOTH",
"131 742 OFFCURVE",
"127 740 OFFCURVE",
"125 725 CURVE SMOOTH",
"27 31 LINE SMOOTH",
"25 14 OFFCURVE",
"33 0 OFFCURVE",
"53 0 CURVE SMOOTH",
"221 0 LINE SMOOTH",
"244 0 OFFCURVE",
"250 2 OFFCURVE",
"253 23 CURVE SMOOTH",
"267 125 LINE SMOOTH",
"268 132 OFFCURVE",
"277 142 OFFCURVE",
"286 142 CURVE SMOOTH",
"436 142 LINE SMOOTH",
"599 142 OFFCURVE",
"718 223 OFFCURVE",
"737 361 CURVE SMOOTH"
);
},
{
closed = 1;
nodes = (
"503 341 OFFCURVE",
"464 302 OFFCURVE",
"416 302 CURVE SMOOTH",
"305 302 LINE SMOOTH",
"292 302 OFFCURVE",
"292 303 OFFCURVE",
"294 318 CURVE SMOOTH",
"309 421 LINE SMOOTH",
"311 436 OFFCURVE",
"323 448 OFFCURVE",
"340 448 CURVE SMOOTH",
"439 448 LINE SMOOTH",
"485 448 OFFCURVE",
"515 426 OFFCURVE",
"509 386 CURVE SMOOTH"
);
}
);
};
layerId = "258ED206-D907-4350-8EBA-CBDDA1C16BF7";
paths = (
{
closed = 1;
nodes = (
"760 524 OFFCURVE",
"631 608 OFFCURVE",
"467 608 CURVE SMOOTH",
"335 608 LINE",
"354 742 LINE",
"127 742 LINE",
"23 0 LINE",
"250 0 LINE",
"269 142 LINE",
"436 142 LINE SMOOTH",
"599 142 OFFCURVE",
"718 223 OFFCURVE",
"737 361 CURVE SMOOTH"
);
},
{
closed = 1;
nodes = (
"503 341 OFFCURVE",
"464 302 OFFCURVE",
"416 302 CURVE SMOOTH",
"292 302 LINE",
"313 448 LINE",
"439 448 LINE SMOOTH",
"485 448 OFFCURVE",
"515 426 OFFCURVE",
"509 386 CURVE SMOOTH"
);
}
);
width = 734;
},
{
background = {
paths = (
{
closed = 1;
nodes = (
"643 521 OFFCURVE",
"540 579 OFFCURVE",
"384 579 CURVE SMOOTH",
"205 579 LINE SMOOTH",
"201 579 OFFCURVE",
"200 580 OFFCURVE",
"201 583 CURVE SMOOTH",
"221 731 LINE SMOOTH",
"223 739 OFFCURVE",
"220 742 OFFCURVE",
"213 742 CURVE SMOOTH",
"185 742 LINE SMOOTH",
"178 742 OFFCURVE",
"177 741 OFFCURVE",
"176 733 CURVE SMOOTH",
"74 9 LINE SMOOTH",
"73 4 OFFCURVE",
"77 0 OFFCURVE",
"82 0 CURVE SMOOTH",
"112 0 LINE SMOOTH",
"117 0 OFFCURVE",
"119 2 OFFCURVE",
"120 8 CURVE SMOOTH",
"143 172 LINE SMOOTH",
"144 178 OFFCURVE",
"147 182 OFFCURVE",
"153 182 CURVE SMOOTH",
"336 182 LINE SMOOTH",
"486 182 OFFCURVE",
"603 238 OFFCURVE",
"624 388 CURVE SMOOTH"
);
},
{
closed = 1;
nodes = (
"560 269 OFFCURVE",
"468 222 OFFCURVE",
"340 222 CURVE SMOOTH",
"156 222 LINE SMOOTH",
"151 222 OFFCURVE",
"150 224 OFFCURVE",
"151 231 CURVE SMOOTH",
"193 530 LINE SMOOTH",
"194 536 OFFCURVE",
"199 539 OFFCURVE",
"205 539 CURVE SMOOTH",
"380 539 LINE SMOOTH",
"515 539 OFFCURVE",
"592 502 OFFCURVE",
"577 392 CURVE SMOOTH"
);
}
);
};
layerId = "91AB5BCA-6A50-42DA-B2F7-8181BF189245";
paths = (
{
closed = 1;
nodes = (
"648 521 OFFCURVE",
"545 579 OFFCURVE",
"389 579 CURVE SMOOTH",
"205 579 LINE",
"228 742 LINE",
"182 742 LINE",
"78 0 LINE",
"124 0 LINE",
"149 182 LINE",
"341 182 LINE SMOOTH",
"491 182 OFFCURVE",
"608 238 OFFCURVE",
"629 388 CURVE SMOOTH"
);
},
{
closed = 1;
nodes = (
"565 269 OFFCURVE",
"473 222 OFFCURVE",
"345 222 CURVE SMOOTH",
"155 222 LINE",
"199 539 LINE",
"385 539 LINE SMOOTH",
"520 539 OFFCURVE",
"597 502 OFFCURVE",
"582 392 CURVE SMOOTH"
);
}
);
width = 642;
}
);
leftMetricsKey = P;
rightMetricsKey = P;
unicode = 00DE;
},
{
glyphname = Q;
lastChange = "2017-05-01 14:06:08 +0000";
layers = (
{
background = {
paths = (
{
closed = 1;
nodes = (
"87 138 OFFCURVE",
"226 -10 OFFCURVE",
"447 -10 CURVE SMOOTH",
"473 -10 OFFCURVE",
"494 -9 OFFCURVE",
"518 -6 CURVE SMOOTH",
"525 -5 OFFCURVE",
"530 -6 OFFCURVE",
"533 -10 CURVE SMOOTH",
"590 -84 OFFCURVE",
"662 -128 OFFCURVE",
"762 -128 CURVE SMOOTH",
"794 -128 OFFCURVE",
"806 -122 OFFCURVE",
"806 -97 CURVE SMOOTH",
"806 13 LINE SMOOTH",
"806 20 OFFCURVE",
"803 28 OFFCURVE",
"789 30 CURVE SMOOTH",
"746 36 OFFCURVE",
"699 61 OFFCURVE",
"699 78 CURVE SMOOTH",
"699 82 OFFCURVE",
"699 84 OFFCURVE",
"701 86 CURVE",
"768 152 OFFCURVE",
"806 249 OFFCURVE",
"806 369 CURVE SMOOTH",
"806 601 OFFCURVE",
"663 752 OFFCURVE",
"447 752 CURVE SMOOTH",
"230 752 OFFCURVE",
"87 601 OFFCURVE",
"87 369 CURVE SMOOTH"
);
},
{
closed = 1;
nodes = (
"325 532 OFFCURVE",
"360 598 OFFCURVE",
"447 598 CURVE SMOOTH",
"533 598 OFFCURVE",
"568 532 OFFCURVE",
"568 367 CURVE SMOOTH",
"568 206 OFFCURVE",
"535 146 OFFCURVE",
"447 146 CURVE SMOOTH",
"358 146 OFFCURVE",
"325 206 OFFCURVE",
"325 367 CURVE SMOOTH"
);
}
);
};
layerId = "258ED206-D907-4350-8EBA-CBDDA1C16BF7";
paths = (
{
closed = 1;
nodes = (
"2 138 OFFCURVE",
"120 -10 OFFCURVE",
"341 -10 CURVE SMOOTH",
"366 -10 OFFCURVE",
"387 -9 OFFCURVE",
"424 -5 CURVE",
"496 -116 OFFCURVE",
"565 -128 OFFCURVE",
"684 -128 CURVE",
"706 28 LINE",
"655 28 OFFCURVE",
"612 53 OFFCURVE",
"608 82 CURVE",
"685 154 OFFCURVE",
"737 249 OFFCURVE",
"754 369 CURVE SMOOTH",
"786 601 OFFCURVE",
"664 752 OFFCURVE",
"448 752 CURVE SMOOTH",
"231 752 OFFCURVE",
"67 601 OFFCURVE",
"35 369 CURVE SMOOTH"
);
},
{
closed = 1;
nodes = (
"275 532 OFFCURVE",
"339 592 OFFCURVE",
"426 592 CURVE SMOOTH",
"512 592 OFFCURVE",
"558 532 OFFCURVE",
"535 367 CURVE SMOOTH",
"513 206 OFFCURVE",
"452 150 OFFCURVE",
"364 150 CURVE SMOOTH",
"275 150 OFFCURVE",
"230 206 OFFCURVE",
"252 367 CURVE SMOOTH"
);
}
);
width = 759;
},
{
background = {
paths = (
{
closed = 1;
nodes = (
"127 116 OFFCURVE",
"244 -10 OFFCURVE",
"428 -10 CURVE SMOOTH",
"454 -10 OFFCURVE",
"484 -7 OFFCURVE",
"509 -1 CURVE SMOOTH",
"516 1 OFFCURVE",
"521 -1 OFFCURVE",
"524 -5 CURVE SMOOTH",
"589 -96 OFFCURVE",
"655 -122 OFFCURVE",
"699 -122 CURVE SMOOTH",
"713 -122 OFFCURVE",
"719 -120 OFFCURVE",
"719 -109 CURVE SMOOTH",
"719 -87 LINE SMOOTH",
"719 -84 OFFCURVE",
"718 -81 OFFCURVE",
"712 -80 CURVE SMOOTH",
"637 -70 OFFCURVE",
"570 -11 OFFCURVE",
"570 16 CURVE SMOOTH",
"570 20 OFFCURVE",
"571 22 OFFCURVE",
"576 25 CURVE SMOOTH",
"673 83 OFFCURVE",
"729 189 OFFCURVE",
"729 369 CURVE SMOOTH",
"729 620 OFFCURVE",
"616 752 OFFCURVE",
"428 752 CURVE SMOOTH",
"240 752 OFFCURVE",
"127 620 OFFCURVE",
"127 369 CURVE SMOOTH"
);
},
{
closed = 1;
nodes = (
"175 592 OFFCURVE",
"261 710 OFFCURVE",
"428 710 CURVE SMOOTH",
"595 710 OFFCURVE",
"681 592 OFFCURVE",
"681 369 CURVE SMOOTH",
"681 141 OFFCURVE",
"592 32 OFFCURVE",
"428 32 CURVE SMOOTH",
"264 32 OFFCURVE",
"175 141 OFFCURVE",
"175 367 CURVE SMOOTH"
);
}
);
};
layerId = "91AB5BCA-6A50-42DA-B2F7-8181BF189245";
paths = (
{
closed = 1;
nodes = (
"39 116 OFFCURVE",
"138 -10 OFFCURVE",
"322 -10 CURVE SMOOTH",
"351 -10 OFFCURVE",
"381 -6 OFFCURVE",
"414 1 CURVE",
"453 -101 OFFCURVE",
"549 -122 OFFCURVE",
"598 -122 CURVE",
"603 -81 LINE",
"539 -78 OFFCURVE",
"485 -51 OFFCURVE",
"460 18 CURVE",
"589 81 OFFCURVE",
"653 199 OFFCURVE",
"677 369 CURVE SMOOTH",
"712 620 OFFCURVE",
"617 752 OFFCURVE",
"429 752 CURVE SMOOTH",
"241 752 OFFCURVE",
"110 620 OFFCURVE",
"75 369 CURVE SMOOTH"
);
},
{
closed = 1;
nodes = (
"151 592 OFFCURVE",
"257 710 OFFCURVE",
"424 710 CURVE SMOOTH",
"591 710 OFFCURVE",
"663 592 OFFCURVE",
"632 369 CURVE SMOOTH",
"600 141 OFFCURVE",
"492 32 OFFCURVE",
"328 32 CURVE SMOOTH",
"164 32 OFFCURVE",
"88 141 OFFCURVE",
"119 367 CURVE SMOOTH"
);
}
);
width = 722;
}
);
leftKerningGroup = O;
rightKerningGroup = O;
unicode = 0051;
},
{
glyphname = R;
lastChange = "2017-05-01 14:06:08 +0000";
layers = (
{
anchors = (
{
name = bottom;
position = "{322, 0}";
},
{
name = top;
position = "{416, 742}";
}
);
background = {
anchors = (
{
name = bottom;
position = "{426, 0}";
},
{
name = top;
position = "{416, 742}";
}
);
paths = (
{
closed = 1;
nodes = (
"633 312 LINE SMOOTH",
"630 320 OFFCURVE",
"630 328 OFFCURVE",
"637 331 CURVE SMOOTH",
"713 360 OFFCURVE",
"768 436 OFFCURVE",
"768 530 CURVE SMOOTH",
"768 664 OFFCURVE",
"656 742 OFFCURVE",
"463 742 CURVE SMOOTH",
"129 742 LINE SMOOTH",
"117 742 OFFCURVE",
"110 734 OFFCURVE",
"110 719 CURVE SMOOTH",
"110 25 LINE SMOOTH",
"110 8 OFFCURVE",
"116 0 OFFCURVE",
"136 0 CURVE SMOOTH",
"304 0 LINE SMOOTH",
"327 0 OFFCURVE",
"337 8 OFFCURVE",
"337 29 CURVE SMOOTH",
"337 284 LINE SMOOTH",
"337 287 OFFCURVE",
"340 295 OFFCURVE",
"349 295 CURVE SMOOTH",
"395 295 LINE SMOOTH",
"414 295 OFFCURVE",
"422 290 OFFCURVE",
"426 279 CURVE SMOOTH",
"520 21 LINE SMOOTH",
"524 7 OFFCURVE",
"533 0 OFFCURVE",
"547 0 CURVE SMOOTH",
"741 0 LINE SMOOTH",
"757 0 OFFCURVE",
"766 15 OFFCURVE",
"759 32 CURVE SMOOTH"
);
},
{
closed = 1;
nodes = (
"354 444 LINE SMOOTH",
"341 444 OFFCURVE",
"337 450 OFFCURVE",
"337 465 CURVE SMOOTH",
"337 574 LINE SMOOTH",
"337 589 OFFCURVE",
"343 594 OFFCURVE",
"360 594 CURVE SMOOTH",
"448 594 LINE SMOOTH",
"493 594 OFFCURVE",
"533 567 OFFCURVE",
"533 516 CURVE SMOOTH",
"533 473 OFFCURVE",
"505 444 OFFCURVE",
"454 444 CURVE SMOOTH"
);
}
);
};
layerId = "258ED206-D907-4350-8EBA-CBDDA1C16BF7";
paths = (
{
closed = 1;
nodes = (
"549 287 LINE",
"624 329 OFFCURVE",
"681 389 OFFCURVE",
"697 503 CURVE SMOOTH",
"716 637 OFFCURVE",
"656 742 OFFCURVE",
"463 742 CURVE SMOOTH",
"127 742 LINE",
"23 0 LINE",
"223 0 LINE",
"259 255 LINE",
"363 255 LINE",
"435 0 LINE",
"639 0 LINE"
);
},
{
closed = 1;
nodes = (
"279 404 LINE",
"306 594 LINE",
"420 594 LINE SMOOTH",
"465 594 OFFCURVE",
"503 552 OFFCURVE",
"496 500 CURVE SMOOTH",
"489 452 OFFCURVE",
"444 404 OFFCURVE",
"393 404 CURVE SMOOTH"
);
}
);
width = 696;
},
{
anchors = (
{
name = bottom;
position = "{299, 0}";
},
{
name = top;
position = "{396, 742}";
}
);
background = {
anchors = (
{
name = bottom;
position = "{403, 0}";
},
{
name = top;
position = "{396, 742}";
}
);
paths = (
{
closed = 1;
nodes = (
"515 359 LINE",
"514 362 OFFCURVE",
"515 365 OFFCURVE",
"519 366 CURVE SMOOTH",
"588 384 OFFCURVE",
"671 435 OFFCURVE",
"671 558 CURVE SMOOTH",
"671 680 OFFCURVE",
"587 742 OFFCURVE",
"443 742 CURVE SMOOTH",
"185 742 LINE SMOOTH",
"178 742 OFFCURVE",
"176 740 OFFCURVE",
"176 732 CURVE SMOOTH",
"176 9 LINE SMOOTH",
"176 3 OFFCURVE",
"178 0 OFFCURVE",
"186 0 CURVE SMOOTH",
"212 0 LINE SMOOTH",
"220 0 OFFCURVE",
"222 3 OFFCURVE",
"222 11 CURVE SMOOTH",
"222 344 LINE SMOOTH",
"222 351 OFFCURVE",
"225 355 OFFCURVE",
"234 355 CURVE SMOOTH",
"450 355 LINE SMOOTH",
"463 355 OFFCURVE",
"468 352 OFFCURVE",
"471 345 CURVE SMOOTH",
"613 9 LINE SMOOTH",
"616 3 OFFCURVE",
"618 0 OFFCURVE",
"625 0 CURVE SMOOTH",
"653 0 LINE SMOOTH",
"660 0 OFFCURVE",
"664 7 OFFCURVE",
"661 14 CURVE SMOOTH"
);
},
{
closed = 1;
nodes = (
"229 395 LINE SMOOTH",
"224 395 OFFCURVE",
"222 398 OFFCURVE",
"222 404 CURVE SMOOTH",
"222 694 LINE SMOOTH",
"222 700 OFFCURVE",
"225 702 OFFCURVE",
"233 702 CURVE SMOOTH",
"442 702 LINE SMOOTH",
"563 702 OFFCURVE",
"623 653 OFFCURVE",
"623 551 CURVE SMOOTH",
"623 439 OFFCURVE",
"551 395 OFFCURVE",
"408 395 CURVE SMOOTH"
);
}
);
};
layerId = "91AB5BCA-6A50-42DA-B2F7-8181BF189245";
paths = (
{
closed = 1;
nodes = (
"460 362 LINE",
"534 381 OFFCURVE",
"628 434 OFFCURVE",
"645 558 CURVE SMOOTH",
"662 680 OFFCURVE",
"587 742 OFFCURVE",
"443 742 CURVE SMOOTH",
"182 742 LINE",
"78 0 LINE",
"118 0 LINE",
"167 353 LINE",
"416 353 LINE",
"517 0 LINE",
"563 0 LINE"
);
},
{
closed = 1;
nodes = (
"173 395 LINE",
"216 700 LINE",
"436 700 LINE SMOOTH",
"557 700 OFFCURVE",
"616 656 OFFCURVE",
"601 551 CURVE SMOOTH",
"585 439 OFFCURVE",
"502 395 OFFCURVE",
"359 395 CURVE SMOOTH"
);
}
);
width = 669;
}
);
leftMetricsKey = N;
rightKerningGroup = R;
unicode = 0052;
},
{
glyphname = S;
lastChange = "2017-05-01 14:06:08 +0000";
layers = (
{
anchors = (
{
name = bottom;
position = "{282, 0}";
},
{
name = top;
position = "{386, 742}";
}
);
background = {
anchors = (
{
name = bottom;
position = "{386, 0}";
},
{
name = top;
position = "{386, 742}";
}
);
paths = (
{
closed = 1;
nodes = (
"539 529 OFFCURVE",
"545 528 OFFCURVE",
"555 535 CURVE SMOOTH",
"664 614 LINE SMOOTH",
"677 624 OFFCURVE",
"670 635 OFFCURVE",
"664 644 CURVE SMOOTH",
"618 709 OFFCURVE",
"505 752 OFFCURVE",
"386 752 CURVE SMOOTH",
"197 752 OFFCURVE",
"78 645 OFFCURVE",
"78 515 CURVE SMOOTH",
"78 410 OFFCURVE",
"154 323 OFFCURVE",
"274 293 CURVE SMOOTH",
"426 256 LINE SMOOTH",
"469 246 OFFCURVE",
"489 226 OFFCURVE",
"489 202 CURVE SMOOTH",
"489 165 OFFCURVE",
"441 144 OFFCURVE",
"368 144 CURVE SMOOTH",
"289 144 OFFCURVE",
"250 167 OFFCURVE",
"206 224 CURVE SMOOTH",
"198 234 OFFCURVE",
"186 238 OFFCURVE",
"168 226 CURVE SMOOTH",
"65 155 LINE SMOOTH",
"51 144 OFFCURVE",
"51 136 OFFCURVE",
"59 122 CURVE SMOOTH",
"106 43 OFFCURVE",
"239 -10 OFFCURVE",
"385 -10 CURVE SMOOTH",
"582 -10 OFFCURVE",
"705 86 OFFCURVE",
"705 234 CURVE SMOOTH",
"705 337 OFFCURVE",
"647 421 OFFCURVE",
"522 452 CURVE SMOOTH",
"356 495 LINE SMOOTH",
"306 507 OFFCURVE",
"292 528 OFFCURVE",
"292 546 CURVE SMOOTH",
"292 571 OFFCURVE",
"319 597 OFFCURVE",
"394 597 CURVE SMOOTH",
"472 597 OFFCURVE",
"501 569 OFFCURVE",
"525 543 CURVE SMOOTH"
);
}
);
};
guideLines = (
{
angle = 214.3236;
position = "{577, 426}";
}
);
layerId = "258ED206-D907-4350-8EBA-CBDDA1C16BF7";
paths = (
{
closed = 1;
nodes = (
"476 -10 OFFCURVE",
"613 86 OFFCURVE",
"634 234 CURVE SMOOTH",
"648 337 OFFCURVE",
"600 410 OFFCURVE",
"480 442 CURVE SMOOTH",
"320 485 LINE SMOOTH",
"258 502 OFFCURVE",
"262 528 OFFCURVE",
"264 546 CURVE SMOOTH",
"268 571 OFFCURVE",
"299 597 OFFCURVE",
"374 597 CURVE SMOOTH",
"462 597 OFFCURVE",
"484 562 OFFCURVE",
"511 525 CURVE",
"661 619 LINE",
"625 707 OFFCURVE",
"512 752 OFFCURVE",
"387 752 CURVE SMOOTH",
"198 752 OFFCURVE",
"64 645 OFFCURVE",
"46 515 CURVE SMOOTH",
"31 410 OFFCURVE",
"101 333 OFFCURVE",
"212 303 CURVE SMOOTH",
"371 261 LINE SMOOTH",
"416 249 OFFCURVE",
"418 227 OFFCURVE",
"415 206 CURVE SMOOTH",
"409 165 OFFCURVE",
"348 154 OFFCURVE",
"285 154 CURVE SMOOTH",
"187 154 OFFCURVE",
"151 182 OFFCURVE",
"113 237 CURVE",
"-37 143 LINE",
"-1 51 OFFCURVE",
"128 -10 OFFCURVE",
"279 -10 CURVE SMOOTH"
);
}
);
width = 648;
},
{
anchors = (
{
name = bottom;
position = "{272, 0}";
},
{
name = top;
position = "{382, 742}";
}
);
background = {
anchors = (
{
name = bottom;
position = "{386, 0}";
},
{
name = top;
position = "{382, 742}";
}
);
paths = (
{
closed = 1;
nodes = (
"569 620 OFFCURVE",
"571 618 OFFCURVE",
"576 622 CURVE SMOOTH",
"598 642 LINE SMOOTH",
"604 647 OFFCURVE",
"602 652 OFFCURVE",
"598 656 CURVE SMOOTH",
"541 716 OFFCURVE",
"474 752 OFFCURVE",
"381 752 CURVE SMOOTH",
"244 752 OFFCURVE",
"149 681 OFFCURVE",
"149 556 CURVE SMOOTH",
"149 492 OFFCURVE",
"179 421 OFFCURVE",
"287 380 CURVE SMOOTH",
"438 322 LINE SMOOTH",
"547 280 OFFCURVE",
"570 239 OFFCURVE",
"570 180 CURVE SMOOTH",
"570 73 OFFCURVE",
"491 32 OFFCURVE",
"372 32 CURVE SMOOTH",
"265 32 OFFCURVE",
"217 69 OFFCURVE",
"161 141 CURVE SMOOTH",
"156 147 OFFCURVE",
"151 148 OFFCURVE",
"141 141 CURVE SMOOTH",
"130 133 LINE SMOOTH",
"120 126 OFFCURVE",
"119 120 OFFCURVE",
"124 113 CURVE SMOOTH",
"183 29 OFFCURVE",
"261 -10 OFFCURVE",
"372 -10 CURVE SMOOTH",
"523 -10 OFFCURVE",
"616 60 OFFCURVE",
"616 182 CURVE SMOOTH",
"616 266 OFFCURVE",
"573 326 OFFCURVE",
"455 369 CURVE SMOOTH",
"317 419 LINE SMOOTH",
"210 458 OFFCURVE",
"195 518 OFFCURVE",
"195 557 CURVE SMOOTH",
"195 656 OFFCURVE",
"269 710 OFFCURVE",
"378 710 CURVE SMOOTH",
"462 710 OFFCURVE",
"523 674 OFFCURVE",
"563 627 CURVE SMOOTH"
);
}
);
};
layerId = "91AB5BCA-6A50-42DA-B2F7-8181BF189245";
paths = (
{
closed = 1;
nodes = (
"417 -10 OFFCURVE",
"520 60 OFFCURVE",
"537 182 CURVE SMOOTH",
"549 266 OFFCURVE",
"515 326 OFFCURVE",
"403 369 CURVE SMOOTH",
"272 419 LINE SMOOTH",
"170 458 OFFCURVE",
"160 518 OFFCURVE",
"165 557 CURVE SMOOTH",
"179 656 OFFCURVE",
"264 708 OFFCURVE",
"373 708 CURVE SMOOTH",
"461 708 OFFCURVE",
"519 670 OFFCURVE",
"554 618 CURVE",
"592 648 LINE",
"542 713 OFFCURVE",
"478 752 OFFCURVE",
"382 752 CURVE SMOOTH",
"245 752 OFFCURVE",
"140 681 OFFCURVE",
"123 556 CURVE SMOOTH",
"114 492 OFFCURVE",
"135 428 OFFCURVE",
"237 387 CURVE SMOOTH",
"380 329 LINE SMOOTH",
"483 287 OFFCURVE",
"502 239 OFFCURVE",
"494 180 CURVE SMOOTH",
"479 73 OFFCURVE",
"391 34 OFFCURVE",
"272 34 CURVE SMOOTH",
"161 34 OFFCURVE",
"118 72 OFFCURVE",
"71 150 CURVE",
"30 124 LINE",
"77 32 OFFCURVE",
"152 -10 OFFCURVE",
"266 -10 CURVE SMOOTH"
);
}
);
width = 609;
}
);
leftKerningGroup = S;
rightKerningGroup = S;
unicode = 0053;
},
{
glyphname = Schwa;
lastChange = "2017-04-27 20:04:40 +0000";
layers = (
{
background = {
paths = (
{
closed = 1;
nodes = (
"520 437 OFFCURVE",
"507 425 OFFCURVE",
"494 425 CURVE SMOOTH",
"61 425 LINE SMOOTH",
"39 425 OFFCURVE",
"42 420 OFFCURVE",
"39 403 CURVE SMOOTH",
"3 142 OFFCURVE",
"106 -10 OFFCURVE",
"343 -10 CURVE SMOOTH",
"532 -10 OFFCURVE",
"720 152 OFFCURVE",
"751 369 CURVE SMOOTH",
"782 593 OFFCURVE",
"663 752 OFFCURVE",
"437 752 CURVE SMOOTH",
"295 752 OFFCURVE",
"183 694 OFFCURVE",
"104 577 CURVE SMOOTH",
"95 556 OFFCURVE",
"98 544 OFFCURVE",
"109 538 CURVE SMOOTH",
"239 471 LINE SMOOTH",
"254 462 OFFCURVE",
"258 457 OFFCURVE",
"264 459 CURVE SMOOTH",
"320 539 OFFCURVE",
"365 578 OFFCURVE",
"431 578 CURVE SMOOTH",
"525 578 OFFCURVE",
"531 512 OFFCURVE",
"523 458 CURVE SMOOTH"
);
},
{
closed = 1;
nodes = (
"472 198 OFFCURVE",
"432 146 OFFCURVE",
"347 146 CURVE SMOOTH",
"283 146 OFFCURVE",
"253 195 OFFCURVE",
"262 256 CURVE SMOOTH",
"265 276 OFFCURVE",
"275 285 OFFCURVE",
"292 285 CURVE SMOOTH",
"497 290 LINE"
);
}
);
};
layerId = "258ED206-D907-4350-8EBA-CBDDA1C16BF7";
paths = (
{
closed = 1;
nodes = (
"42 425 LINE",
"6 150 OFFCURVE",
"108 -10 OFFCURVE",
"343 -10 CURVE SMOOTH",
"532 -10 OFFCURVE",
"720 152 OFFCURVE",
"751 369 CURVE SMOOTH",
"782 593 OFFCURVE",
"663 752 OFFCURVE",
"437 752 CURVE SMOOTH",
"287 752 OFFCURVE",
"169 685 OFFCURVE",
"86 550 CURVE",
"264 458 LINE",
"320 539 OFFCURVE",
"365 578 OFFCURVE",
"431 578 CURVE SMOOTH",
"520 578 OFFCURVE",
"526 494 OFFCURVE",
"518 425 CURVE"
);
},
{
closed = 1;
nodes = (
"472 198 OFFCURVE",
"432 146 OFFCURVE",
"347 146 CURVE SMOOTH",
"286 146 OFFCURVE",
"258 208 OFFCURVE",
"266 284 CURVE",
"497 290 LINE"
);
}
);
width = 756;
},
{
background = {
paths = (
{
closed = 1;
nodes = (
"620 382 OFFCURVE",
"618 380 OFFCURVE",
"613 380 CURVE SMOOTH",
"78 380 LINE SMOOTH",
"70 380 OFFCURVE",
"71 376 OFFCURVE",
"70 371 CURVE SMOOTH",
"42 175 OFFCURVE",
"83 -10 OFFCURVE",
"319 -10 CURVE SMOOTH",
"547 -10 OFFCURVE",
"644 179 OFFCURVE",
"670 364 CURVE SMOOTH",
"693 530 OFFCURVE",
"673 752 OFFCURVE",
"422 752 CURVE SMOOTH",
"195 752 OFFCURVE",
"126 561 OFFCURVE",
"104 524 CURVE SMOOTH",
"103 518 OFFCURVE",
"102 514 OFFCURVE",
"106 513 CURVE SMOOTH",
"142 500 LINE SMOOTH",
"146 499 OFFCURVE",
"147 497 OFFCURVE",
"149 498 CURVE SMOOTH",
"166 530 OFFCURVE",
"210 709 OFFCURVE",
"420 709 CURVE SMOOTH",
"637 709 OFFCURVE",
"638 505 OFFCURVE",
"621 388 CURVE SMOOTH"
);
},
{
closed = 1;
nodes = (
"591 192 OFFCURVE",
"518 33 OFFCURVE",
"321 33 CURVE SMOOTH",
"125 33 OFFCURVE",
"97 191 OFFCURVE",
"116 330 CURVE SMOOTH",
"117 335 OFFCURVE",
"120 338 OFFCURVE",
"126 338 CURVE SMOOTH",
"614 339 LINE"
);
}
);
};
layerId = "91AB5BCA-6A50-42DA-B2F7-8181BF189245";
paths = (
{
closed = 1;
nodes = (
"76 380 LINE",
"48 179 OFFCURVE",
"89 -10 OFFCURVE",
"324 -10 CURVE SMOOTH",
"552 -10 OFFCURVE",
"649 179 OFFCURVE",
"675 364 CURVE SMOOTH",
"698 530 OFFCURVE",
"678 752 OFFCURVE",
"427 752 CURVE SMOOTH",
"196 752 OFFCURVE",
"126 554 OFFCURVE",
"104 516 CURVE",
"154 497 LINE",
"171 530 OFFCURVE",
"215 709 OFFCURVE",
"425 709 CURVE SMOOTH",
"641 709 OFFCURVE",
"642 500 OFFCURVE",
"625 380 CURVE"
);
},
{
closed = 1;
nodes = (
"596 192 OFFCURVE",
"523 33 OFFCURVE",
"326 33 CURVE SMOOTH",
"131 33 OFFCURVE",
"103 195 OFFCURVE",
"122 338 CURVE",
"619 339 LINE"
);
}
);
width = 721;
}
);
leftMetricsKey = O;
rightMetricsKey = O;
unicode = 018F;
},
{
glyphname = T;
lastChange = "2017-05-01 14:06:08 +0000";
layers = (
{
anchors = (
{
name = bottom;
position = "{288, 0}";
},
{
name = top;
position = "{392, 742}";
}
);
background = {
anchors = (
{
name = bottom;
position = "{396, 0}";
},
{
name = top;
position = "{396, 742}";
}
);
paths = (
{
closed = 1;
nodes = (
"72 586 OFFCURVE",
"81 581 OFFCURVE",
"95 581 CURVE SMOOTH",
"271 581 LINE SMOOTH",
"279 581 OFFCURVE",
"282 577 OFFCURVE",
"282 567 CURVE SMOOTH",
"282 20 LINE SMOOTH",
"282 7 OFFCURVE",
"289 0 OFFCURVE",
"300 0 CURVE SMOOTH",
"490 0 LINE SMOOTH",
"501 0 OFFCURVE",
"509 7 OFFCURVE",
"509 22 CURVE SMOOTH",
"509 571 LINE SMOOTH",
"509 578 OFFCURVE",
"513 581 OFFCURVE",
"521 581 CURVE SMOOTH",
"698 581 LINE SMOOTH",
"711 581 OFFCURVE",
"720 586 OFFCURVE",
"720 600 CURVE SMOOTH",
"720 719 LINE SMOOTH",
"720 732 OFFCURVE",
"712 742 OFFCURVE",
"695 742 CURVE SMOOTH",
"97 742 LINE SMOOTH",
"80 742 OFFCURVE",
"72 732 OFFCURVE",
"72 719 CURVE SMOOTH",
"72 600 LINE SMOOTH"
);
}
);
};
layerId = "258ED206-D907-4350-8EBA-CBDDA1C16BF7";
paths = (
{
closed = 1;
nodes = (
"258 566 LINE",
"179 0 LINE",
"379 0 LINE",
"458 566 LINE",
"670 566 LINE",
"695 742 LINE",
"72 742 LINE",
"47 566 LINE"
);
}
);
width = 633;
},
{
anchors = (
{
name = bottom;
position = "{254, 0}";
},
{
name = top;
position = "{358, 742}";
}
);
background = {
anchors = (
{
name = bottom;
position = "{358, 0}";
},
{
name = top;
position = "{358, 742}";
}
);
paths = (
{
closed = 1;
nodes = (
"82 703 OFFCURVE",
"84 702 OFFCURVE",
"90 702 CURVE SMOOTH",
"324 702 LINE SMOOTH",
"332 702 OFFCURVE",
"334 701 OFFCURVE",
"334 693 CURVE SMOOTH",
"334 10 LINE SMOOTH",
"334 2 OFFCURVE",
"336 0 OFFCURVE",
"344 0 CURVE SMOOTH",
"371 0 LINE SMOOTH",
"378 0 OFFCURVE",
"380 2 OFFCURVE",
"380 10 CURVE SMOOTH",
"380 693 LINE SMOOTH",
"380 701 OFFCURVE",
"382 702 OFFCURVE",
"390 702 CURVE SMOOTH",
"603 702 LINE SMOOTH",
"609 702 OFFCURVE",
"611 703 OFFCURVE",
"611 709 CURVE SMOOTH",
"611 735 LINE SMOOTH",
"611 740 OFFCURVE",
"609 742 OFFCURVE",
"604 742 CURVE SMOOTH",
"89 742 LINE SMOOTH",
"84 742 OFFCURVE",
"82 740 OFFCURVE",
"82 735 CURVE SMOOTH",
"82 709 LINE SMOOTH"
);
}
);
};
layerId = "91AB5BCA-6A50-42DA-B2F7-8181BF189245";
paths = (
{
closed = 1;
nodes = (
"331 700 LINE",
"233 0 LINE",
"273 0 LINE",
"371 700 LINE",
"605 700 LINE",
"611 742 LINE",
"82 742 LINE",
"76 700 LINE"
);
}
);
width = 559;
}
);
leftKerningGroup = T;
rightKerningGroup = T;
unicode = 0054;
},
{
glyphname = Tbar;
lastChange = "2017-05-01 14:07:17 +0000";
layers = (
{
background = {
components = (
{
name = T;
}
);
paths = (
{
closed = 1;
nodes = (
"591 408 OFFCURVE",
"582 422 OFFCURVE",
"571 422 CURVE SMOOTH",
"170 422 LINE SMOOTH",
"158 422 OFFCURVE",
"155 420 OFFCURVE",
"153 405 CURVE SMOOTH",
"140 312 LINE SMOOTH",
"138 295 OFFCURVE",
"145 281 OFFCURVE",
"165 281 CURVE SMOOTH",
"544 281 LINE SMOOTH",
"567 281 OFFCURVE",
"573 283 OFFCURVE",
"576 303 CURVE SMOOTH",
"589 396 LINE SMOOTH"
);
}
);
};
components = (
{
name = T;
}
);
layerId = "258ED206-D907-4350-8EBA-CBDDA1C16BF7";
paths = (
{
closed = 1;
nodes = (
"155 422 LINE",
"136 281 LINE",
"573 281 LINE",
"593 422 LINE"
);
}
);
width = 633;
},
{
background = {
components = (
{
name = T;
}
);
guideLines = (
{
angle = 90;
position = "{212, 188}";
showMeasurement = 1;
}
);
paths = (
{
closed = 1;
nodes = (
"528 398 OFFCURVE",
"525 402 OFFCURVE",
"520 402 CURVE SMOOTH",
"168 402 LINE SMOOTH",
"163 402 OFFCURVE",
"162 400 OFFCURVE",
"161 394 CURVE SMOOTH",
"158 371 LINE SMOOTH",
"157 364 OFFCURVE",
"159 360 OFFCURVE",
"167 360 CURVE SMOOTH",
"510 360 LINE SMOOTH",
"519 360 OFFCURVE",
"523 362 OFFCURVE",
"524 370 CURVE SMOOTH",
"527 393 LINE SMOOTH"
);
}
);
};
components = (
{
name = T;
}
);
guideLines = (
{
angle = 90;
position = "{235, 188}";
showMeasurement = 1;
}
);
layerId = "91AB5BCA-6A50-42DA-B2F7-8181BF189245";
paths = (
{
closed = 1;
nodes = (
"167 402 LINE",
"162 360 LINE",
"528 360 LINE",
"533 402 LINE"
);
}
);
width = 559;
}
);
leftMetricsKey = T;
rightMetricsKey = T;
unicode = 0166;
},
{
glyphname = U;
lastChange = "2017-05-01 14:06:08 +0000";
layers = (
{
anchors = (
{
name = ogonek;
position = "{425, 12}";
},
{
name = top;
position = "{429, 742}";
}
);
background = {
anchors = (
{
name = ogonek;
position = "{544, 10}";
},
{
name = top;
position = "{449, 742}";
}
);
paths = (
{
closed = 1;
nodes = (
"752 721 LINE SMOOTH",
"752 734 OFFCURVE",
"746 742 OFFCURVE",
"734 742 CURVE SMOOTH",
"584 742 LINE SMOOTH",
"572 742 OFFCURVE",
"565 734 OFFCURVE",
"565 719 CURVE SMOOTH",
"565 292 LINE SMOOTH",
"565 181 OFFCURVE",
"511 149 OFFCURVE",
"449 149 CURVE SMOOTH",
"381 149 OFFCURVE",
"339 187 OFFCURVE",
"339 289 CURVE SMOOTH",
"339 721 LINE SMOOTH",
"339 734 OFFCURVE",
"333 742 OFFCURVE",
"321 742 CURVE SMOOTH",
"131 742 LINE SMOOTH",
"120 742 OFFCURVE",
"112 734 OFFCURVE",
"112 719 CURVE SMOOTH",
"112 313 LINE SMOOTH",
"112 104 OFFCURVE",
"193 -10 OFFCURVE",
"432 -10 CURVE SMOOTH",
"623 -10 OFFCURVE",
"752 62 OFFCURVE",
"752 293 CURVE SMOOTH"
);
}
);
};
layerId = "258ED206-D907-4350-8EBA-CBDDA1C16BF7";
paths = (
{
closed = 1;
nodes = (
"767 742 LINE",
"565 742 LINE",
"503 298 LINE SMOOTH",
"488 196 OFFCURVE",
"427 157 OFFCURVE",
"365 157 CURVE SMOOTH",
"303 157 OFFCURVE",
"252 196 OFFCURVE",
"267 298 CURVE SMOOTH",
"329 742 LINE",
"127 742 LINE",
"66 307 LINE SMOOTH",
"39 118 OFFCURVE",
"102 -10 OFFCURVE",
"341 -10 CURVE SMOOTH",
"580 -10 OFFCURVE",
"679 118 OFFCURVE",
"706 307 CURVE SMOOTH"
);
}
);
width = 750;
},
{
anchors = (
{
name = ogonek;
position = "{381, 9}";
},
{
name = top;
position = "{416, 742}";
}
);
background = {
anchors = (
{
name = ogonek;
position = "{484, 9}";
},
{
name = top;
position = "{416, 742}";
}
);
paths = (
{
closed = 1;
nodes = (
"659 733 LINE SMOOTH",
"659 739 OFFCURVE",
"657 742 OFFCURVE",
"651 742 CURVE SMOOTH",
"627 742 LINE SMOOTH",
"621 742 OFFCURVE",
"619 739 OFFCURVE",
"619 733 CURVE SMOOTH",
"619 229 LINE SMOOTH",
"619 97 OFFCURVE",
"552 32 OFFCURVE",
"414 32 CURVE SMOOTH",
"278 32 OFFCURVE",
"211 96 OFFCURVE",
"211 226 CURVE SMOOTH",
"211 732 LINE SMOOTH",
"211 740 OFFCURVE",
"209 742 OFFCURVE",
"201 742 CURVE SMOOTH",
"173 742 LINE SMOOTH",
"167 742 OFFCURVE",
"165 739 OFFCURVE",
"165 731 CURVE SMOOTH",
"165 245 LINE SMOOTH",
"165 71 OFFCURVE",
"244 -10 OFFCURVE",
"412 -10 CURVE SMOOTH",
"578 -10 OFFCURVE",
"659 69 OFFCURVE",
"659 230 CURVE SMOOTH"
);
}
);
};
layerId = "91AB5BCA-6A50-42DA-B2F7-8181BF189245";
paths = (
{
closed = 1;
nodes = (
"659 742 LINE",
"619 742 LINE",
"547 228 LINE SMOOTH",
"528 96 OFFCURVE",
"450 29 OFFCURVE",
"312 29 CURVE SMOOTH",
"176 29 OFFCURVE",
"120 98 OFFCURVE",
"139 228 CURVE SMOOTH",
"211 742 LINE",
"167 742 LINE",
"97 245 LINE SMOOTH",
"73 71 OFFCURVE",
"138 -10 OFFCURVE",
"306 -10 CURVE SMOOTH",
"472 -10 OFFCURVE",
"564 69 OFFCURVE",
"587 230 CURVE SMOOTH"
);
}
);
width = 692;
}
);
leftKerningGroup = U;
rightKerningGroup = U;
unicode = 0055;
},
{
glyphname = V;
lastChange = "2017-05-01 14:06:08 +0000";
layers = (
{
background = {
paths = (
{
closed = 1;
nodes = (
"609 742 LINE SMOOTH",
"597 742 OFFCURVE",
"586 734 OFFCURVE",
"583 721 CURVE SMOOTH",
"458 283 LINE SMOOTH",
"455 273 OFFCURVE",
"451 273 OFFCURVE",
"448 282 CURVE SMOOTH",
"314 721 LINE SMOOTH",
"310 734 OFFCURVE",
"301 742 OFFCURVE",
"289 742 CURVE SMOOTH",
"96 742 LINE SMOOTH",
"80 742 OFFCURVE",
"71 728 OFFCURVE",
"77 713 CURVE SMOOTH",
"309 25 LINE SMOOTH",
"314 8 OFFCURVE",
"326 0 OFFCURVE",
"346 0 CURVE SMOOTH",
"508 0 LINE SMOOTH",
"528 0 OFFCURVE",
"540 8 OFFCURVE",
"545 25 CURVE SMOOTH",
"777 713 LINE SMOOTH",
"782 728 OFFCURVE",
"774 742 OFFCURVE",
"758 742 CURVE SMOOTH"
);
}
);
};
guideLines = (
{
angle = -108.62;
position = "{284, 234}";
}
);
layerId = "258ED206-D907-4350-8EBA-CBDDA1C16BF7";
paths = (
{
closed = 1;
nodes = (
"598 742 LINE",
"356 234 LINE",
"255 742 LINE",
"67 742 LINE",
"213 0 LINE",
"433 0 LINE",
"787 742 LINE"
);
}
);
width = 720;
},
{
background = {
paths = (
{
closed = 1;
nodes = (
"633 742 LINE SMOOTH",
"627 742 OFFCURVE",
"624 740 OFFCURVE",
"622 735 CURVE SMOOTH",
"378 65 LINE SMOOTH",
"373 51 OFFCURVE",
"367 51 OFFCURVE",
"362 64 CURVE SMOOTH",
"125 734 LINE SMOOTH",
"123 740 OFFCURVE",
"120 742 OFFCURVE",
"112 742 CURVE SMOOTH",
"89 742 LINE SMOOTH",
"82 742 OFFCURVE",
"79 738 OFFCURVE",
"81 732 CURVE SMOOTH",
"336 10 LINE SMOOTH",
"338 3 OFFCURVE",
"344 0 OFFCURVE",
"355 0 CURVE SMOOTH",
"387 0 LINE SMOOTH",
"396 0 OFFCURVE",
"400 3 OFFCURVE",
"403 11 CURVE SMOOTH",
"665 733 LINE SMOOTH",
"667 738 OFFCURVE",
"664 742 OFFCURVE",
"658 742 CURVE SMOOTH"
);
}
);
};
layerId = "91AB5BCA-6A50-42DA-B2F7-8181BF189245";
paths = (
{
closed = 1;
nodes = (
"625 742 LINE",
"272 42 LINE",
"122 742 LINE",
"77 742 LINE",
"236 0 LINE",
"295 0 LINE",
"668 742 LINE"
);
}
);
width = 611;
}
);
leftKerningGroup = V;
rightKerningGroup = V;
unicode = 0056;
},
{
glyphname = W;
lastChange = "2017-05-01 14:06:08 +0000";
layers = (
{
anchors = (
{
name = top;
position = "{570, 742}";
}
);
background = {
anchors = (
{
name = top;
position = "{593, 742}";
}
);
paths = (
{
closed = 1;
nodes = (
"973 742 LINE SMOOTH",
"952 742 OFFCURVE",
"944 734 OFFCURVE",
"941 721 CURVE SMOOTH",
"839 339 LINE SMOOTH",
"837 331 OFFCURVE",
"830 333 OFFCURVE",
"828 341 CURVE SMOOTH",
"718 721 LINE SMOOTH",
"714 734 OFFCURVE",
"707 742 OFFCURVE",
"686 742 CURVE SMOOTH",
"546 742 LINE SMOOTH",
"525 742 OFFCURVE",
"517 734 OFFCURVE",
"514 721 CURVE SMOOTH",
"409 346 LINE SMOOTH",
"406 335 OFFCURVE",
"401 335 OFFCURVE",
"397 350 CURVE SMOOTH",
"291 721 LINE SMOOTH",
"287 734 OFFCURVE",
"280 742 OFFCURVE",
"259 742 CURVE SMOOTH",
"94 742 LINE SMOOTH",
"68 742 OFFCURVE",
"58 725 OFFCURVE",
"64 702 CURVE SMOOTH",
"268 25 LINE SMOOTH",
"274 8 OFFCURVE",
"284 0 OFFCURVE",
"304 0 CURVE SMOOTH",
"447 0 LINE SMOOTH",
"468 0 OFFCURVE",
"478 8 OFFCURVE",
"483 25 CURVE SMOOTH",
"586 375 LINE SMOOTH",
"593 395 OFFCURVE",
"598 393 OFFCURVE",
"602 377 CURVE SMOOTH",
"706 25 LINE SMOOTH",
"711 8 OFFCURVE",
"722 0 OFFCURVE",
"742 0 CURVE SMOOTH",
"880 0 LINE SMOOTH",
"900 0 OFFCURVE",
"910 8 OFFCURVE",
"916 25 CURVE SMOOTH",
"1119 702 LINE SMOOTH",
"1125 725 OFFCURVE",
"1115 742 OFFCURVE",
"1089 742 CURVE SMOOTH"
);
}
);
};
guideLines = (
{
angle = -73.94;
position = "{275, 742}";
},
{
angle = 74.3834;
position = "{501, 742}";
}
);
layerId = "258ED206-D907-4350-8EBA-CBDDA1C16BF7";
paths = (
{
closed = 1;
nodes = (
"866 742 LINE",
"699 344 LINE",
"640 742 LINE",
"501 742 LINE",
"334 344 LINE",
"275 742 LINE",
"82 742 LINE",
"202 0 LINE",
"349 0 LINE",
"523 403 LINE",
"584 0 LINE",
"733 0 LINE",
"1059 742 LINE"
);
}
);
width = 1007;
},
{
anchors = (
{
name = top;
position = "{555, 742}";
}
);
background = {
anchors = (
{
name = top;
position = "{555, 742}";
}
);
guideLines = (
{
position = "{89, 125}";
showMeasurement = 1;
}
);
paths = (
{
closed = 1;
nodes = (
"977 742 LINE SMOOTH",
"971 742 OFFCURVE",
"966 740 OFFCURVE",
"965 735 CURVE SMOOTH",
"776 72 LINE SMOOTH",
"772 58 OFFCURVE",
"768 58 OFFCURVE",
"764 71 CURVE SMOOTH",
"579 734 LINE SMOOTH",
"577 740 OFFCURVE",
"575 742 OFFCURVE",
"567 742 CURVE SMOOTH",
"542 742 LINE SMOOTH",
"533 742 OFFCURVE",
"530 738 OFFCURVE",
"529 735 CURVE SMOOTH",
"340 72 LINE SMOOTH",
"336 58 OFFCURVE",
"332 58 OFFCURVE",
"328 71 CURVE SMOOTH",
"143 734 LINE SMOOTH",
"141 740 OFFCURVE",
"139 742 OFFCURVE",
"131 742 CURVE SMOOTH",
"106 742 LINE SMOOTH",
"99 742 OFFCURVE",
"96 738 OFFCURVE",
"98 732 CURVE SMOOTH",
"300 10 LINE SMOOTH",
"302 3 OFFCURVE",
"308 0 OFFCURVE",
"318 0 CURVE SMOOTH",
"350 0 LINE SMOOTH",
"360 0 OFFCURVE",
"364 3 OFFCURVE",
"366 11 CURVE SMOOTH",
"551 658 LINE SMOOTH",
"552 662 OFFCURVE",
"554 662 OFFCURVE",
"555 658 CURVE SMOOTH",
"736 10 LINE SMOOTH",
"738 3 OFFCURVE",
"744 0 OFFCURVE",
"754 0 CURVE SMOOTH",
"786 0 LINE SMOOTH",
"796 0 OFFCURVE",
"800 3 OFFCURVE",
"802 11 CURVE SMOOTH",
"1009 733 LINE SMOOTH",
"1010 738 OFFCURVE",
"1008 742 OFFCURVE",
"1002 742 CURVE SMOOTH"
);
}
);
};
guideLines = (
{
position = "{24, 125}";
showMeasurement = 1;
}
);
layerId = "91AB5BCA-6A50-42DA-B2F7-8181BF189245";
paths = (
{
closed = 1;
nodes = (
"959 742 LINE",
"665 50 LINE",
"569 742 LINE",
"529 742 LINE",
"235 50 LINE",
"142 742 LINE",
"97 742 LINE",
"201 0 LINE",
"254 0 LINE",
"537 665 LINE",
"630 0 LINE",
"686 0 LINE",
"1003 742 LINE"
);
}
);
width = 966;
}
);
leftKerningGroup = W;
rightKerningGroup = W;
unicode = 0057;
},
{
glyphname = X;
lastChange = "2017-05-01 14:06:08 +0000";
layers = (
{
background = {
paths = (
{
closed = 1;
nodes = (
"556 403 LINE",
"778 742 LINE",
"561 742 LINE",
"447 541 LINE",
"333 742 LINE",
"78 742 LINE",
"314 374 LINE",
"105 51 LINE SMOOTH",
"79 11 OFFCURVE",
"90 0 OFFCURVE",
"118 0 CURVE SMOOTH",
"292 0 LINE",
"425 233 LINE",
"561 0 LINE",
"771 0 LINE SMOOTH",
"799 0 OFFCURVE",
"810 12 OFFCURVE",
"785 51 CURVE SMOOTH"
);
}
);
};
layerId = "258ED206-D907-4350-8EBA-CBDDA1C16BF7";
paths = (
{
closed = 1;
nodes = (
"494 403 LINE",
"764 742 LINE",
"554 742 LINE",
"412 541 LINE",
"326 742 LINE",
"78 742 LINE",
"262 374 LINE",
"-32 0 LINE",
"181 0 LINE",
"346 233 LINE",
"450 0 LINE",
"700 0 LINE"
);
}
);
width = 742;
},
{
background = {
guideLines = (
{
angle = 90;
position = "{99, 437}";
},
{
angle = 90;
position = "{610, 372}";
},
{
position = "{65, 716}";
showMeasurement = 1;
},
{
position = "{59, 32}";
showMeasurement = 1;
},
{
position = "{129, 454}";
showMeasurement = 1;
},
{
position = "{127, 290}";
showMeasurement = 1;
},
{
angle = 236.602;
position = "{342, 374}";
},
{
angle = 123.344;
position = "{399, 374}";
},
{
angle = 56.5817;
position = "{387, 370}";
},
{
angle = 123.4;
position = "{352, 370}";
}
);
paths = (
{
closed = 1;
nodes = (
"401 374 LINE SMOOTH",
"397 380 OFFCURVE",
"398 384 OFFCURVE",
"402 390 CURVE SMOOTH",
"636 736 LINE SMOOTH",
"638 739 OFFCURVE",
"638 742 OFFCURVE",
"634 742 CURVE SMOOTH",
"593 742 LINE SMOOTH",
"589 742 OFFCURVE",
"587 741 OFFCURVE",
"585 738 CURVE SMOOTH",
"378 431 LINE SMOOTH",
"371 421 OFFCURVE",
"367 422 OFFCURVE",
"361 430 CURVE SMOOTH",
"154 738 LINE SMOOTH",
"152 741 OFFCURVE",
"151 742 OFFCURVE",
"145 742 CURVE SMOOTH",
"106 742 LINE SMOOTH",
"102 742 OFFCURVE",
"101 737 OFFCURVE",
"103 734 CURVE SMOOTH",
"335 391 LINE SMOOTH",
"340 383 OFFCURVE",
"341 377 OFFCURVE",
"336 370 CURVE SMOOTH",
"94 10 LINE SMOOTH",
"89 2 OFFCURVE",
"91 0 OFFCURVE",
"97 0 CURVE SMOOTH",
"133 0 LINE SMOOTH",
"136 0 OFFCURVE",
"139 1 OFFCURVE",
"141 4 CURVE SMOOTH",
"358 324 LINE SMOOTH",
"368 339 OFFCURVE",
"372 338 OFFCURVE",
"379 327 CURVE SMOOTH",
"599 4 LINE SMOOTH",
"601 1 OFFCURVE",
"602 0 OFFCURVE",
"606 0 CURVE SMOOTH",
"642 0 LINE SMOOTH",
"648 0 OFFCURVE",
"652 2 OFFCURVE",
"646 10 CURVE SMOOTH"
);
}
);
};
guideLines = (
{
angle = 90;
position = "{121, 437}";
},
{
angle = 90;
position = "{614, 372}";
},
{
position = "{166, 716}";
showMeasurement = 1;
},
{
position = "{-33, 32}";
showMeasurement = 1;
},
{
position = "{156, 454}";
showMeasurement = 1;
},
{
position = "{108, 290}";
showMeasurement = 1;
},
{
angle = 236.602;
position = "{347, 374}";
},
{
angle = 123.344;
position = "{404, 374}";
},
{
angle = 56.5817;
position = "{390, 370}";
},
{
angle = 123.4;
position = "{355, 370}";
}
);
layerId = "91AB5BCA-6A50-42DA-B2F7-8181BF189245";
paths = (
{
closed = 1;
nodes = (
"345 381 LINE",
"640 742 LINE",
"588 742 LINE",
"323 418 LINE",
"151 742 LINE",
"98 742 LINE",
"292 380 LINE",
"-17 0 LINE",
"34 0 LINE",
"314 341 LINE",
"498 0 LINE",
"549 0 LINE"
);
}
);
width = 606;
}
);
leftKerningGroup = X;
rightKerningGroup = X;
unicode = 0058;
},
{
glyphname = Y;
lastChange = "2017-05-01 18:45:19 +0000";
layers = (
{
anchors = (
{
name = top;
position = "{449, 742}";
}
);
background = {
anchors = (
{
name = top;
position = "{449, 742}";
}
);
paths = (
{
closed = 1;
nodes = (
"622 742 LINE SMOOTH",
"603 742 OFFCURVE",
"596 738 OFFCURVE",
"588 721 CURVE SMOOTH",
"467 498 LINE SMOOTH",
"460 486 OFFCURVE",
"456 487 OFFCURVE",
"450 499 CURVE SMOOTH",
"327 721 LINE SMOOTH",
"318 737 OFFCURVE",
"313 742 OFFCURVE",
"293 742 CURVE SMOOTH",
"92 742 LINE SMOOTH",
"71 742 OFFCURVE",
"64 730 OFFCURVE",
"74 714 CURVE SMOOTH",
"308 332 LINE SMOOTH",
"317 317 OFFCURVE",
"322 309 OFFCURVE",
"322 288 CURVE SMOOTH",
"322 25 LINE SMOOTH",
"322 8 OFFCURVE",
"328 0 OFFCURVE",
"348 0 CURVE SMOOTH",
"516 0 LINE SMOOTH",
"539 0 OFFCURVE",
"549 8 OFFCURVE",
"549 29 CURVE SMOOTH",
"549 275 LINE SMOOTH",
"549 317 OFFCURVE",
"550 327 OFFCURVE",
"559 341 CURVE SMOOTH",
"793 719 LINE SMOOTH",
"801 732 OFFCURVE",
"796 742 OFFCURVE",
"779 742 CURVE SMOOTH"
);
}
);
};
guideLines = (
{
angle = 58.823;
position = "{569, 742}";
}
);
layerId = "258ED206-D907-4350-8EBA-CBDDA1C16BF7";
paths = (
{
closed = 1;
nodes = (
"569 742 LINE",
"386 478 LINE",
"276 742 LINE",
"61 742 LINE",
"262 309 LINE",
"219 0 LINE",
"419 0 LINE",
"462 309 LINE",
"786 742 LINE"
);
}
);
width = 714;
},
{
anchors = (
{
name = top;
position = "{340, 742}";
}
);
background = {
anchors = (
{
name = top;
position = "{340, 742}";
}
);
paths = (
{
closed = 1;
nodes = (
"582 742 LINE SMOOTH",
"573 742 OFFCURVE",
"571 741 OFFCURVE",
"566 733 CURVE SMOOTH",
"357 374 LINE SMOOTH",
"349 361 OFFCURVE",
"342 360 OFFCURVE",
"333 376 CURVE SMOOTH",
"123 733 LINE SMOOTH",
"119 740 OFFCURVE",
"116 742 OFFCURVE",
"107 742 CURVE SMOOTH",
"84 742 LINE SMOOTH",
"74 742 OFFCURVE",
"72 737 OFFCURVE",
"76 730 CURVE SMOOTH",
"320 315 LINE SMOOTH",
"324 308 OFFCURVE",
"325 305 OFFCURVE",
"325 295 CURVE SMOOTH",
"325 11 LINE SMOOTH",
"325 4 OFFCURVE",
"328 0 OFFCURVE",
"337 0 CURVE SMOOTH",
"356 0 LINE SMOOTH",
"367 0 OFFCURVE",
"371 4 OFFCURVE",
"371 13 CURVE SMOOTH",
"371 306 LINE SMOOTH",
"371 316 OFFCURVE",
"371 320 OFFCURVE",
"375 326 CURVE SMOOTH",
"614 731 LINE SMOOTH",
"618 737 OFFCURVE",
"615 742 OFFCURVE",
"608 742 CURVE SMOOTH"
);
}
);
};
guideLines = (
{
angle = 239.8907;
position = "{246, 319}";
},
{
angle = -59.5603;
position = "{151, 503}";
},
{
angle = 54.2961;
position = "{566, 742}";
}
);
layerId = "91AB5BCA-6A50-42DA-B2F7-8181BF189245";
paths = (
{
closed = 1;
nodes = (
"566 742 LINE",
"290 358 LINE",
"118 742 LINE",
"77 742 LINE",
"266 320 LINE",
"221 0 LINE",
"261 0 LINE",
"306 319 LINE",
"610 742 LINE"
);
}
);
width = 553;
}
);
leftKerningGroup = Y;
rightKerningGroup = Y;
unicode = 0059;
},
{
glyphname = Z;
lastChange = "2017-05-01 14:06:08 +0000";
layers = (
{
anchors = (
{
name = bottom;
position = "{319, 0}";
},
{
name = top;
position = "{447, 742}";
}
);
background = {
anchors = (
{
name = bottom;
position = "{423, 0}";
},
{
name = top;
position = "{447, 742}";
}
);
paths = (
{
closed = 1;
nodes = (
"753 0 LINE",
"753 166 LINE",
"412 166 LINE",
"759 654 LINE",
"759 742 LINE",
"135 742 LINE",
"135 577 LINE",
"442 577 LINE",
"102 91 LINE",
"102 0 LINE"
);
}
);
};
layerId = "258ED206-D907-4350-8EBA-CBDDA1C16BF7";
paths = (
{
closed = 1;
nodes = (
"629 0 LINE",
"652 166 LINE",
"301 166 LINE",
"727 654 LINE",
"739 742 LINE",
"135 742 LINE",
"112 577 LINE",
"429 577 LINE",
"11 91 LINE",
"-2 0 LINE"
);
}
);
width = 697;
},
{
anchors = (
{
name = bottom;
position = "{260, 0}";
},
{
name = top;
position = "{357, 742}";
}
);
background = {
anchors = (
{
name = bottom;
position = "{364, 0}";
},
{
name = top;
position = "{357, 742}";
}
);
paths = (
{
closed = 1;
nodes = (
"596 0 LINE",
"596 40 LINE",
"162 40 LINE",
"596 715 LINE",
"596 742 LINE",
"117 742 LINE",
"117 702 LINE",
"538 702 LINE",
"107 28 LINE",
"107 0 LINE"
);
}
);
};
guideLines = (
{
angle = 237.1304;
position = "{587, 711}";
}
);
layerId = "91AB5BCA-6A50-42DA-B2F7-8181BF189245";
paths = (
{
closed = 1;
nodes = (
"492 0 LINE",
"497 40 LINE",
"59 40 LINE",
"592 711 LINE",
"596 742 LINE",
"117 742 LINE",
"111 702 LINE",
"537 702 LINE",
"7 32 LINE",
"3 0 LINE"
);
}
);
width = 559;
}
);
leftKerningGroup = Z;
rightKerningGroup = Z;
unicode = 005A;
},
{
glyphname = a;
lastChange = "2017-05-01 20:16:21 +0000";
layers = (
{
anchors = (
{
name = ogonek;
position = "{469, 10}";
},
{
name = top;
position = "{330, 530}";
}
);
background = {
anchors = (
{
name = ogonek;
position = "{572, 10}";
},
{
name = top;
position = "{360, 530}";
}
);
guideLines = (
{
angle = 90;
position = "{410, 102}";
}
);
paths = (
{
closed = 1;
nodes = (
"403 56 OFFCURVE",
"411 55 OFFCURVE",
"413 42 CURVE SMOOTH",
"414 35 LINE SMOOTH",
"417 16 OFFCURVE",
"422 0 OFFCURVE",
"440 0 CURVE SMOOTH",
"577 0 LINE SMOOTH",
"596 0 OFFCURVE",
"600 7 OFFCURVE",
"600 27 CURVE SMOOTH",
"600 375 LINE SMOOTH",
"600 473 OFFCURVE",
"545 540 OFFCURVE",
"360 540 CURVE SMOOTH",
"229 540 OFFCURVE",
"138 506 OFFCURVE",
"108 421 CURVE SMOOTH",
"99 396 OFFCURVE",
"105 391 OFFCURVE",
"115 389 CURVE SMOOTH",
"246 363 LINE SMOOTH",
"264 360 OFFCURVE",
"268 363 OFFCURVE",
"273 374 CURVE SMOOTH",
"290 411 OFFCURVE",
"323 421 OFFCURVE",
"351 421 CURVE SMOOTH",
"391 421 OFFCURVE",
"410 400 OFFCURVE",
"410 363 CURVE SMOOTH",
"410 346 LINE SMOOTH",
"410 334 OFFCURVE",
"400 332 OFFCURVE",
"395 332 CURVE SMOOTH",
"388 332 LINE SMOOTH",
"199 332 OFFCURVE",
"81 253 OFFCURVE",
"81 136 CURVE SMOOTH",
"81 53 OFFCURVE",
"141 -10 OFFCURVE",
"241 -10 CURVE SMOOTH",
"303 -10 OFFCURVE",
"350 12 OFFCURVE",
"386 42 CURVE SMOOTH"
);
},
{
closed = 1;
nodes = (
"410 171 LINE SMOOTH",
"410 156 OFFCURVE",
"399 145 OFFCURVE",
"387 135 CURVE SMOOTH",
"376 126 OFFCURVE",
"358 116 OFFCURVE",
"332 116 CURVE SMOOTH",
"296 116 OFFCURVE",
"275 135 OFFCURVE",
"275 163 CURVE SMOOTH",
"275 219 OFFCURVE",
"359 242 OFFCURVE",
"391 242 CURVE SMOOTH",
"395 242 LINE SMOOTH",
"407 242 OFFCURVE",
"410 236 OFFCURVE",
"410 224 CURVE SMOOTH"
);
}
);
};
guideLines = (
{
angle = 270;
position = "{135, 102}";
}
);
layerId = "258ED206-D907-4350-8EBA-CBDDA1C16BF7";
paths = (
{
closed = 1;
nodes = (
"236 -10 OFFCURVE",
"297 21 OFFCURVE",
"327 82 CURVE",
"331 0 LINE",
"496 0 LINE",
"548 375 LINE SMOOTH",
"562 473 OFFCURVE",
"517 540 OFFCURVE",
"332 540 CURVE SMOOTH",
"196 540 OFFCURVE",
"94 476 OFFCURVE",
"55 371 CURVE",
"212 359 LINE",
"238 408 OFFCURVE",
"276 421 OFFCURVE",
"306 421 CURVE SMOOTH",
"346 421 OFFCURVE",
"362 400 OFFCURVE",
"357 363 CURVE SMOOTH",
"354 341 LINE",
"313 341 LINE SMOOTH",
"120 341 OFFCURVE",
"21 274 OFFCURVE",
"5 159 CURVE SMOOTH",
"-10 49 OFFCURVE",
"64 -10 OFFCURVE",
"164 -10 CURVE SMOOTH"
);
},
{
closed = 1;
nodes = (
"218 116 OFFCURVE",
"189 139 OFFCURVE",
"195 179 CURVE SMOOTH",
"203 236 OFFCURVE",
"276 247 OFFCURVE",
"308 247 CURVE SMOOTH",
"340 247 LINE",
"331 179 LINE",
"325 146 OFFCURVE",
"291 116 OFFCURVE",
"252 116 CURVE SMOOTH"
);
}
);
width = 573;
},
{
anchors = (
{
name = ogonek;
position = "{428, 14}";
},
{
name = top;
position = "{315, 530}";
}
);
background = {
anchors = (
{
name = ogonek;
position = "{530, 14}";
},
{
name = top;
position = "{345, 530}";
}
);
paths = (
{
closed = 1;
nodes = (
"492 78 OFFCURVE",
"496 77 OFFCURVE",
"497 70 CURVE SMOOTH",
"499 9 LINE SMOOTH",
"499 2 OFFCURVE",
"502 0 OFFCURVE",
"508 0 CURVE SMOOTH",
"526 0 LINE SMOOTH",
"532 0 OFFCURVE",
"536 2 OFFCURVE",
"536 10 CURVE SMOOTH",
"536 367 LINE SMOOTH",
"536 475 OFFCURVE",
"462 540 OFFCURVE",
"349 540 CURVE SMOOTH",
"254 540 OFFCURVE",
"187 493 OFFCURVE",
"145 431 CURVE SMOOTH",
"141 426 OFFCURVE",
"142 423 OFFCURVE",
"145 421 CURVE SMOOTH",
"169 406 LINE SMOOTH",
"173 403 OFFCURVE",
"175 405 OFFCURVE",
"179 410 CURVE SMOOTH",
"224 470 OFFCURVE",
"278 502 OFFCURVE",
"347 502 CURVE SMOOTH",
"437 502 OFFCURVE",
"496 448 OFFCURVE",
"496 363 CURVE SMOOTH",
"496 332 LINE SMOOTH",
"496 323 OFFCURVE",
"490 318 OFFCURVE",
"479 317 CURVE SMOOTH",
"374 308 LINE SMOOTH",
"210 294 OFFCURVE",
"127 236 OFFCURVE",
"127 135 CURVE SMOOTH",
"127 45 OFFCURVE",
"192 -10 OFFCURVE",
"297 -10 CURVE SMOOTH",
"371 -10 OFFCURVE",
"432 17 OFFCURVE",
"487 72 CURVE SMOOTH"
);
},
{
closed = 1;
nodes = (
"496 171 LINE SMOOTH",
"496 141 OFFCURVE",
"476 107 OFFCURVE",
"439 77 CURVE SMOOTH",
"401 47 OFFCURVE",
"352 28 OFFCURVE",
"303 28 CURVE SMOOTH",
"222 28 OFFCURVE",
"169 69 OFFCURVE",
"169 138 CURVE SMOOTH",
"169 215 OFFCURVE",
"236 261 OFFCURVE",
"393 273 CURVE SMOOTH",
"482 280 LINE SMOOTH",
"491 281 OFFCURVE",
"496 277 OFFCURVE",
"496 266 CURVE SMOOTH"
);
}
);
};
hints = (
{
horizontal = 1;
place = "{3937, 0}";
}
);
layerId = "91AB5BCA-6A50-42DA-B2F7-8181BF189245";
paths = (
{
closed = 1;
nodes = (
"269 -10 OFFCURVE",
"338 20 OFFCURVE",
"404 82 CURVE",
"395 0 LINE",
"432 0 LINE",
"483 367 LINE SMOOTH",
"498 475 OFFCURVE",
"434 540 OFFCURVE",
"321 540 CURVE SMOOTH",
"224 540 OFFCURVE",
"148 490 OFFCURVE",
"95 424 CURVE",
"126 403 LINE",
"181 468 OFFCURVE",
"242 502 OFFCURVE",
"313 502 CURVE SMOOTH",
"403 502 OFFCURVE",
"455 448 OFFCURVE",
"443 363 CURVE SMOOTH",
"436 318 LINE",
"313 308 LINE SMOOTH",
"134 293 OFFCURVE",
"58 254 OFFCURVE",
"42 135 CURVE SMOOTH",
"29 45 OFFCURVE",
"86 -10 OFFCURVE",
"191 -10 CURVE SMOOTH"
);
},
{
closed = 1;
nodes = (
"122 28 OFFCURVE",
"74 69 OFFCURVE",
"84 138 CURVE SMOOTH",
"97 231 OFFCURVE",
"156 260 OFFCURVE",
"327 273 CURVE SMOOTH",
"431 281 LINE",
"416 171 LINE SMOOTH",
"406 99 OFFCURVE",
"291 28 OFFCURVE",
"203 28 CURVE SMOOTH"
);
}
);
width = 554;
}
);
leftKerningGroup = a;
unicode = 0061;
},
{
glyphname = ae;
lastChange = "2017-05-01 20:16:21 +0000";
layers = (
{
anchors = (
{
name = top;
position = "{495, 530}";
}
);
background = {
anchors = (
{
name = top;
position = "{495, 530}";
}
);
paths = (
{
closed = 1;
nodes = (
"879 229 LINE SMOOTH",
"896 230 OFFCURVE",
"893 231 OFFCURVE",
"895 243 CURVE SMOOTH",
"921 429 OFFCURVE",
"818 540 OFFCURVE",
"657 540 CURVE SMOOTH",
"609 540 OFFCURVE",
"558 529 OFFCURVE",
"507 500 CURVE",
"476 522 OFFCURVE",
"419 539 OFFCURVE",
"326 540 CURVE SMOOTH",
"177 540 OFFCURVE",
"117 504 OFFCURVE",
"68 432 CURVE SMOOTH",
"62 415 OFFCURVE",
"67 392 OFFCURVE",
"76 390 CURVE SMOOTH",
"203 364 LINE SMOOTH",
"220 361 OFFCURVE",
"221 356 OFFCURVE",
"229 364 CURVE",
"250 406 OFFCURVE",
"288 421 OFFCURVE",
"320 421 CURVE SMOOTH",
"356 421 OFFCURVE",
"369 406 OFFCURVE",
"364 369 CURVE SMOOTH",
"361 352 LINE SMOOTH",
"360 340 OFFCURVE",
"344 332 OFFCURVE",
"336 332 CURVE",
"313 331 LINE SMOOTH",
"120 322 OFFCURVE",
"19 256 OFFCURVE",
"4 154 CURVE SMOOTH",
"-9 58 OFFCURVE",
"45 -10 OFFCURVE",
"162 -10 CURVE SMOOTH",
"250 -10 OFFCURVE",
"317 8 OFFCURVE",
"385 62 CURVE SMOOTH",
"387 69 OFFCURVE",
"395 79 OFFCURVE",
"401 79 CURVE SMOOTH",
"441 24 OFFCURVE",
"511 -10 OFFCURVE",
"599 -10 CURVE SMOOTH",
"707 -10 OFFCURVE",
"776 12 OFFCURVE",
"864 108 CURVE",
"873 124 OFFCURVE",
"866 136 OFFCURVE",
"856 140 CURVE SMOOTH",
"771 177 LINE SMOOTH",
"758 182 OFFCURVE",
"757 187 OFFCURVE",
"750 186 CURVE SMOOTH",
"701 139 OFFCURVE",
"667 122 OFFCURVE",
"629 122 CURVE SMOOTH",
"575 122 OFFCURVE",
"537 145 OFFCURVE",
"545 201 CURVE SMOOTH",
"547 218 OFFCURVE",
"558 229 OFFCURVE",
"568 229 CURVE SMOOTH"
);
},
{
closed = 1;
nodes = (
"711 423 OFFCURVE",
"720 378 OFFCURVE",
"717 357 CURVE SMOOTH",
"715 340 OFFCURVE",
"705 332 OFFCURVE",
"692 332 CURVE SMOOTH",
"566 327 LINE",
"573 389 OFFCURVE",
"620 423 OFFCURVE",
"665 423 CURVE SMOOTH"
);
},
{
closed = 1;
nodes = (
"335 166 LINE SMOOTH",
"330 133 OFFCURVE",
"286 108 OFFCURVE",
"244 108 CURVE SMOOTH",
"209 108 OFFCURVE",
"194 121 OFFCURVE",
"197 145 CURVE SMOOTH",
"205 199 OFFCURVE",
"278 230 OFFCURVE",
"317 233 CURVE SMOOTH",
"331 234 LINE SMOOTH",
"343 234 OFFCURVE",
"345 234 OFFCURVE",
"343 222 CURVE SMOOTH"
);
}
);
};
layerId = "258ED206-D907-4350-8EBA-CBDDA1C16BF7";
paths = (
{
closed = 1;
nodes = (
"893 229 LINE",
"928 429 OFFCURVE",
"817 540 OFFCURVE",
"657 540 CURVE SMOOTH",
"609 540 OFFCURVE",
"558 529 OFFCURVE",
"507 500 CURVE",
"476 522 OFFCURVE",
"419 539 OFFCURVE",
"326 540 CURVE SMOOTH",
"163 540 OFFCURVE",
"97 492 OFFCURVE",
"44 397 CURVE",
"227 359 LINE",
"245 392 OFFCURVE",
"275 420 OFFCURVE",
"313 420 CURVE SMOOTH",
"336 420 OFFCURVE",
"376 415 OFFCURVE",
"365 364 CURVE SMOOTH",
"358 333 LINE",
"313 331 LINE SMOOTH",
"120 322 OFFCURVE",
"19 256 OFFCURVE",
"4 154 CURVE SMOOTH",
"-9 58 OFFCURVE",
"45 -10 OFFCURVE",
"162 -10 CURVE SMOOTH",
"250 -10 OFFCURVE",
"317 8 OFFCURVE",
"385 62 CURVE SMOOTH",
"387 69 OFFCURVE",
"395 79 OFFCURVE",
"401 79 CURVE SMOOTH",
"441 24 OFFCURVE",
"511 -10 OFFCURVE",
"599 -10 CURVE SMOOTH",
"715 -10 OFFCURVE",
"788 16 OFFCURVE",
"883 128 CURVE",
"750 186 LINE",
"701 139 OFFCURVE",
"667 122 OFFCURVE",
"629 122 CURVE SMOOTH",
"578 122 OFFCURVE",
"541 153 OFFCURVE",
"549 229 CURVE"
);
},
{
closed = 1;
nodes = (
"703 422 OFFCURVE",
"735 373 OFFCURVE",
"733 327 CURVE",
"566 327 LINE",
"573 389 OFFCURVE",
"615 422 OFFCURVE",
"660 422 CURVE SMOOTH"
);
},
{
closed = 1;
nodes = (
"335 166 LINE SMOOTH",
"330 133 OFFCURVE",
"286 108 OFFCURVE",
"244 108 CURVE SMOOTH",
"209 108 OFFCURVE",
"194 121 OFFCURVE",
"197 145 CURVE SMOOTH",
"205 199 OFFCURVE",
"278 230 OFFCURVE",
"317 233 CURVE SMOOTH",
"345 235 LINE"
);
}
);
width = 922;
},
{
anchors = (
{
name = top;
position = "{502, 530}";
}
);
background = {
anchors = (
{
name = top;
position = "{497, 530}";
}
);
paths = (
{
closed = 1;
nodes = (
"869 254 LINE SMOOTH",
"883 254 OFFCURVE",
"887 260 OFFCURVE",
"889 272 CURVE SMOOTH",
"913 443 OFFCURVE",
"834 540 OFFCURVE",
"696 540 CURVE SMOOTH",
"603 540 OFFCURVE",
"525 501 OFFCURVE",
"474 421 CURVE",
"466 500 OFFCURVE",
"415 540 OFFCURVE",
"315 540 CURVE SMOOTH",
"231 540 OFFCURVE",
"148 501 OFFCURVE",
"96 433 CURVE SMOOTH",
"93 427 OFFCURVE",
"93 424 OFFCURVE",
"96 422 CURVE SMOOTH",
"116 407 LINE SMOOTH",
"120 404 OFFCURVE",
"121 403 OFFCURVE",
"127 408 CURVE SMOOTH",
"182 469 OFFCURVE",
"240 502 OFFCURVE",
"305 502 CURVE SMOOTH",
"404 502 OFFCURVE",
"450 449 OFFCURVE",
"438 364 CURVE SMOOTH",
"434 333 LINE SMOOTH",
"432 324 OFFCURVE",
"424 318 OFFCURVE",
"412 317 CURVE SMOOTH",
"299 308 LINE SMOOTH",
"134 294 OFFCURVE",
"51 235 OFFCURVE",
"37 138 CURVE SMOOTH",
"24 46 OFFCURVE",
"79 -10 OFFCURVE",
"184 -10 CURVE SMOOTH",
"314 -10 OFFCURVE",
"382 61 OFFCURVE",
"425 106 CURVE SMOOTH",
"426 110 OFFCURVE",
"428 112 OFFCURVE",
"430 110 CURVE SMOOTH",
"453 66 OFFCURVE",
"496 -10 OFFCURVE",
"619 -10 CURVE SMOOTH",
"715 -10 OFFCURVE",
"803 36 OFFCURVE",
"846 98 CURVE SMOOTH",
"849 105 OFFCURVE",
"847 107 OFFCURVE",
"844 109 CURVE SMOOTH",
"824 124 LINE SMOOTH",
"820 127 OFFCURVE",
"819 128 OFFCURVE",
"813 123 CURVE SMOOTH",
"778 82 OFFCURVE",
"728 28 OFFCURVE",
"623 28 CURVE SMOOTH",
"512 28 OFFCURVE",
"439 133 OFFCURVE",
"453 226 CURVE SMOOTH",
"456 248 OFFCURVE",
"460 253 OFFCURVE",
"477 253 CURVE SMOOTH"
);
},
{
closed = 1;
nodes = (
"800 502 OFFCURVE",
"866 415 OFFCURVE",
"851 308 CURVE SMOOTH",
"849 295 OFFCURVE",
"847 290 OFFCURVE",
"831 290 CURVE SMOOTH",
"464 290 LINE",
"482 417 OFFCURVE",
"580 502 OFFCURVE",
"691 502 CURVE SMOOTH"
);
},
{
closed = 1;
nodes = (
"412 178 LINE",
"401 100 OFFCURVE",
"305 34 OFFCURVE",
"196 29 CURVE SMOOTH",
"112 25 OFFCURVE",
"71 70 OFFCURVE",
"80 136 CURVE SMOOTH",
"91 214 OFFCURVE",
"164 260 OFFCURVE",
"316 272 CURVE SMOOTH",
"412 279 LINE SMOOTH",
"425 280 OFFCURVE",
"426 276 OFFCURVE",
"424 266 CURVE SMOOTH"
);
}
);
};
hints = (
{
horizontal = 1;
place = "{4060, 123}";
}
);
layerId = "91AB5BCA-6A50-42DA-B2F7-8181BF189245";
paths = (
{
closed = 1;
nodes = (
"891 254 LINE",
"915 437 OFFCURVE",
"837 540 OFFCURVE",
"701 540 CURVE SMOOTH",
"608 540 OFFCURVE",
"530 501 OFFCURVE",
"479 421 CURVE",
"471 500 OFFCURVE",
"420 540 OFFCURVE",
"320 540 CURVE SMOOTH",
"234 540 OFFCURVE",
"149 498 OFFCURVE",
"96 426 CURVE",
"127 402 LINE",
"184 467 OFFCURVE",
"243 502 OFFCURVE",
"310 502 CURVE SMOOTH",
"409 502 OFFCURVE",
"455 449 OFFCURVE",
"443 364 CURVE SMOOTH",
"437 319 LINE",
"304 308 LINE SMOOTH",
"139 294 OFFCURVE",
"56 235 OFFCURVE",
"42 138 CURVE SMOOTH",
"29 46 OFFCURVE",
"84 -10 OFFCURVE",
"189 -10 CURVE SMOOTH",
"319 -10 OFFCURVE",
"387 61 OFFCURVE",
"430 106 CURVE SMOOTH",
"431 110 OFFCURVE",
"433 112 OFFCURVE",
"435 110 CURVE SMOOTH",
"458 66 OFFCURVE",
"501 -10 OFFCURVE",
"624 -10 CURVE SMOOTH",
"722 -10 OFFCURVE",
"812 39 OFFCURVE",
"855 104 CURVE",
"823 129 LINE",
"787 85 OFFCURVE",
"736 28 OFFCURVE",
"628 28 CURVE SMOOTH",
"520 28 OFFCURVE",
"448 147 OFFCURVE",
"462 253 CURVE"
);
},
{
closed = 1;
nodes = (
"803 502 OFFCURVE",
"868 407 OFFCURVE",
"853 290 CURVE",
"469 290 LINE",
"487 417 OFFCURVE",
"585 502 OFFCURVE",
"696 502 CURVE SMOOTH"
);
},
{
closed = 1;
nodes = (
"417 178 LINE",
"406 100 OFFCURVE",
"310 34 OFFCURVE",
"201 29 CURVE SMOOTH",
"117 25 OFFCURVE",
"76 70 OFFCURVE",
"85 136 CURVE SMOOTH",
"96 214 OFFCURVE",
"169 260 OFFCURVE",
"321 272 CURVE SMOOTH",
"431 280 LINE"
);
}
);
width = 953;
}
);
leftMetricsKey = a;
rightMetricsKey = e;
unicode = 00E6;
},
{
glyphname = b;
lastChange = "2017-07-13 02:36:54 +0000";
layers = (
{
background = {
paths = (
{
closed = 1;
nodes = (
"254 0 OFFCURVE",
"262 7 OFFCURVE",
"267 23 CURVE SMOOTH",
"283 70 LINE SMOOTH",
"286 78 OFFCURVE",
"290 79 OFFCURVE",
"296 73 CURVE SMOOTH",
"335 22 OFFCURVE",
"389 -10 OFFCURVE",
"452 -10 CURVE SMOOTH",
"598 -10 OFFCURVE",
"679 99 OFFCURVE",
"679 269 CURVE SMOOTH",
"679 436 OFFCURVE",
"603 540 OFFCURVE",
"473 540 CURVE SMOOTH",
"428 540 OFFCURVE",
"387 527 OFFCURVE",
"346 488 CURVE SMOOTH",
"336 480 OFFCURVE",
"327 480 OFFCURVE",
"327 496 CURVE SMOOTH",
"327 721 LINE SMOOTH",
"327 734 OFFCURVE",
"321 742 OFFCURVE",
"309 742 CURVE SMOOTH",
"146 742 LINE SMOOTH",
"135 742 OFFCURVE",
"127 734 OFFCURVE",
"127 719 CURVE SMOOTH",
"127 25 LINE SMOOTH",
"127 8 OFFCURVE",
"133 0 OFFCURVE",
"154 0 CURVE SMOOTH",
"241 0 LINE SMOOTH"
);
},
{
closed = 1;
nodes = (
"347 403 OFFCURVE",
"370 418 OFFCURVE",
"401 418 CURVE SMOOTH",
"450 418 OFFCURVE",
"477 381 OFFCURVE",
"477 265 CURVE SMOOTH",
"477 148 OFFCURVE",
"450 107 OFFCURVE",
"398 107 CURVE SMOOTH",
"356 107 OFFCURVE",
"327 135 OFFCURVE",
"327 185 CURVE SMOOTH",
"327 378 LINE"
);
}
);
};
layerId = "258ED206-D907-4350-8EBA-CBDDA1C16BF7";
paths = (
{
closed = 1;
nodes = (
"492 -10 OFFCURVE",
"589 99 OFFCURVE",
"613 269 CURVE SMOOTH",
"636 436 OFFCURVE",
"575 540 OFFCURVE",
"445 540 CURVE SMOOTH",
"393 540 OFFCURVE",
"331 515 OFFCURVE",
"286 450 CURVE",
"330 762 LINE",
"130 762 LINE",
"23 0 LINE",
"164 0 LINE",
"207 94 LINE",
"228 36 OFFCURVE",
"280 -10 OFFCURVE",
"346 -10 CURVE SMOOTH"
);
},
{
closed = 1;
nodes = (
"266 119 OFFCURVE",
"245 156 OFFCURVE",
"257 245 CURVE",
"264 291 LINE",
"277 383 OFFCURVE",
"309 410 OFFCURVE",
"354 410 CURVE SMOOTH",
"395 410 OFFCURVE",
"427 387 OFFCURVE",
"411 271 CURVE SMOOTH",
"394 154 OFFCURVE",
"357 119 OFFCURVE",
"310 119 CURVE"
);
}
);
width = 632;
},
{
background = {
paths = (
{
closed = 1;
nodes = (
"206 0 OFFCURVE",
"209 3 OFFCURVE",
"209 13 CURVE SMOOTH",
"211 64 LINE SMOOTH",
"211 73 OFFCURVE",
"216 74 OFFCURVE",
"221 67 CURVE SMOOTH",
"233 50 OFFCURVE",
"283 -10 OFFCURVE",
"386 -10 CURVE SMOOTH",
"530 -10 OFFCURVE",
"614 96 OFFCURVE",
"614 267 CURVE SMOOTH",
"614 416 OFFCURVE",
"550 540 OFFCURVE",
"397 540 CURVE SMOOTH",
"291 540 OFFCURVE",
"235 482 OFFCURVE",
"225 473 CURVE SMOOTH",
"216 465 OFFCURVE",
"212 465 OFFCURVE",
"212 478 CURVE SMOOTH",
"212 731 LINE SMOOTH",
"212 739 OFFCURVE",
"210 742 OFFCURVE",
"204 742 CURVE SMOOTH",
"181 742 LINE SMOOTH",
"175 742 OFFCURVE",
"172 739 OFFCURVE",
"172 732 CURVE SMOOTH",
"172 13 LINE SMOOTH",
"172 3 OFFCURVE",
"175 0 OFFCURVE",
"183 0 CURVE SMOOTH",
"194 0 LINE SMOOTH"
);
},
{
closed = 1;
nodes = (
"252 463 OFFCURVE",
"316 502 OFFCURVE",
"390 502 CURVE SMOOTH",
"508 502 OFFCURVE",
"571 409 OFFCURVE",
"571 267 CURVE SMOOTH",
"571 103 OFFCURVE",
"486 28 OFFCURVE",
"382 28 CURVE SMOOTH",
"298 28 OFFCURVE",
"212 96 OFFCURVE",
"212 177 CURVE SMOOTH",
"212 415 LINE"
);
}
);
};
layerId = "91AB5BCA-6A50-42DA-B2F7-8181BF189245";
paths = (
{
closed = 1;
nodes = (
"424 -10 OFFCURVE",
"523 96 OFFCURVE",
"547 267 CURVE SMOOTH",
"568 416 OFFCURVE",
"522 540 OFFCURVE",
"369 540 CURVE SMOOTH",
"255 540 OFFCURVE",
"185 472 OFFCURVE",
"173 461 CURVE",
"215 762 LINE",
"175 762 LINE",
"68 0 LINE",
"104 0 LINE",
"119 80 LINE",
"128 60 OFFCURVE",
"171 -10 OFFCURVE",
"280 -10 CURVE SMOOTH"
);
},
{
closed = 1;
nodes = (
"198 28 OFFCURVE",
"121 96 OFFCURVE",
"133 177 CURVE SMOOTH",
"166 415 LINE",
"213 463 OFFCURVE",
"282 502 OFFCURVE",
"356 502 CURVE SMOOTH",
"474 502 OFFCURVE",
"524 409 OFFCURVE",
"504 267 CURVE SMOOTH",
"481 103 OFFCURVE",
"386 28 OFFCURVE",
"282 28 CURVE SMOOTH"
);
}
);
width = 592;
}
);
leftMetricsKey = h;
unicode = 0062;
},
{
glyphname = c;
lastChange = "2017-07-13 02:49:02 +0000";
layers = (
{
anchors = (
{
name = bottom;
position = "{254, 0}";
},
{
name = top;
position = "{329, 530}";
}
);
background = {
anchors = (
{
name = bottom;
position = "{358, 0}";
},
{
name = top;
position = "{359, 530}";
}
);
paths = (
{
closed = 1;
nodes = (
"201 540 OFFCURVE",
"82 428 OFFCURVE",
"82 263 CURVE SMOOTH",
"82 101 OFFCURVE",
"199 -10 OFFCURVE",
"359 -10 CURVE SMOOTH",
"521 -10 OFFCURVE",
"587 105 OFFCURVE",
"597 157 CURVE SMOOTH",
"601 172 OFFCURVE",
"599 178 OFFCURVE",
"588 180 CURVE SMOOTH",
"494 198 LINE SMOOTH",
"481 200 OFFCURVE",
"477 198 OFFCURVE",
"474 193 CURVE SMOOTH",
"449 148 OFFCURVE",
"430 114 OFFCURVE",
"375 114 CURVE SMOOTH",
"318 114 OFFCURVE",
"284 154 OFFCURVE",
"284 265 CURVE SMOOTH",
"284 372 OFFCURVE",
"315 414 OFFCURVE",
"364 414 CURVE SMOOTH",
"412 414 OFFCURVE",
"421 376 OFFCURVE",
"425 351 CURVE SMOOTH",
"427 340 OFFCURVE",
"431 336 OFFCURVE",
"442 337 CURVE SMOOTH",
"579 344 LINE SMOOTH",
"596 345 OFFCURVE",
"602 353 OFFCURVE",
"597 370 CURVE SMOOTH",
"581 447 OFFCURVE",
"502 540 OFFCURVE",
"359 540 CURVE SMOOTH"
);
}
);
};
guideLines = (
{
angle = -0.5577;
position = "{-766, 185}";
},
{
position = "{382, 136}";
},
{
angle = 3.769;
position = "{347, 340}";
}
);
layerId = "258ED206-D907-4350-8EBA-CBDDA1C16BF7";
paths = (
{
closed = 1;
nodes = (
"177 540 OFFCURVE",
"38 427 OFFCURVE",
"15 263 CURVE SMOOTH",
"-8 100 OFFCURVE",
"101 -10 OFFCURVE",
"253 -10 CURVE SMOOTH",
"398 -10 OFFCURVE",
"503 91 OFFCURVE",
"521 184 CURVE",
"357 205 LINE",
"347 174 OFFCURVE",
"327 117 OFFCURVE",
"276 117 CURVE SMOOTH",
"225 117 OFFCURVE",
"196 177 OFFCURVE",
"208 265 CURVE SMOOTH",
"220 350 OFFCURVE",
"263 413 OFFCURVE",
"314 413 CURVE SMOOTH",
"366 413 OFFCURVE",
"369 352 OFFCURVE",
"370 314 CURVE",
"545 335 LINE",
"556 434 OFFCURVE",
"481 540 OFFCURVE",
"331 540 CURVE SMOOTH"
);
}
);
width = 550;
},
{
anchors = (
{
name = bottom;
position = "{249, 0}";
},
{
name = top;
position = "{321, 530}";
}
);
background = {
anchors = (
{
name = bottom;
position = "{353, 0}";
},
{
name = top;
position = "{351, 530}";
}
);
paths = (
{
closed = 1;
nodes = (
"211 540 OFFCURVE",
"112 425 OFFCURVE",
"112 263 CURVE SMOOTH",
"112 100 OFFCURVE",
"209 -10 OFFCURVE",
"352 -10 CURVE SMOOTH",
"437 -10 OFFCURVE",
"509 29 OFFCURVE",
"557 107 CURVE SMOOTH",
"559 111 OFFCURVE",
"558 115 OFFCURVE",
"555 117 CURVE SMOOTH",
"532 132 LINE SMOOTH",
"528 135 OFFCURVE",
"526 134 OFFCURVE",
"522 128 CURVE SMOOTH",
"478 60 OFFCURVE",
"424 28 OFFCURVE",
"356 28 CURVE SMOOTH",
"234 28 OFFCURVE",
"154 123 OFFCURVE",
"154 265 CURVE SMOOTH",
"154 407 OFFCURVE",
"234 502 OFFCURVE",
"357 502 CURVE SMOOTH",
"413 502 OFFCURVE",
"458 478 OFFCURVE",
"513 411 CURVE SMOOTH",
"517 406 OFFCURVE",
"521 405 OFFCURVE",
"524 407 CURVE SMOOTH",
"548 423 LINE SMOOTH",
"551 425 OFFCURVE",
"552 427 OFFCURVE",
"548 433 CURVE SMOOTH",
"502 499 OFFCURVE",
"441 540 OFFCURVE",
"352 540 CURVE SMOOTH"
);
}
);
};
layerId = "91AB5BCA-6A50-42DA-B2F7-8181BF189245";
paths = (
{
closed = 1;
nodes = (
"181 540 OFFCURVE",
"78 426 OFFCURVE",
"55 263 CURVE SMOOTH",
"32 101 OFFCURVE",
"103 -10 OFFCURVE",
"246 -10 CURVE SMOOTH",
"333 -10 OFFCURVE",
"402 31 OFFCURVE",
"463 113 CURVE",
"432 135 LINE",
"376 62 OFFCURVE",
"328 28 OFFCURVE",
"256 28 CURVE SMOOTH",
"136 28 OFFCURVE",
"77 122 OFFCURVE",
"97 265 CURVE SMOOTH",
"117 406 OFFCURVE",
"204 502 OFFCURVE",
"323 502 CURVE SMOOTH",
"385 502 OFFCURVE",
"415 476 OFFCURVE",
"461 404 CURVE",
"499 426 LINE",
"461 496 OFFCURVE",
"413 540 OFFCURVE",
"324 540 CURVE SMOOTH"
);
}
);
width = 539;
}
);
leftKerningGroup = o;
leftMetricsKey = e;
unicode = 0063;
},
{
glyphname = d;
lastChange = "2017-05-01 20:12:42 +0000";
layers = (
{
anchors = (
{
name = bottom;
position = "{263, 0}";
},
{
name = center;
position = "{300, 265}";
},
{
name = topright;
position = "{623, 530}";
}
);
background = {
anchors = (
{
name = bottom;
position = "{367, 0}";
},
{
name = center;
position = "{367, 265}";
},
{
name = topright;
position = "{653, 530}";
}
);
paths = (
{
closed = 1;
nodes = (
"608 0 LINE SMOOTH",
"629 0 OFFCURVE",
"635 8 OFFCURVE",
"635 25 CURVE SMOOTH",
"635 719 LINE SMOOTH",
"635 734 OFFCURVE",
"627 742 OFFCURVE",
"616 742 CURVE SMOOTH",
"454 742 LINE SMOOTH",
"442 742 OFFCURVE",
"436 734 OFFCURVE",
"436 721 CURVE SMOOTH",
"436 496 LINE SMOOTH",
"436 480 OFFCURVE",
"427 480 OFFCURVE",
"417 488 CURVE SMOOTH",
"376 528 OFFCURVE",
"338 540 OFFCURVE",
"293 540 CURVE SMOOTH",
"183 540 OFFCURVE",
"83 431 OFFCURVE",
"83 263 CURVE SMOOTH",
"83 82 OFFCURVE",
"165 -10 OFFCURVE",
"283 -10 CURVE SMOOTH",
"345 -10 OFFCURVE",
"384 10 OFFCURVE",
"423 46 CURVE SMOOTH",
"430 52 OFFCURVE",
"438 51 OFFCURVE",
"438 42 CURVE SMOOTH",
"438 23 LINE SMOOTH",
"438 6 OFFCURVE",
"450 0 OFFCURVE",
"463 0 CURVE SMOOTH"
);
},
{
closed = 1;
nodes = (
"435 176 LINE SMOOTH",
"435 137 OFFCURVE",
"404 110 OFFCURVE",
"365 110 CURVE SMOOTH",
"314 110 OFFCURVE",
"285 149 OFFCURVE",
"285 264 CURVE SMOOTH",
"285 380 OFFCURVE",
"318 416 OFFCURVE",
"365 416 CURVE SMOOTH",
"396 416 OFFCURVE",
"414 403 OFFCURVE",
"435 378 CURVE"
);
}
);
};
layerId = "258ED206-D907-4350-8EBA-CBDDA1C16BF7";
paths = (
{
closed = 1;
nodes = (
"294 -10 OFFCURVE",
"350 41 OFFCURVE",
"381 90 CURVE",
"394 0 LINE",
"535 0 LINE",
"642 762 LINE",
"442 762 LINE",
"398 450 LINE",
"376 524 OFFCURVE",
"317 540 OFFCURVE",
"265 540 CURVE SMOOTH",
"135 540 OFFCURVE",
"44 436 OFFCURVE",
"21 269 CURVE SMOOTH",
"-3 99 OFFCURVE",
"62 -10 OFFCURVE",
"208 -10 CURVE SMOOTH"
);
},
{
closed = 1;
nodes = (
"233 119 OFFCURVE",
"206 154 OFFCURVE",
"223 271 CURVE SMOOTH",
"239 387 OFFCURVE",
"277 410 OFFCURVE",
"318 410 CURVE SMOOTH",
"363 410 OFFCURVE",
"389 383 OFFCURVE",
"376 291 CURVE",
"369 245 LINE",
"357 156 OFFCURVE",
"324 119 OFFCURVE",
"280 119 CURVE"
);
}
);
width = 632;
},
{
anchors = (
{
name = bottom;
position = "{248, 0}";
},
{
name = center;
position = "{297, 265}";
},
{
name = topright;
position = "{677, 742}";
}
);
background = {
anchors = (
{
name = bottom;
position = "{352, 0}";
},
{
name = center;
position = "{364, 265}";
},
{
name = topright;
position = "{677, 742}";
}
);
paths = (
{
closed = 1;
nodes = (
"539 0 LINE SMOOTH",
"548 0 OFFCURVE",
"551 3 OFFCURVE",
"551 12 CURVE SMOOTH",
"551 733 LINE SMOOTH",
"551 739 OFFCURVE",
"548 742 OFFCURVE",
"543 742 CURVE SMOOTH",
"520 742 LINE SMOOTH",
"513 742 OFFCURVE",
"511 739 OFFCURVE",
"511 732 CURVE SMOOTH",
"511 493 LINE SMOOTH",
"511 480 OFFCURVE",
"509 476 OFFCURVE",
"497 486 CURVE SMOOTH",
"466 510 OFFCURVE",
"423 540 OFFCURVE",
"350 540 CURVE SMOOTH",
"203 540 OFFCURVE",
"107 425 OFFCURVE",
"107 255 CURVE SMOOTH",
"107 78 OFFCURVE",
"210 -10 OFFCURVE",
"338 -10 CURVE SMOOTH",
"434 -10 OFFCURVE",
"485 49 OFFCURVE",
"501 66 CURVE SMOOTH",
"509 74 OFFCURVE",
"513 73 OFFCURVE",
"513 62 CURVE SMOOTH",
"513 11 LINE SMOOTH",
"513 4 OFFCURVE",
"516 0 OFFCURVE",
"523 0 CURVE SMOOTH"
);
},
{
closed = 1;
nodes = (
"511 170 LINE SMOOTH",
"511 110 OFFCURVE",
"439 28 OFFCURVE",
"343 28 CURVE SMOOTH",
"241 28 OFFCURVE",
"149 100 OFFCURVE",
"149 259 CURVE SMOOTH",
"149 411 OFFCURVE",
"234 502 OFFCURVE",
"351 502 CURVE SMOOTH",
"412 502 OFFCURVE",
"462 474 OFFCURVE",
"511 426 CURVE"
);
}
);
};
layerId = "91AB5BCA-6A50-42DA-B2F7-8181BF189245";
paths = (
{
closed = 1;
nodes = (
"335 -10 OFFCURVE",
"400 59 OFFCURVE",
"420 79 CURVE",
"409 0 LINE",
"447 0 LINE",
"554 762 LINE",
"514 762 LINE",
"473 475 LINE",
"427 517 OFFCURVE",
"386 540 OFFCURVE",
"322 540 CURVE SMOOTH",
"175 540 OFFCURVE",
"77 425 OFFCURVE",
"54 255 CURVE SMOOTH",
"29 78 OFFCURVE",
"104 -10 OFFCURVE",
"232 -10 CURVE SMOOTH"
);
},
{
closed = 1;
nodes = (
"141 28 OFFCURVE",
"74 100 OFFCURVE",
"96 259 CURVE SMOOTH",
"117 411 OFFCURVE",
"200 502 OFFCURVE",
"317 502 CURVE SMOOTH",
"378 502 OFFCURVE",
"424 474 OFFCURVE",
"467 426 CURVE",
"431 170 LINE",
"422 110 OFFCURVE",
"339 28 OFFCURVE",
"243 28 CURVE SMOOTH"
);
}
);
width = 589;
}
);
leftKerningGroup = o;
unicode = 0064;
},
{
glyphname = eth;
lastChange = "2017-05-01 20:09:09 +0000";
layers = (
{
background = {
paths = (
{
closed = 1;
nodes = (
"597 434 OFFCURVE",
"539 579 OFFCURVE",
"427 666 CURVE",
"484 692 LINE SMOOTH",
"490 696 OFFCURVE",
"486 699 OFFCURVE",
"484 704 CURVE SMOOTH",
"467 742 LINE SMOOTH",
"465 747 OFFCURVE",
"458 757 OFFCURVE",
"450 752 CURVE SMOOTH",
"368 704 LINE",
"334 723 OFFCURVE",
"295 739 OFFCURVE",
"250 746 CURVE SMOOTH",
"242 751 OFFCURVE",
"241 756 OFFCURVE",
"233 750 CURVE SMOOTH",
"138 681 LINE SMOOTH",
"132 675 OFFCURVE",
"140 667 OFFCURVE",
"149 667 CURVE SMOOTH",
"175 655 OFFCURVE",
"199 644 OFFCURVE",
"222 631 CURVE",
"139 591 LINE SMOOTH",
"132 588 OFFCURVE",
"134 583 OFFCURVE",
"140 572 CURVE SMOOTH",
"153 548 LINE SMOOTH",
"157 537 OFFCURVE",
"163 527 OFFCURVE",
"175 533 CURVE SMOOTH",
"280 593 LINE",
"304 572 OFFCURVE",
"320 556 OFFCURVE",
"336 535 CURVE SMOOTH",
"335 528 OFFCURVE",
"330 520 OFFCURVE",
"322 520 CURVE SMOOTH",
"168 520 OFFCURVE",
"36 415 OFFCURVE",
"15 263 CURVE SMOOTH",
"-7 109 OFFCURVE",
"94 -10 OFFCURVE",
"262 -10 CURVE SMOOTH",
"425 -10 OFFCURVE",
"549 96 OFFCURVE",
"574 271 CURVE SMOOTH"
);
},
{
closed = 1;
nodes = (
"216 118 OFFCURVE",
"202 156 OFFCURVE",
"214 245 CURVE SMOOTH",
"228 345 OFFCURVE",
"263 396 OFFCURVE",
"320 396 CURVE SMOOTH",
"370 396 OFFCURVE",
"384 357 OFFCURVE",
"371 267 CURVE SMOOTH",
"358 169 OFFCURVE",
"323 118 OFFCURVE",
"265 118 CURVE SMOOTH"
);
}
);
};
layerId = "258ED206-D907-4350-8EBA-CBDDA1C16BF7";
paths = (
{
closed = 1;
nodes = (
"597 434 OFFCURVE",
"539 579 OFFCURVE",
"427 666 CURVE",
"488 694 LINE",
"460 758 LINE",
"368 704 LINE",
"329 724 OFFCURVE",
"284 741 OFFCURVE",
"231 749 CURVE",
"131 676 LINE",
"163 661 OFFCURVE",
"193 647 OFFCURVE",
"222 631 CURVE",
"132 587 LINE",
"164 527 LINE",
"280 593 LINE",
"304 572 OFFCURVE",
"320 556 OFFCURVE",
"336 535 CURVE SMOOTH",
"335 528 OFFCURVE",
"330 520 OFFCURVE",
"322 520 CURVE SMOOTH",
"168 520 OFFCURVE",
"36 415 OFFCURVE",
"15 263 CURVE SMOOTH",
"-7 109 OFFCURVE",
"94 -10 OFFCURVE",
"262 -10 CURVE SMOOTH",
"425 -10 OFFCURVE",
"549 96 OFFCURVE",
"574 271 CURVE SMOOTH"
);
},
{
closed = 1;
nodes = (
"216 118 OFFCURVE",
"202 156 OFFCURVE",
"214 245 CURVE SMOOTH",
"228 345 OFFCURVE",
"263 396 OFFCURVE",
"320 396 CURVE SMOOTH",
"370 396 OFFCURVE",
"384 357 OFFCURVE",
"371 267 CURVE SMOOTH",
"358 169 OFFCURVE",
"323 118 OFFCURVE",
"265 118 CURVE SMOOTH"
);
}
);
width = 593;
},
{
background = {
paths = (
{
closed = 1;
nodes = (
"553 421 OFFCURVE",
"517 562 OFFCURVE",
"376 668 CURVE",
"475 718 LINE SMOOTH",
"478 720 OFFCURVE",
"476 723 OFFCURVE",
"475 726 CURVE SMOOTH",
"466 748 LINE SMOOTH",
"466 750 OFFCURVE",
"461 753 OFFCURVE",
"457 751 CURVE SMOOTH",
"345 691 LINE",
"313 712 OFFCURVE",
"278 731 OFFCURVE",
"236 748 CURVE SMOOTH",
"229 753 OFFCURVE",
"225 752 OFFCURVE",
"219 748 CURVE SMOOTH",
"199 736 LINE SMOOTH",
"194 732 OFFCURVE",
"196 726 OFFCURVE",
"202 725 CURVE SMOOTH",
"240 707 OFFCURVE",
"275 690 OFFCURVE",
"306 671 CURVE",
"137 584 LINE SMOOTH",
"134 582 OFFCURVE",
"133 579 OFFCURVE",
"136 573 CURVE SMOOTH",
"143 559 LINE SMOOTH",
"146 553 OFFCURVE",
"149 550 OFFCURVE",
"155 553 CURVE SMOOTH",
"337 649 LINE",
"415 591 OFFCURVE",
"457 524 OFFCURVE",
"478 451 CURVE",
"440 493 OFFCURVE",
"385 520 OFFCURVE",
"313 520 CURVE SMOOTH",
"178 520 OFFCURVE",
"65 409 OFFCURVE",
"43 254 CURVE SMOOTH",
"22 99 OFFCURVE",
"104 -10 OFFCURVE",
"249 -10 CURVE SMOOTH",
"402 -10 OFFCURVE",
"508 100 OFFCURVE",
"529 253 CURVE SMOOTH"
);
},
{
closed = 1;
nodes = (
"140 28 OFFCURVE",
"68 127 OFFCURVE",
"85 252 CURVE SMOOTH",
"103 379 OFFCURVE",
"205 482 OFFCURVE",
"321 482 CURVE SMOOTH",
"434 482 OFFCURVE",
"505 382 OFFCURVE",
"488 256 CURVE SMOOTH",
"470 128 OFFCURVE",
"371 28 OFFCURVE",
"255 28 CURVE SMOOTH"
);
}
);
};
layerId = "91AB5BCA-6A50-42DA-B2F7-8181BF189245";
paths = (
{
closed = 1;
nodes = (
"558 421 OFFCURVE",
"522 562 OFFCURVE",
"381 668 CURVE",
"483 719 LINE",
"468 754 LINE",
"350 691 LINE",
"315 714 OFFCURVE",
"277 734 OFFCURVE",
"231 752 CURVE",
"195 731 LINE",
"237 711 OFFCURVE",
"276 692 OFFCURVE",
"311 671 CURVE",
"137 581 LINE",
"153 549 LINE",
"342 649 LINE",
"420 591 OFFCURVE",
"462 524 OFFCURVE",
"483 451 CURVE",
"445 493 OFFCURVE",
"390 520 OFFCURVE",
"318 520 CURVE SMOOTH",
"183 520 OFFCURVE",
"70 409 OFFCURVE",
"48 254 CURVE SMOOTH",
"27 99 OFFCURVE",
"109 -10 OFFCURVE",
"254 -10 CURVE SMOOTH",
"407 -10 OFFCURVE",
"513 100 OFFCURVE",
"534 253 CURVE SMOOTH"
);
},
{
closed = 1;
nodes = (
"145 28 OFFCURVE",
"73 127 OFFCURVE",
"90 252 CURVE SMOOTH",
"108 379 OFFCURVE",
"210 482 OFFCURVE",
"326 482 CURVE SMOOTH",
"439 482 OFFCURVE",
"510 382 OFFCURVE",
"493 256 CURVE SMOOTH",
"475 128 OFFCURVE",
"376 28 OFFCURVE",
"260 28 CURVE SMOOTH"
);
}
);
width = 586;
}
);
leftMetricsKey = o;
rightMetricsKey = o;
unicode = 00F0;
},
{
glyphname = dcroat;
lastChange = "2017-05-01 20:14:53 +0000";
layers = (
{
background = {
components = (
{
name = d;
}
);
paths = (
{
closed = 1;
nodes = (
"707 674 OFFCURVE",
"699 687 OFFCURVE",
"689 687 CURVE SMOOTH",
"350 687 LINE SMOOTH",
"340 687 OFFCURVE",
"338 686 OFFCURVE",
"336 673 CURVE SMOOTH",
"327 608 LINE SMOOTH",
"325 593 OFFCURVE",
"332 580 OFFCURVE",
"349 580 CURVE SMOOTH",
"669 580 LINE SMOOTH",
"689 580 OFFCURVE",
"694 581 OFFCURVE",
"697 598 CURVE SMOOTH",
"706 663 LINE SMOOTH"
);
}
);
};
components = (
{
name = d;
}
);
layerId = "258ED206-D907-4350-8EBA-CBDDA1C16BF7";
paths = (
{
closed = 1;
nodes = (
"338 687 LINE",
"323 580 LINE",
"695 580 LINE",
"709 687 LINE"
);
}
);
width = 674;
},
{
background = {
components = (
{
name = d;
}
);
paths = (
{
closed = 1;
nodes = (
"669 659 OFFCURVE",
"667 662 OFFCURVE",
"664 662 CURVE SMOOTH",
"385 662 LINE SMOOTH",
"382 662 OFFCURVE",
"381 661 OFFCURVE",
"380 656 CURVE SMOOTH",
"377 636 LINE SMOOTH",
"376 630 OFFCURVE",
"378 627 OFFCURVE",
"384 627 CURVE SMOOTH",
"656 627 LINE SMOOTH",
"663 627 OFFCURVE",
"665 628 OFFCURVE",
"666 634 CURVE SMOOTH",
"669 655 LINE SMOOTH"
);
}
);
};
components = (
{
name = d;
}
);
layerId = "91AB5BCA-6A50-42DA-B2F7-8181BF189245";
paths = (
{
closed = 1;
nodes = (
"386 662 LINE",
"381 627 LINE",
"670 627 LINE",
"675 662 LINE"
);
}
);
width = 644;
}
);
leftKerningGroup = o;
leftMetricsKey = d;
unicode = 0111;
},
{
glyphname = e;
lastChange = "2017-10-16 21:25:14 +0000";
layers = (
{
anchors = (
{
name = bottom;
position = "{273, 0}";
},
{
name = ogonek;
position = "{405, 26}";
},
{
name = top;
position = "{344, 530}";
}
);
background = {
anchors = (
{
name = bottom;
position = "{377, 0}";
},
{
name = ogonek;
position = "{506, 26}";
},
{
name = top;
position = "{374, 530}";
}
);
paths = (
{
closed = 1;
nodes = (
"300 224 OFFCURVE",
"305 229 OFFCURVE",
"315 229 CURVE SMOOTH",
"626 229 LINE SMOOTH",
"643 230 OFFCURVE",
"644 237 OFFCURVE",
"644 254 CURVE SMOOTH",
"644 435 OFFCURVE",
"529 540 OFFCURVE",
"372 540 CURVE SMOOTH",
"224 540 OFFCURVE",
"94 426 OFFCURVE",
"94 256 CURVE SMOOTH",
"94 99 OFFCURVE",
"216 -10 OFFCURVE",
"376 -10 CURVE SMOOTH",
"488 -10 OFFCURVE",
"556 17 OFFCURVE",
"628 118 CURVE SMOOTH",
"637 129 OFFCURVE",
"634 138 OFFCURVE",
"624 142 CURVE SMOOTH",
"533 179 LINE SMOOTH",
"520 184 OFFCURVE",
"517 183 OFFCURVE",
"512 178 CURVE SMOOTH",
"468 135 OFFCURVE",
"437 122 OFFCURVE",
"403 122 CURVE SMOOTH",
"345 122 OFFCURVE",
"300 151 OFFCURVE",
"300 212 CURVE SMOOTH"
);
},
{
closed = 1;
nodes = (
"302 395 OFFCURVE",
"340 423 OFFCURVE",
"381 423 CURVE SMOOTH",
"431 423 OFFCURVE",
"450 372 OFFCURVE",
"450 346 CURVE SMOOTH",
"450 334 OFFCURVE",
"446 332 OFFCURVE",
"433 332 CURVE SMOOTH",
"303 333 LINE"
);
}
);
};
layerId = "258ED206-D907-4350-8EBA-CBDDA1C16BF7";
paths = (
{
closed = 1;
nodes = (
"569 208 LINE",
"576 255 LINE",
"598 412 OFFCURVE",
"519 540 OFFCURVE",
"345 540 CURVE SMOOTH",
"175 540 OFFCURVE",
"47 410 OFFCURVE",
"26 258 CURVE SMOOTH",
"3 97 OFFCURVE",
"110 -10 OFFCURVE",
"276 -10 CURVE SMOOTH",
"393 -10 OFFCURVE",
"492 42 OFFCURVE",
"547 138 CURVE",
"399 173 LINE",
"377 138 OFFCURVE",
"333 114 OFFCURVE",
"291 114 CURVE SMOOTH",
"243 114 OFFCURVE",
"207 145 OFFCURVE",
"217 208 CURVE"
);
},
{
closed = 1;
nodes = (
"242 387 OFFCURVE",
"273 425 OFFCURVE",
"329 425 CURVE SMOOTH",
"385 425 OFFCURVE",
"406 387 OFFCURVE",
"399 335 CURVE",
"235 335 LINE"
);
}
);
width = 600;
},
{
anchors = (
{
name = bottom;
position = "{236, 0}";
},
{
name = ogonek;
position = "{343, 18}";
},
{
name = top;
position = "{319, 530}";
}
);
background = {
anchors = (
{
name = bottom;
position = "{352, 0}";
},
{
name = ogonek;
position = "{445, 18}";
},
{
name = top;
position = "{349, 530}";
}
);
paths = (
{
closed = 1;
nodes = (
"150 247 OFFCURVE",
"152 254 OFFCURVE",
"156 254 CURVE SMOOTH",
"567 254 LINE SMOOTH",
"582 254 OFFCURVE",
"580 266 OFFCURVE",
"580 274 CURVE SMOOTH",
"580 442 OFFCURVE",
"492 540 OFFCURVE",
"351 540 CURVE SMOOTH",
"210 540 OFFCURVE",
"108 436 OFFCURVE",
"108 261 CURVE SMOOTH",
"108 100 OFFCURVE",
"207 -10 OFFCURVE",
"351 -10 CURVE SMOOTH",
"445 -10 OFFCURVE",
"515 27 OFFCURVE",
"561 100 CURVE SMOOTH",
"564 104 OFFCURVE",
"563 108 OFFCURVE",
"560 110 CURVE SMOOTH",
"537 125 LINE SMOOTH",
"533 128 OFFCURVE",
"530 127 OFFCURVE",
"526 121 CURVE SMOOTH",
"490 61 OFFCURVE",
"431 28 OFFCURVE",
"351 28 CURVE SMOOTH",
"239 28 OFFCURVE",
"150 127 OFFCURVE",
"150 240 CURVE SMOOTH"
);
},
{
closed = 1;
nodes = (
"150 390 OFFCURVE",
"218 502 OFFCURVE",
"350 502 CURVE SMOOTH",
"466 502 OFFCURVE",
"538 414 OFFCURVE",
"538 304 CURVE SMOOTH",
"538 293 OFFCURVE",
"535 290 OFFCURVE",
"521 290 CURVE SMOOTH",
"151 290 LINE"
);
}
);
};
guideLines = (
{
angle = 88.4926;
position = "{289, 521}";
}
);
layerId = "91AB5BCA-6A50-42DA-B2F7-8181BF189245";
paths = (
{
closed = 1;
nodes = (
"496 254 LINE",
"501 284 LINE",
"524 447 OFFCURVE",
"457 540 OFFCURVE",
"321 540 CURVE SMOOTH",
"177 540 OFFCURVE",
"79 436 OFFCURVE",
"54 261 CURVE SMOOTH",
"30 87 OFFCURVE",
"115 -10 OFFCURVE",
"254 -10 CURVE SMOOTH",
"339 -10 OFFCURVE",
"416 28 OFFCURVE",
"464 109 CURVE",
"427 123 LINE",
"388 65 OFFCURVE",
"342 30 OFFCURVE",
"260 30 CURVE SMOOTH",
"126 30 OFFCURVE",
"80 134 OFFCURVE",
"96 254 CURVE"
);
},
{
closed = 1;
nodes = (
"116 394 OFFCURVE",
"185 500 OFFCURVE",
"314 500 CURVE SMOOTH",
"433 500 OFFCURVE",
"477 412 OFFCURVE",
"460 294 CURVE",
"103 294 LINE"
);
}
);
width = 558;
}
);
leftKerningGroup = o;
unicode = 0065;
changeCount = 1;
},
{
glyphname = f;
lastChange = "2017-05-01 20:12:50 +0000";
layers = (
{
background = {
paths = (
{
closed = 1;
nodes = (
"376 530 LINE SMOOTH",
"368 530 OFFCURVE",
"363 533 OFFCURVE",
"363 543 CURVE SMOOTH",
"363 561 LINE SMOOTH",
"363 589 OFFCURVE",
"385 612 OFFCURVE",
"408 612 CURVE SMOOTH",
"451 612 LINE SMOOTH",
"463 612 OFFCURVE",
"469 621 OFFCURVE",
"469 632 CURVE",
"468 716 LINE",
"468 732 OFFCURVE",
"458 742 OFFCURVE",
"439 742 CURVE SMOOTH",
"326 742 LINE SMOOTH",
"229 742 OFFCURVE",
"168 688 OFFCURVE",
"168 601 CURVE SMOOTH",
"168 548 LINE SMOOTH",
"168 535 OFFCURVE",
"165 530 OFFCURVE",
"154 530 CURVE SMOOTH",
"106 530 LINE SMOOTH",
"89 530 OFFCURVE",
"82 520 OFFCURVE",
"82 508 CURVE SMOOTH",
"82 414 LINE SMOOTH",
"82 400 OFFCURVE",
"90 395 OFFCURVE",
"104 395 CURVE SMOOTH",
"160 395 LINE SMOOTH",
"166 395 OFFCURVE",
"168 392 OFFCURVE",
"168 385 CURVE SMOOTH",
"168 20 LINE SMOOTH",
"168 7 OFFCURVE",
"175 0 OFFCURVE",
"186 0 CURVE SMOOTH",
"349 0 LINE SMOOTH",
"361 0 OFFCURVE",
"368 7 OFFCURVE",
"368 22 CURVE SMOOTH",
"368 383 LINE SMOOTH",
"368 391 OFFCURVE",
"373 395 OFFCURVE",
"380 395 CURVE SMOOTH",
"442 395 LINE SMOOTH",
"455 395 OFFCURVE",
"464 400 OFFCURVE",
"464 414 CURVE SMOOTH",
"464 508 LINE SMOOTH",
"464 520 OFFCURVE",
"456 530 OFFCURVE",
"439 530 CURVE SMOOTH"
);
}
);
};
layerId = "258ED206-D907-4350-8EBA-CBDDA1C16BF7";
paths = (
{
closed = 1;
nodes = (
"333 530 LINE",
"338 561 LINE SMOOTH",
"343 600 OFFCURVE",
"357 612 OFFCURVE",
"390 612 CURVE SMOOTH",
"451 612 LINE",
"468 742 LINE",
"326 742 LINE SMOOTH",
"229 742 OFFCURVE",
"160 688 OFFCURVE",
"148 601 CURVE SMOOTH",
"138 530 LINE",
"52 530 LINE",
"33 395 LINE",
"119 395 LINE",
"64 0 LINE",
"264 0 LINE",
"319 395 LINE",
"415 395 LINE",
"434 530 LINE"
);
}
);
width = 417;
},
{
background = {
paths = (
{
closed = 1;
nodes = (
"275 530 LINE SMOOTH",
"270 530 OFFCURVE",
"268 532 OFFCURVE",
"268 537 CURVE SMOOTH",
"268 627 LINE SMOOTH",
"268 678 OFFCURVE",
"281 707 OFFCURVE",
"331 707 CURVE SMOOTH",
"411 707 LINE SMOOTH",
"416 707 OFFCURVE",
"419 709 OFFCURVE",
"419 714 CURVE SMOOTH",
"419 735 LINE SMOOTH",
"419 740 OFFCURVE",
"417 742 OFFCURVE",
"413 742 CURVE SMOOTH",
"341 742 LINE SMOOTH",
"261 742 OFFCURVE",
"228 700 OFFCURVE",
"228 618 CURVE SMOOTH",
"228 537 LINE SMOOTH",
"228 532 OFFCURVE",
"226 530 OFFCURVE",
"221 530 CURVE SMOOTH",
"108 530 LINE SMOOTH",
"104 530 OFFCURVE",
"102 528 OFFCURVE",
"102 524 CURVE SMOOTH",
"102 501 LINE SMOOTH",
"102 497 OFFCURVE",
"104 495 OFFCURVE",
"108 495 CURVE SMOOTH",
"222 495 LINE SMOOTH",
"226 495 OFFCURVE",
"228 492 OFFCURVE",
"228 488 CURVE SMOOTH",
"228 10 LINE SMOOTH",
"228 3 OFFCURVE",
"230 0 OFFCURVE",
"236 0 CURVE SMOOTH",
"259 0 LINE SMOOTH",
"265 0 OFFCURVE",
"268 3 OFFCURVE",
"268 11 CURVE SMOOTH",
"268 488 LINE SMOOTH",
"268 493 OFFCURVE",
"270 495 OFFCURVE",
"275 495 CURVE SMOOTH",
"408 495 LINE SMOOTH",
"412 495 OFFCURVE",
"414 497 OFFCURVE",
"414 501 CURVE SMOOTH",
"414 524 LINE SMOOTH",
"414 528 OFFCURVE",
"412 530 OFFCURVE",
"409 530 CURVE SMOOTH"
);
}
);
};
layerId = "91AB5BCA-6A50-42DA-B2F7-8181BF189245";
paths = (
{
closed = 1;
nodes = (
"238 530 LINE",
"252 627 LINE SMOOTH",
"259 678 OFFCURVE",
"276 707 OFFCURVE",
"326 707 CURVE SMOOTH",
"414 707 LINE",
"419 742 LINE",
"341 742 LINE SMOOTH",
"261 742 OFFCURVE",
"222 700 OFFCURVE",
"211 618 CURVE SMOOTH",
"198 530 LINE",
"72 530 LINE",
"67 495 LINE",
"193 495 LINE",
"124 0 LINE",
"164 0 LINE",
"233 495 LINE",
"379 495 LINE",
"384 530 LINE"
);
}
);
width = 387;
}
);
leftKerningGroup = f;
rightKerningGroup = f;
unicode = 0066;
},
{
glyphname = g;
lastChange = "2017-10-16 19:47:05 +0000";
layers = (
{
anchors = (
{
name = top;
position = "{359, 530}";
}
);
background = {
anchors = (
{
name = top;
position = "{389, 530}";
}
);
paths = (
{
closed = 1;
nodes = (
"669 562 OFFCURVE",
"613 534 OFFCURVE",
"586 496 CURVE SMOOTH",
"579 486 OFFCURVE",
"565 485 OFFCURVE",
"555 493 CURVE SMOOTH",
"522 519 OFFCURVE",
"464 538 OFFCURVE",
"388 538 CURVE SMOOTH",
"209 538 OFFCURVE",
"118 469 OFFCURVE",
"118 373 CURVE SMOOTH",
"118 312 OFFCURVE",
"156 265 OFFCURVE",
"222 237 CURVE SMOOTH",
"232 231 OFFCURVE",
"225 228 OFFCURVE",
"219 225 CURVE SMOOTH",
"165 202 OFFCURVE",
"110 169 OFFCURVE",
"110 122 CURVE SMOOTH",
"110 81 OFFCURVE",
"141 56 OFFCURVE",
"176 39 CURVE SMOOTH",
"184 35 OFFCURVE",
"186 31 OFFCURVE",
"176 28 CURVE SMOOTH",
"123 13 OFFCURVE",
"79 -8 OFFCURVE",
"79 -53 CURVE SMOOTH",
"79 -137 OFFCURVE",
"181 -175 OFFCURVE",
"390 -175 CURVE SMOOTH",
"591 -175 OFFCURVE",
"693 -99 OFFCURVE",
"693 3 CURVE SMOOTH",
"693 85 OFFCURVE",
"627 143 OFFCURVE",
"479 152 CURVE SMOOTH",
"327 161 LINE SMOOTH",
"298 163 OFFCURVE",
"283 167 OFFCURVE",
"283 182 CURVE SMOOTH",
"283 198 OFFCURVE",
"310 209 OFFCURVE",
"376 209 CURVE SMOOTH",
"544 209 OFFCURVE",
"633 284 OFFCURVE",
"633 374 CURVE SMOOTH",
"633 384 OFFCURVE",
"631 395 OFFCURVE",
"628 405 CURVE SMOOTH",
"624 419 OFFCURVE",
"629 428 OFFCURVE",
"648 428 CURVE SMOOTH",
"660 428 OFFCURVE",
"679 425 OFFCURVE",
"692 421 CURVE SMOOTH",
"707 416 OFFCURVE",
"718 424 OFFCURVE",
"718 447 CURVE SMOOTH",
"718 537 LINE SMOOTH",
"718 555 OFFCURVE",
"709 562 OFFCURVE",
"698 562 CURVE SMOOTH"
);
},
{
closed = 1;
nodes = (
"324 300 OFFCURVE",
"296 334 OFFCURVE",
"296 370 CURVE SMOOTH",
"296 411 OFFCURVE",
"324 445 OFFCURVE",
"374 445 CURVE SMOOTH",
"430 445 OFFCURVE",
"452 411 OFFCURVE",
"452 370 CURVE SMOOTH",
"452 335 OFFCURVE",
"430 300 OFFCURVE",
"374 300 CURVE SMOOTH"
);
},
{
closed = 1;
nodes = (
"497 0 OFFCURVE",
"520 -16 OFFCURVE",
"520 -35 CURVE SMOOTH",
"520 -64 OFFCURVE",
"478 -86 OFFCURVE",
"400 -86 CURVE SMOOTH",
"275 -86 OFFCURVE",
"240 -64 OFFCURVE",
"240 -27 CURVE SMOOTH",
"240 -6 OFFCURVE",
"266 10 OFFCURVE",
"309 8 CURVE SMOOTH",
"454 2 LINE SMOOTH"
);
}
);
};
layerId = "258ED206-D907-4350-8EBA-CBDDA1C16BF7";
paths = (
{
closed = 1;
nodes = (
"462 -175 OFFCURVE",
"575 -99 OFFCURVE",
"589 3 CURVE SMOOTH",
"601 85 OFFCURVE",
"545 152 OFFCURVE",
"399 162 CURVE SMOOTH",
"355 165 OFFCURVE",
"313 167 OFFCURVE",
"295 168 CURVE SMOOTH",
"244 171 OFFCURVE",
"211 171 OFFCURVE",
"213 186 CURVE",
"214 191 OFFCURVE",
"218 193 OFFCURVE",
"228 195 CURVE",
"246 193 OFFCURVE",
"282 192 OFFCURVE",
"299 192 CURVE SMOOTH",
"467 192 OFFCURVE",
"569 284 OFFCURVE",
"581 374 CURVE SMOOTH",
"582 381 OFFCURVE",
"583 390 OFFCURVE",
"582 397 CURVE SMOOTH",
"579 411 OFFCURVE",
"584 419 OFFCURVE",
"603 421 CURVE SMOOTH",
"624 423 OFFCURVE",
"652 426 OFFCURVE",
"673 428 CURVE",
"694 569 LINE",
"658 555 OFFCURVE",
"604 535 OFFCURVE",
"554 516 CURVE SMOOTH",
"544 512 OFFCURVE",
"512 500 OFFCURVE",
"510 501 CURVE SMOOTH",
"474 521 OFFCURVE",
"435 538 OFFCURVE",
"359 538 CURVE SMOOTH",
"215 538 OFFCURVE",
"81 480 OFFCURVE",
"66 373 CURVE SMOOTH",
"58 317 OFFCURVE",
"86 249 OFFCURVE",
"158 215 CURVE",
"73 204 OFFCURVE",
"29 164 OFFCURVE",
"23 122 CURVE SMOOTH",
"18 84 OFFCURVE",
"45 56 OFFCURVE",
"77 39 CURVE SMOOTH",
"85 35 OFFCURVE",
"86 31 OFFCURVE",
"76 28 CURVE SMOOTH",
"21 13 OFFCURVE",
"-26 -8 OFFCURVE",
"-33 -53 CURVE SMOOTH",
"-42 -121 OFFCURVE",
"52 -175 OFFCURVE",
"261 -175 CURVE SMOOTH"
);
},
{
closed = 1;
nodes = (
"205 -71 OFFCURVE",
"160 -64 OFFCURVE",
"165 -30 CURVE SMOOTH",
"167 -12 OFFCURVE",
"184 11 OFFCURVE",
"239 8 CURVE SMOOTH",
"334 2 LINE SMOOTH",
"375 -1 OFFCURVE",
"398 -15 OFFCURVE",
"394 -38 CURVE SMOOTH",
"392 -57 OFFCURVE",
"377 -71 OFFCURVE",
"307 -71 CURVE SMOOTH"
);
},
{
closed = 1;
nodes = (
"281 296 OFFCURVE",
"260 326 OFFCURVE",
"265 366 CURVE SMOOTH",
"271 406 OFFCURVE",
"302 441 OFFCURVE",
"340 441 CURVE SMOOTH",
"378 441 OFFCURVE",
"399 406 OFFCURVE",
"393 366 CURVE SMOOTH",
"388 326 OFFCURVE",
"357 296 OFFCURVE",
"319 296 CURVE SMOOTH"
);
}
);
width = 666;
},
{
anchors = (
{
name = top;
position = "{325, 530}";
}
);
background = {
anchors = (
{
name = top;
position = "{355, 530}";
}
);
guideLines = (
{
angle = 90;
position = "{351, 374}";
showMeasurement = 1;
}
);
paths = (
{
closed = 1;
nodes = (
"569 530 OFFCURVE",
"539 507 OFFCURVE",
"519 492 CURVE SMOOTH",
"512 487 OFFCURVE",
"508 487 OFFCURVE",
"501 493 CURVE SMOOTH",
"467 522 OFFCURVE",
"424 538 OFFCURVE",
"358 538 CURVE SMOOTH",
"226 538 OFFCURVE",
"148 475 OFFCURVE",
"148 369 CURVE SMOOTH",
"148 307 OFFCURVE",
"172 266 OFFCURVE",
"227 235 CURVE SMOOTH",
"234 231 OFFCURVE",
"236 225 OFFCURVE",
"228 223 CURVE SMOOTH",
"178 207 OFFCURVE",
"161 181 OFFCURVE",
"161 159 CURVE SMOOTH",
"161 137 OFFCURVE",
"172 121 OFFCURVE",
"199 109 CURVE SMOOTH",
"206 106 OFFCURVE",
"206 102 OFFCURVE",
"199 98 CURVE SMOOTH",
"136 63 OFFCURVE",
"107 21 OFFCURVE",
"107 -27 CURVE SMOOTH",
"107 -120 OFFCURVE",
"193 -175 OFFCURVE",
"347 -175 CURVE SMOOTH",
"498 -175 OFFCURVE",
"586 -119 OFFCURVE",
"586 -19 CURVE SMOOTH",
"586 60 OFFCURVE",
"539 110 OFFCURVE",
"432 116 CURVE SMOOTH",
"312 123 LINE SMOOTH",
"235 127 OFFCURVE",
"203 136 OFFCURVE",
"203 160 CURVE SMOOTH",
"203 184 OFFCURVE",
"236 209 OFFCURVE",
"351 209 CURVE SMOOTH",
"492 209 OFFCURVE",
"553 280 OFFCURVE",
"553 369 CURVE SMOOTH",
"553 411 OFFCURVE",
"539 434 OFFCURVE",
"532 451 CURVE SMOOTH",
"529 458 OFFCURVE",
"534 464 OFFCURVE",
"552 474 CURVE SMOOTH",
"568 483 OFFCURVE",
"581 487 OFFCURVE",
"607 488 CURVE SMOOTH",
"621 489 OFFCURVE",
"624 495 OFFCURVE",
"624 504 CURVE SMOOTH",
"624 517 LINE SMOOTH",
"624 526 OFFCURVE",
"620 530 OFFCURVE",
"605 530 CURVE SMOOTH"
);
},
{
closed = 1;
nodes = (
"247 247 OFFCURVE",
"188 290 OFFCURVE",
"188 371 CURVE SMOOTH",
"188 453 OFFCURVE",
"248 500 OFFCURVE",
"352 500 CURVE SMOOTH",
"458 500 OFFCURVE",
"513 454 OFFCURVE",
"513 371 CURVE SMOOTH",
"513 289 OFFCURVE",
"460 247 OFFCURVE",
"352 247 CURVE SMOOTH"
);
},
{
closed = 1;
nodes = (
"515 70 OFFCURVE",
"544 36 OFFCURVE",
"544 -19 CURVE SMOOTH",
"544 -101 OFFCURVE",
"478 -137 OFFCURVE",
"356 -137 CURVE SMOOTH",
"225 -137 OFFCURVE",
"149 -96 OFFCURVE",
"149 -23 CURVE SMOOTH",
"149 43 OFFCURVE",
"223 88 OFFCURVE",
"255 86 CURVE SMOOTH",
"431 75 LINE SMOOTH"
);
}
);
};
guideLines = (
{
angle = 90;
position = "{356, 374}";
showMeasurement = 1;
}
);
layerId = "91AB5BCA-6A50-42DA-B2F7-8181BF189245";
paths = (
{
closed = 1;
nodes = (
"369 -175 OFFCURVE",
"465 -119 OFFCURVE",
"479 -19 CURVE SMOOTH",
"490 60 OFFCURVE",
"450 110 OFFCURVE",
"344 116 CURVE SMOOTH",
"294 119 OFFCURVE",
"256 121 OFFCURVE",
"225 123 CURVE SMOOTH",
"141 129 OFFCURVE",
"118 137 OFFCURVE",
"121 160 CURVE SMOOTH",
"124 183 OFFCURVE",
"159 207 OFFCURVE",
"265 209 CURVE SMOOTH",
"269 209 OFFCURVE",
"272 209 OFFCURVE",
"276 209 CURVE SMOOTH",
"417 209 OFFCURVE",
"488 280 OFFCURVE",
"501 369 CURVE SMOOTH",
"506 407 OFFCURVE",
"497 433 OFFCURVE",
"493 444 CURVE SMOOTH",
"489 457 OFFCURVE",
"489 459 OFFCURVE",
"513 464 CURVE SMOOTH",
"539 469 OFFCURVE",
"549 471 OFFCURVE",
"587 478 CURVE",
"595 537 LINE",
"554 521 OFFCURVE",
"509 503 OFFCURVE",
"484 492 CURVE SMOOTH",
"476 489 OFFCURVE",
"472 487 OFFCURVE",
"466 493 CURVE SMOOTH",
"436 522 OFFCURVE",
"395 538 OFFCURVE",
"329 538 CURVE SMOOTH",
"197 538 OFFCURVE",
"110 475 OFFCURVE",
"96 369 CURVE SMOOTH",
"86 303 OFFCURVE",
"106 264 OFFCURVE",
"167 228 CURVE",
"114 212 OFFCURVE",
"83 188 OFFCURVE",
"79 159 CURVE SMOOTH",
"76 137 OFFCURVE",
"85 121 OFFCURVE",
"110 109 CURVE SMOOTH",
"117 106 OFFCURVE",
"116 102 OFFCURVE",
"108 98 CURVE SMOOTH",
"41 63 OFFCURVE",
"6 21 OFFCURVE",
"-1 -27 CURVE SMOOTH",
"-14 -120 OFFCURVE",
"64 -175 OFFCURVE",
"218 -175 CURVE SMOOTH"
);
},
{
closed = 1;
nodes = (
"101 -137 OFFCURVE",
"31 -96 OFFCURVE",
"41 -23 CURVE SMOOTH",
"51 43 OFFCURVE",
"131 88 OFFCURVE",
"163 86 CURVE SMOOTH",
"337 75 LINE SMOOTH",
"421 70 OFFCURVE",
"445 36 OFFCURVE",
"437 -19 CURVE SMOOTH",
"426 -101 OFFCURVE",
"354 -137 OFFCURVE",
"232 -137 CURVE SMOOTH"
);
},
{
closed = 1;
nodes = (
"177 247 OFFCURVE",
"124 290 OFFCURVE",
"136 371 CURVE SMOOTH",
"147 453 OFFCURVE",
"214 500 OFFCURVE",
"318 500 CURVE SMOOTH",
"424 500 OFFCURVE",
"473 454 OFFCURVE",
"461 371 CURVE SMOOTH",
"449 289 OFFCURVE",
"390 247 OFFCURVE",
"282 247 CURVE SMOOTH"
);
}
);
width = 595;
}
);
leftKerningGroup = g;
unicode = 0067;
},
{
glyphname = gcommaaccent;
lastChange = "2017-05-01 20:16:21 +0000";
layers = (
{
anchors = (
{
name = _top;
position = "{380, 550}";
}
);
background = {
anchors = (
{
name = _top;
position = "{380, 550}";
}
);
components = (
{
name = g;
}
);
paths = (
{
closed = 1;
nodes = (
"437 599 LINE SMOOTH",
"447 599 OFFCURVE",
"453 604 OFFCURVE",
"455 618 CURVE SMOOTH",
"465 682 LINE SMOOTH",
"468 698 OFFCURVE",
"465 702 OFFCURVE",
"454 702 CURVE SMOOTH",
"424 702 LINE SMOOTH",
"413 702 OFFCURVE",
"411 714 OFFCURVE",
"423 728 CURVE SMOOTH",
"468 780 LINE SMOOTH",
"475 788 OFFCURVE",
"474 796 OFFCURVE",
"467 796 CURVE SMOOTH",
"439 796 LINE SMOOTH",
"425 796 OFFCURVE",
"419 787 OFFCURVE",
"409 777 CURVE SMOOTH",
"349 718 LINE SMOOTH",
"343 712 OFFCURVE",
"338 702 OFFCURVE",
"337 695 CURVE SMOOTH",
"325 613 LINE SMOOTH",
"324 603 OFFCURVE",
"330 599 OFFCURVE",
"341 599 CURVE SMOOTH"
);
}
);
};
components = (
{
name = g;
}
);
layerId = "258ED206-D907-4350-8EBA-CBDDA1C16BF7";
paths = (
{
closed = 1;
nodes = (
"452 599 LINE",
"468 702 LINE",
"401 702 LINE",
"482 796 LINE",
"428 796 LINE",
"339 708 LINE",
"323 599 LINE"
);
}
);
width = 654;
},
{
anchors = (
{
name = _top;
position = "{365, 550}";
}
);
background = {
anchors = (
{
name = _top;
position = "{360, 550}";
}
);
components = (
{
name = g;
}
);
paths = (
{
closed = 1;
nodes = (
"392 632 LINE SMOOTH",
"396 632 OFFCURVE",
"398 634 OFFCURVE",
"399 641 CURVE SMOOTH",
"408 707 LINE SMOOTH",
"409 712 OFFCURVE",
"408 715 OFFCURVE",
"402 715 CURVE SMOOTH",
"391 715 LINE SMOOTH",
"386 715 OFFCURVE",
"385 717 OFFCURVE",
"390 725 CURVE SMOOTH",
"423 779 LINE SMOOTH",
"426 783 OFFCURVE",
"425 786 OFFCURVE",
"421 786 CURVE SMOOTH",
"405 786 LINE SMOOTH",
"401 786 OFFCURVE",
"397 785 OFFCURVE",
"393 779 CURVE SMOOTH",
"357 726 LINE SMOOTH",
"354 722 OFFCURVE",
"352 717 OFFCURVE",
"351 713 CURVE SMOOTH",
"341 638 LINE SMOOTH",
"340 633 OFFCURVE",
"341 632 OFFCURVE",
"345 632 CURVE SMOOTH"
);
}
);
};
components = (
{
name = g;
}
);
layerId = "91AB5BCA-6A50-42DA-B2F7-8181BF189245";
paths = (
{
closed = 1;
nodes = (
"403 632 LINE",
"414 715 LINE",
"389 715 LINE",
"432 786 LINE",
"403 786 LINE",
"357 718 LINE",
"345 632 LINE"
);
}
);
width = 593;
}
);
leftKerningGroup = g;
unicode = 0123;
},
{
glyphname = h;
lastChange = "2017-05-01 20:08:50 +0000";
layers = (
{
anchors = (
{
name = bottom;
position = "{287, 0}";
},
{
name = top;
position = "{500, 530}";
}
);
background = {
anchors = (
{
name = bottom;
position = "{391, 0}";
},
{
name = top;
position = "{530, 530}";
}
);
paths = (
{
closed = 1;
nodes = (
"294 0 LINE SMOOTH",
"318 0 OFFCURVE",
"327 8 OFFCURVE",
"327 29 CURVE SMOOTH",
"327 349 LINE",
"346 383 OFFCURVE",
"370 399 OFFCURVE",
"401 399 CURVE SMOOTH",
"433 399 OFFCURVE",
"453 381 OFFCURVE",
"453 351 CURVE SMOOTH",
"453 25 LINE SMOOTH",
"453 6 OFFCURVE",
"459 0 OFFCURVE",
"476 0 CURVE SMOOTH",
"623 0 LINE SMOOTH",
"644 0 OFFCURVE",
"653 10 OFFCURVE",
"653 30 CURVE SMOOTH",
"653 375 LINE SMOOTH",
"653 481 OFFCURVE",
"596 540 OFFCURVE",
"497 540 CURVE SMOOTH",
"444 540 OFFCURVE",
"394 523 OFFCURVE",
"337 468 CURVE SMOOTH",
"329 461 OFFCURVE",
"324 464 OFFCURVE",
"324 472 CURVE SMOOTH",
"324 721 LINE SMOOTH",
"324 734 OFFCURVE",
"318 742 OFFCURVE",
"306 742 CURVE SMOOTH",
"146 742 LINE SMOOTH",
"134 742 OFFCURVE",
"127 733 OFFCURVE",
"127 719 CURVE SMOOTH",
"127 25 LINE SMOOTH",
"127 7 OFFCURVE",
"134 0 OFFCURVE",
"153 0 CURVE SMOOTH"
);
}
);
};
layerId = "258ED206-D907-4350-8EBA-CBDDA1C16BF7";
paths = (
{
closed = 1;
nodes = (
"223 0 LINE",
"272 349 LINE",
"296 383 OFFCURVE",
"322 399 OFFCURVE",
"353 399 CURVE SMOOTH",
"385 399 OFFCURVE",
"402 381 OFFCURVE",
"398 351 CURVE SMOOTH",
"349 0 LINE",
"549 0 LINE",
"601 375 LINE SMOOTH",
"616 481 OFFCURVE",
"568 540 OFFCURVE",
"469 540 CURVE SMOOTH",
"412 540 OFFCURVE",
"335 511 OFFCURVE",
"279 425 CURVE",
"327 762 LINE",
"130 762 LINE",
"23 0 LINE"
);
}
);
width = 636;
},
{
anchors = (
{
name = bottom;
position = "{280, 0}";
},
{
name = top;
position = "{376, 530}";
}
);
background = {
anchors = (
{
name = bottom;
position = "{384, 0}";
},
{
name = top;
position = "{406, 530}";
}
);
paths = (
{
closed = 1;
nodes = (
"203 0 LINE SMOOTH",
"209 0 OFFCURVE",
"212 3 OFFCURVE",
"212 9 CURVE SMOOTH",
"212 410 LINE",
"292 471 OFFCURVE",
"339 502 OFFCURVE",
"410 502 CURVE SMOOTH",
"497 502 OFFCURVE",
"533 455 OFFCURVE",
"533 377 CURVE SMOOTH",
"533 9 LINE SMOOTH",
"533 3 OFFCURVE",
"536 0 OFFCURVE",
"542 0 CURVE SMOOTH",
"564 0 LINE SMOOTH",
"570 0 OFFCURVE",
"573 3 OFFCURVE",
"573 10 CURVE SMOOTH",
"573 393 LINE SMOOTH",
"573 480 OFFCURVE",
"518 540 OFFCURVE",
"411 540 CURVE SMOOTH",
"338 540 OFFCURVE",
"293 511 OFFCURVE",
"217 457 CURVE SMOOTH",
"211 452 OFFCURVE",
"209 453 OFFCURVE",
"209 460 CURVE SMOOTH",
"209 734 LINE SMOOTH",
"209 740 OFFCURVE",
"207 742 OFFCURVE",
"201 742 CURVE SMOOTH",
"180 742 LINE SMOOTH",
"174 742 OFFCURVE",
"172 739 OFFCURVE",
"172 733 CURVE SMOOTH",
"172 9 LINE SMOOTH",
"172 3 OFFCURVE",
"175 0 OFFCURVE",
"181 0 CURVE SMOOTH"
);
}
);
};
layerId = "91AB5BCA-6A50-42DA-B2F7-8181BF189245";
paths = (
{
closed = 1;
nodes = (
"108 0 LINE",
"165 410 LINE",
"254 471 OFFCURVE",
"305 502 OFFCURVE",
"376 502 CURVE SMOOTH",
"463 502 OFFCURVE",
"493 455 OFFCURVE",
"482 377 CURVE SMOOTH",
"429 0 LINE",
"469 0 LINE",
"524 393 LINE SMOOTH",
"536 480 OFFCURVE",
"490 540 OFFCURVE",
"383 540 CURVE SMOOTH",
"307 540 OFFCURVE",
"255 509 OFFCURVE",
"168 451 CURVE",
"212 762 LINE",
"175 762 LINE",
"68 0 LINE"
);
}
);
width = 596;
}
);
unicode = 0068;
},
{
glyphname = hbar;
lastChange = "2017-05-01 20:09:06 +0000";
layers = (
{
background = {
components = (
{
name = h;
transform = "{1, 0, 0, 1, -4, 0}";
}
);
paths = (
{
closed = 1;
nodes = (
"432 674 OFFCURVE",
"423 687 OFFCURVE",
"413 687 CURVE SMOOTH",
"74 687 LINE SMOOTH",
"64 687 OFFCURVE",
"62 686 OFFCURVE",
"60 673 CURVE SMOOTH",
"51 608 LINE SMOOTH",
"49 593 OFFCURVE",
"56 580 OFFCURVE",
"73 580 CURVE SMOOTH",
"393 580 LINE SMOOTH",
"413 580 OFFCURVE",
"419 581 OFFCURVE",
"421 598 CURVE SMOOTH",
"430 663 LINE SMOOTH"
);
}
);
};
components = (
{
name = h;
transform = "{1, 0, 0, 1, -4, 0}";
}
);
layerId = "258ED206-D907-4350-8EBA-CBDDA1C16BF7";
paths = (
{
closed = 1;
nodes = (
"62 687 LINE",
"47 580 LINE",
"419 580 LINE",
"433 687 LINE"
);
}
);
width = 632;
},
{
background = {
components = (
{
name = h;
transform = "{1, 0, 0, 1, -42, 0}";
}
);
paths = (
{
closed = 1;
nodes = (
"359 659 OFFCURVE",
"357 662 OFFCURVE",
"354 662 CURVE SMOOTH",
"75 662 LINE SMOOTH",
"72 662 OFFCURVE",
"71 661 OFFCURVE",
"70 656 CURVE SMOOTH",
"67 636 LINE SMOOTH",
"66 630 OFFCURVE",
"68 627 OFFCURVE",
"74 627 CURVE SMOOTH",
"346 627 LINE SMOOTH",
"353 627 OFFCURVE",
"355 628 OFFCURVE",
"356 634 CURVE SMOOTH",
"359 655 LINE SMOOTH"
);
}
);
};
components = (
{
name = h;
transform = "{1, 0, 0, 1, -42, 0}";
}
);
layerId = "91AB5BCA-6A50-42DA-B2F7-8181BF189245";
paths = (
{
closed = 1;
nodes = (
"76 662 LINE",
"71 627 LINE",
"360 627 LINE",
"365 662 LINE"
);
}
);
width = 554;
}
);
rightMetricsKey = h;
unicode = 0127;
},
{
glyphname = i;
lastChange = "2017-07-13 02:49:53 +0000";
layers = (
{
background = {
paths = (
{
closed = 1;
nodes = (
"320 522 OFFCURVE",
"313 530 OFFCURVE",
"302 530 CURVE SMOOTH",
"139 530 LINE SMOOTH",
"127 530 OFFCURVE",
"120 522 OFFCURVE",
"120 507 CURVE SMOOTH",
"120 25 LINE SMOOTH",
"120 8 OFFCURVE",
"126 0 OFFCURVE",
"146 0 CURVE SMOOTH",
"287 0 LINE SMOOTH",
"310 0 OFFCURVE",
"320 8 OFFCURVE",
"320 29 CURVE SMOOTH",
"320 510 LINE SMOOTH"
);
},
{
closed = 1;
nodes = (
"320 734 OFFCURVE",
"313 742 OFFCURVE",
"302 742 CURVE SMOOTH",
"139 742 LINE SMOOTH",
"127 742 OFFCURVE",
"120 734 OFFCURVE",
"120 719 CURVE SMOOTH",
"120 600 LINE SMOOTH",
"120 583 OFFCURVE",
"126 574 OFFCURVE",
"146 574 CURVE SMOOTH",
"287 574 LINE SMOOTH",
"310 574 OFFCURVE",
"320 583 OFFCURVE",
"320 603 CURVE SMOOTH",
"320 721 LINE SMOOTH"
);
}
);
};
layerId = "258ED206-D907-4350-8EBA-CBDDA1C16BF7";
paths = (
{
closed = 1;
nodes = (
"90 530 LINE",
"16 0 LINE",
"216 0 LINE",
"290 530 LINE"
);
},
{
closed = 1;
nodes = (
"123 762 LINE",
"99 594 LINE",
"299 594 LINE",
"323 762 LINE"
);
}
);
width = 308;
},
{
background = {
paths = (
{
closed = 1;
nodes = (
"217 528 OFFCURVE",
"215 530 OFFCURVE",
"208 530 CURVE SMOOTH",
"186 530 LINE SMOOTH",
"179 530 OFFCURVE",
"177 528 OFFCURVE",
"177 520 CURVE SMOOTH",
"177 10 LINE SMOOTH",
"177 2 OFFCURVE",
"179 0 OFFCURVE",
"188 0 CURVE SMOOTH",
"205 0 LINE SMOOTH",
"215 0 OFFCURVE",
"217 2 OFFCURVE",
"217 12 CURVE SMOOTH",
"217 520 LINE SMOOTH"
);
},
{
closed = 1;
nodes = (
"222 737 OFFCURVE",
"217 742 OFFCURVE",
"210 742 CURVE SMOOTH",
"184 742 LINE SMOOTH",
"177 742 OFFCURVE",
"172 737 OFFCURVE",
"172 729 CURVE SMOOTH",
"172 658 LINE SMOOTH",
"172 650 OFFCURVE",
"174 644 OFFCURVE",
"183 644 CURVE SMOOTH",
"210 644 LINE SMOOTH",
"220 644 OFFCURVE",
"222 650 OFFCURVE",
"222 660 CURVE SMOOTH",
"222 729 LINE SMOOTH"
);
}
);
};
layerId = "91AB5BCA-6A50-42DA-B2F7-8181BF189245";
paths = (
{
closed = 1;
nodes = (
"147 530 LINE",
"73 0 LINE",
"113 0 LINE",
"187 530 LINE"
);
},
{
closed = 1;
nodes = (
"175 762 LINE",
"161 664 LINE",
"211 664 LINE",
"225 762 LINE"
);
}
);
width = 260;
}
);
unicode = 0069;
},
{
glyphname = idotless;
lastChange = "2017-05-01 20:16:21 +0000";
layers = (
{
anchors = (
{
name = ogonek;
position = "{185, 9}";
},
{
name = top;
position = "{190, 530}";
}
);
background = {
anchors = (
{
name = ogonek;
position = "{185, 9}";
},
{
name = top;
position = "{190, 530}";
}
);
paths = (
{
closed = 1;
nodes = (
"288 516 OFFCURVE",
"279 530 OFFCURVE",
"268 530 CURVE SMOOTH",
"105 530 LINE SMOOTH",
"93 530 OFFCURVE",
"90 528 OFFCURVE",
"88 513 CURVE SMOOTH",
"20 31 LINE SMOOTH",
"18 14 OFFCURVE",
"26 0 OFFCURVE",
"46 0 CURVE SMOOTH",
"187 0 LINE SMOOTH",
"210 0 OFFCURVE",
"216 2 OFFCURVE",
"219 23 CURVE SMOOTH",
"287 504 LINE SMOOTH"
);
}
);
};
layerId = "258ED206-D907-4350-8EBA-CBDDA1C16BF7";
paths = (
{
closed = 1;
nodes = (
"90 530 LINE",
"16 0 LINE",
"216 0 LINE",
"291 530 LINE"
);
}
);
width = 309;
},
{
anchors = (
{
name = ogonek;
position = "{103, 13}";
},
{
name = top;
position = "{163, 530}";
}
);
background = {
anchors = (
{
name = ogonek;
position = "{98, 13}";
},
{
name = top;
position = "{158, 530}";
}
);
paths = (
{
closed = 1;
nodes = (
"178 527 OFFCURVE",
"175 530 OFFCURVE",
"168 530 CURVE SMOOTH",
"146 530 LINE SMOOTH",
"139 530 OFFCURVE",
"138 529 OFFCURVE",
"137 521 CURVE SMOOTH",
"65 11 LINE SMOOTH",
"64 3 OFFCURVE",
"67 0 OFFCURVE",
"76 0 CURVE SMOOTH",
"93 0 LINE SMOOTH",
"103 0 OFFCURVE",
"104 1 OFFCURVE",
"105 11 CURVE SMOOTH",
"177 519 LINE SMOOTH"
);
}
);
};
layerId = "91AB5BCA-6A50-42DA-B2F7-8181BF189245";
paths = (
{
closed = 1;
nodes = (
"143 530 LINE",
"68 0 LINE",
"108 0 LINE",
"184 530 LINE"
);
}
);
width = 252;
}
);
unicode = 0131;
},
{
glyphname = j;
lastChange = "2017-05-01 20:13:15 +0000";
layers = (
{
background = {
paths = (
{
closed = 1;
nodes = (
"301 510 LINE SMOOTH",
"301 522 OFFCURVE",
"295 530 OFFCURVE",
"283 530 CURVE SMOOTH",
"121 530 LINE SMOOTH",
"109 530 OFFCURVE",
"101 522 OFFCURVE",
"101 507 CURVE SMOOTH",
"101 36 LINE SMOOTH",
"101 2 OFFCURVE",
"90 -6 OFFCURVE",
"77 -10 CURVE SMOOTH",
"42 -16 LINE SMOOTH",
"29 -19 OFFCURVE",
"22 -32 OFFCURVE",
"22 -43 CURVE SMOOTH",
"23 -145 LINE SMOOTH",
"23 -166 OFFCURVE",
"35 -170 OFFCURVE",
"91 -170 CURVE SMOOTH",
"233 -170 OFFCURVE",
"301 -103 OFFCURVE",
"301 29 CURVE SMOOTH"
);
},
{
closed = 1;
nodes = (
"301 734 OFFCURVE",
"295 742 OFFCURVE",
"283 742 CURVE SMOOTH",
"121 742 LINE SMOOTH",
"109 742 OFFCURVE",
"101 734 OFFCURVE",
"101 719 CURVE SMOOTH",
"101 600 LINE SMOOTH",
"101 583 OFFCURVE",
"108 574 OFFCURVE",
"128 574 CURVE SMOOTH",
"269 574 LINE SMOOTH",
"269 574 OFFCURVE",
"301 583 OFFCURVE",
"301 603 CURVE SMOOTH",
"301 721 LINE SMOOTH"
);
}
);
};
layerId = "258ED206-D907-4350-8EBA-CBDDA1C16BF7";
paths = (
{
closed = 1;
nodes = (
"271 530 LINE",
"71 530 LINE",
"1 29 LINE",
"-2 7 OFFCURVE",
"-15 -6 OFFCURVE",
"-54 -14 CURVE",
"-85 -19 LINE",
"-103 -153 LINE",
"-103 -153 OFFCURVE",
"-90 -170 OFFCURVE",
"-37 -170 CURVE",
"105 -170 OFFCURVE",
"182 -103 OFFCURVE",
"201 29 CURVE SMOOTH"
);
},
{
closed = 1;
nodes = (
"104 762 LINE",
"80 594 LINE",
"280 594 LINE",
"304 762 LINE"
);
}
);
width = 287;
},
{
background = {
paths = (
{
closed = 1;
nodes = (
"220 520 LINE SMOOTH",
"220 527 OFFCURVE",
"218 530 OFFCURVE",
"212 530 CURVE SMOOTH",
"190 530 LINE SMOOTH",
"183 530 OFFCURVE",
"180 527 OFFCURVE",
"180 520 CURVE SMOOTH",
"180 -46 LINE SMOOTH",
"180 -110 OFFCURVE",
"159 -132 OFFCURVE",
"106 -133 CURVE SMOOTH",
"48 -134 LINE SMOOTH",
"44 -134 OFFCURVE",
"42 -136 OFFCURVE",
"42 -140 CURVE SMOOTH",
"42 -161 LINE SMOOTH",
"42 -169 OFFCURVE",
"48 -170 OFFCURVE",
"107 -170 CURVE SMOOTH",
"198 -170 OFFCURVE",
"220 -133 OFFCURVE",
"220 -51 CURVE SMOOTH"
);
},
{
closed = 1;
nodes = (
"225 737 OFFCURVE",
"220 742 OFFCURVE",
"213 742 CURVE SMOOTH",
"187 742 LINE SMOOTH",
"180 742 OFFCURVE",
"175 737 OFFCURVE",
"175 729 CURVE SMOOTH",
"175 658 LINE SMOOTH",
"175 650 OFFCURVE",
"177 644 OFFCURVE",
"186 644 CURVE SMOOTH",
"213 644 LINE SMOOTH",
"223 644 OFFCURVE",
"225 650 OFFCURVE",
"225 660 CURVE SMOOTH",
"225 729 LINE SMOOTH"
);
}
);
};
layerId = "91AB5BCA-6A50-42DA-B2F7-8181BF189245";
paths = (
{
closed = 1;
nodes = (
"190 530 LINE",
"150 530 LINE",
"69 -46 LINE SMOOTH",
"60 -110 OFFCURVE",
"36 -132 OFFCURVE",
"-17 -133 CURVE SMOOTH",
"-81 -134 LINE",
"-85 -161 LINE SMOOTH",
"-85 -161 OFFCURVE",
"-80 -170 OFFCURVE",
"-21 -170 CURVE SMOOTH",
"70 -170 OFFCURVE",
"97 -133 OFFCURVE",
"109 -51 CURVE SMOOTH"
);
},
{
closed = 1;
nodes = (
"178 762 LINE",
"164 664 LINE",
"214 664 LINE",
"228 762 LINE"
);
}
);
width = 263;
}
);
unicode = 006A;
},
{
glyphname = jdotless;
lastChange = "2017-05-01 14:06:08 +0000";
layers = (
{
anchors = (
{
name = top;
position = "{165, 530}";
}
);
background = {
anchors = (
{
name = top;
position = "{165, 530}";
}
);
paths = (
{
closed = 1;
nodes = (
"265 504 LINE SMOOTH",
"266 516 OFFCURVE",
"258 530 OFFCURVE",
"246 530 CURVE SMOOTH",
"84 530 LINE SMOOTH",
"72 530 OFFCURVE",
"68 528 OFFCURVE",
"66 513 CURVE SMOOTH",
"0 42 LINE SMOOTH",
"-5 8 OFFCURVE",
"-22 -4 OFFCURVE",
"-35 -8 CURVE SMOOTH",
"-61 -15 LINE SMOOTH",
"-75 -18 OFFCURVE",
"-79 -26 OFFCURVE",
"-80 -37 CURVE SMOOTH",
"-94 -139 LINE SMOOTH",
"-97 -160 OFFCURVE",
"-82 -170 OFFCURVE",
"-32 -170 CURVE SMOOTH",
"81 -170 OFFCURVE",
"178 -109 OFFCURVE",
"197 23 CURVE SMOOTH"
);
}
);
};
layerId = "258ED206-D907-4350-8EBA-CBDDA1C16BF7";
paths = (
{
closed = 1;
nodes = (
"279 530 LINE",
"78 530 LINE",
"10 42 LINE",
"8 28 OFFCURVE",
"5 -3 OFFCURVE",
"-39 -11 CURVE",
"-77 -18 LINE",
"-95 -149 LINE SMOOTH",
"-95 -149 OFFCURVE",
"-82 -170 OFFCURVE",
"-22 -170 CURVE SMOOTH",
"116 -170 OFFCURVE",
"188 -109 OFFCURVE",
"207 23 CURVE SMOOTH"
);
}
);
width = 293;
},
{
anchors = (
{
name = top;
position = "{148, 530}";
}
);
background = {
anchors = (
{
name = top;
position = "{143, 530}";
}
);
paths = (
{
closed = 1;
nodes = (
"162 519 LINE SMOOTH",
"163 526 OFFCURVE",
"160 530 OFFCURVE",
"154 530 CURVE SMOOTH",
"132 530 LINE SMOOTH",
"125 530 OFFCURVE",
"123 528 OFFCURVE",
"122 521 CURVE SMOOTH",
"42 -45 LINE SMOOTH",
"33 -109 OFFCURVE",
"8 -132 OFFCURVE",
"-45 -133 CURVE SMOOTH",
"-103 -134 LINE SMOOTH",
"-107 -134 OFFCURVE",
"-108 -135 OFFCURVE",
"-109 -139 CURVE SMOOTH",
"-112 -160 LINE SMOOTH",
"-113 -168 OFFCURVE",
"-106 -170 OFFCURVE",
"-46 -170 CURVE SMOOTH",
"44 -170 OFFCURVE",
"70 -134 OFFCURVE",
"81 -52 CURVE SMOOTH"
);
}
);
};
layerId = "91AB5BCA-6A50-42DA-B2F7-8181BF189245";
paths = (
{
closed = 1;
nodes = (
"169 530 LINE",
"128 530 LINE",
"47 -45 LINE SMOOTH",
"38 -109 OFFCURVE",
"13 -132 OFFCURVE",
"-40 -133 CURVE SMOOTH",
"-103 -134 LINE",
"-107 -162 LINE SMOOTH",
"-107 -162 OFFCURVE",
"-99 -170 OFFCURVE",
"-41 -170 CURVE SMOOTH",
"49 -170 OFFCURVE",
"75 -134 OFFCURVE",
"86 -52 CURVE SMOOTH"
);
}
);
width = 223;
}
);
unicode = 0237;
},
{
glyphname = k;
lastChange = "2017-05-01 20:13:22 +0000";
layers = (
{
anchors = (
{
name = bottom;
position = "{283, 0}";
}
);
background = {
anchors = (
{
name = bottom;
position = "{387, 0}";
}
);
paths = (
{
closed = 1;
nodes = (
"540 337 LINE SMOOTH",
"531 355 OFFCURVE",
"533 361 OFFCURVE",
"542 372 CURVE SMOOTH",
"671 501 LINE SMOOTH",
"684 515 OFFCURVE",
"680 530 OFFCURVE",
"657 530 CURVE SMOOTH",
"520 530 LINE SMOOTH",
"510 530 OFFCURVE",
"499 523 OFFCURVE",
"489 513 CURVE SMOOTH",
"339 344 LINE SMOOTH",
"331 335 OFFCURVE",
"327 340 OFFCURVE",
"327 346 CURVE SMOOTH",
"327 721 LINE SMOOTH",
"327 734 OFFCURVE",
"321 742 OFFCURVE",
"309 742 CURVE SMOOTH",
"146 742 LINE SMOOTH",
"135 742 OFFCURVE",
"127 734 OFFCURVE",
"127 719 CURVE SMOOTH",
"127 25 LINE SMOOTH",
"127 8 OFFCURVE",
"133 0 OFFCURVE",
"154 0 CURVE SMOOTH",
"295 0 LINE SMOOTH",
"318 0 OFFCURVE",
"327 8 OFFCURVE",
"327 29 CURVE SMOOTH",
"327 130 LINE SMOOTH",
"327 146 OFFCURVE",
"330 153 OFFCURVE",
"336 158 CURVE SMOOTH",
"384 203 LINE SMOOTH",
"394 213 OFFCURVE",
"399 211 OFFCURVE",
"405 198 CURVE SMOOTH",
"477 26 LINE SMOOTH",
"484 10 OFFCURVE",
"493 0 OFFCURVE",
"510 0 CURVE SMOOTH",
"681 0 LINE SMOOTH",
"699 0 OFFCURVE",
"706 17 OFFCURVE",
"700 28 CURVE SMOOTH"
);
}
);
};
guideLines = (
{
angle = -63.9531;
position = "{502, 156}";
},
{
angle = 44.2258;
position = "{448, 530}";
}
);
layerId = "258ED206-D907-4350-8EBA-CBDDA1C16BF7";
paths = (
{
closed = 1;
nodes = (
"426 311 LINE",
"651 530 LINE",
"448 530 LINE",
"276 368 LINE",
"330 762 LINE",
"130 762 LINE",
"23 0 LINE",
"223 0 LINE",
"244 150 LINE",
"289 195 LINE",
"384 0 LINE",
"578 0 LINE"
);
}
);
width = 620;
},
{
anchors = (
{
name = bottom;
position = "{250, 0}";
}
);
background = {
anchors = (
{
name = bottom;
position = "{354, 0}";
}
);
paths = (
{
closed = 1;
nodes = (
"387 331 LINE SMOOTH",
"384 336 OFFCURVE",
"385 339 OFFCURVE",
"388 342 CURVE SMOOTH",
"557 515 LINE SMOOTH",
"566 524 OFFCURVE",
"565 530 OFFCURVE",
"555 530 CURVE SMOOTH",
"523 530 LINE SMOOTH",
"516 530 OFFCURVE",
"513 528 OFFCURVE",
"506 520 CURVE",
"222 229 LINE SMOOTH",
"214 221 OFFCURVE",
"212 222 OFFCURVE",
"212 234 CURVE SMOOTH",
"212 732 LINE SMOOTH",
"212 740 OFFCURVE",
"210 742 OFFCURVE",
"203 742 CURVE SMOOTH",
"181 742 LINE SMOOTH",
"174 742 OFFCURVE",
"172 740 OFFCURVE",
"172 732 CURVE SMOOTH",
"172 10 LINE SMOOTH",
"172 2 OFFCURVE",
"174 0 OFFCURVE",
"183 0 CURVE SMOOTH",
"200 0 LINE SMOOTH",
"210 0 OFFCURVE",
"212 2 OFFCURVE",
"212 12 CURVE SMOOTH",
"212 152 LINE SMOOTH",
"212 159 OFFCURVE",
"214 164 OFFCURVE",
"219 169 CURVE SMOOTH",
"347 299 LINE SMOOTH",
"352 304 OFFCURVE",
"353 302 OFFCURVE",
"355 299 CURVE SMOOTH",
"537 7 LINE SMOOTH",
"540 2 OFFCURVE",
"543 0 OFFCURVE",
"549 0 CURVE SMOOTH",
"580 0 LINE SMOOTH",
"589 0 OFFCURVE",
"590 4 OFFCURVE",
"585 12 CURVE SMOOTH"
);
}
);
};
guideLines = (
{
angle = 121.8697;
position = "{281, 152}";
},
{
angle = 221.5891;
position = "{542, 530}";
},
{
angle = -64.3258;
position = "{439, 0}";
}
);
layerId = "91AB5BCA-6A50-42DA-B2F7-8181BF189245";
paths = (
{
closed = 1;
nodes = (
"326 337 LINE",
"542 530 LINE",
"481 530 LINE",
"138 223 LINE",
"215 762 LINE",
"175 762 LINE",
"68 0 LINE",
"108 0 LINE",
"130 162 LINE",
"291 307 LINE",
"439 0 LINE",
"488 0 LINE"
);
}
);
width = 564;
}
);
leftMetricsKey = h;
rightKerningGroup = k;
unicode = 006B;
},
{
glyphname = kgreenlandic;
lastChange = "2017-05-01 20:14:53 +0000";
layers = (
{
background = {
paths = (
{
closed = 1;
nodes = (
"479 332 LINE SMOOTH",
"474 350 OFFCURVE",
"481 357 OFFCURVE",
"491 368 CURVE SMOOTH",
"641 497 LINE SMOOTH",
"655 511 OFFCURVE",
"646 530 OFFCURVE",
"623 530 CURVE SMOOTH",
"486 530 LINE SMOOTH",
"476 530 OFFCURVE",
"466 527 OFFCURVE",
"454 517 CURVE SMOOTH",
"280 348 LINE SMOOTH",
"272 339 OFFCURVE",
"270 334 OFFCURVE",
"271 340 CURVE SMOOTH",
"293 503 LINE SMOOTH",
"295 516 OFFCURVE",
"287 530 OFFCURVE",
"275 530 CURVE SMOOTH",
"112 530 LINE SMOOTH",
"101 530 OFFCURVE",
"97 528 OFFCURVE",
"95 513 CURVE SMOOTH",
"27 31 LINE SMOOTH",
"25 14 OFFCURVE",
"33 0 OFFCURVE",
"54 0 CURVE SMOOTH",
"195 0 LINE SMOOTH",
"218 0 OFFCURVE",
"223 2 OFFCURVE",
"226 23 CURVE SMOOTH",
"240 124 LINE SMOOTH",
"242 140 OFFCURVE",
"250 149 OFFCURVE",
"256 154 CURVE SMOOTH",
"312 199 LINE SMOOTH",
"322 209 OFFCURVE",
"327 216 OFFCURVE",
"331 203 CURVE SMOOTH",
"380 31 LINE SMOOTH",
"383 15 OFFCURVE",
"393 0 OFFCURVE",
"410 0 CURVE SMOOTH",
"581 0 LINE SMOOTH",
"599 0 OFFCURVE",
"601 12 OFFCURVE",
"597 23 CURVE SMOOTH"
);
}
);
};
layerId = "258ED206-D907-4350-8EBA-CBDDA1C16BF7";
paths = (
{
closed = 1;
nodes = (
"472 351 LINE",
"679 530 LINE",
"467 530 LINE",
"271 339 LINE",
"297 530 LINE",
"97 530 LINE",
"23 0 LINE",
"223 0 LINE",
"243 143 LINE",
"328 212 LINE",
"389 0 LINE",
"606 0 LINE"
);
}
);
width = 648;
},
{
background = {
paths = (
{
closed = 1;
nodes = (
"324 330 LINE SMOOTH",
"322 335 OFFCURVE",
"325 338 OFFCURVE",
"329 341 CURVE SMOOTH",
"522 514 LINE SMOOTH",
"532 523 OFFCURVE",
"530 530 OFFCURVE",
"520 530 CURVE SMOOTH",
"488 530 LINE SMOOTH",
"481 530 OFFCURVE",
"478 529 OFFCURVE",
"470 521 CURVE",
"145 230 LINE SMOOTH",
"136 222 OFFCURVE",
"135 221 OFFCURVE",
"137 233 CURVE SMOOTH",
"177 519 LINE SMOOTH",
"178 527 OFFCURVE",
"175 530 OFFCURVE",
"168 530 CURVE SMOOTH",
"146 530 LINE SMOOTH",
"139 530 OFFCURVE",
"138 529 OFFCURVE",
"137 521 CURVE SMOOTH",
"65 11 LINE SMOOTH",
"64 3 OFFCURVE",
"67 0 OFFCURVE",
"76 0 CURVE SMOOTH",
"93 0 LINE SMOOTH",
"103 0 OFFCURVE",
"104 1 OFFCURVE",
"105 11 CURVE SMOOTH",
"125 151 LINE SMOOTH",
"126 158 OFFCURVE",
"130 163 OFFCURVE",
"135 168 CURVE SMOOTH",
"282 298 LINE SMOOTH",
"287 303 OFFCURVE",
"288 303 OFFCURVE",
"290 300 CURVE SMOOTH",
"431 8 LINE SMOOTH",
"433 3 OFFCURVE",
"436 0 OFFCURVE",
"442 0 CURVE SMOOTH",
"473 0 LINE SMOOTH",
"482 0 OFFCURVE",
"481 3 OFFCURVE",
"477 11 CURVE SMOOTH"
);
}
);
};
layerId = "91AB5BCA-6A50-42DA-B2F7-8181BF189245";
paths = (
{
closed = 1;
nodes = (
"327 335 LINE",
"545 530 LINE",
"485 530 LINE",
"140 221 LINE",
"184 530 LINE",
"143 530 LINE",
"68 0 LINE",
"108 0 LINE",
"131 160 LINE",
"293 304 LINE",
"440 0 LINE",
"487 0 LINE"
);
}
);
width = 563;
}
);
leftMetricsKey = k;
rightKerningGroup = k;
rightMetricsKey = k;
unicode = 0138;
},
{
glyphname = l;
lastChange = "2017-06-02 21:58:26 +0000";
layers = (
{
anchors = (
{
name = bottom;
position = "{109, 0}";
},
{
name = top;
position = "{233, 785}";
},
{
name = topright;
position = "{482, 785}";
}
);
background = {
anchors = (
{
name = bottom;
position = "{171, 0}";
},
{
name = top;
position = "{227, 742}";
},
{
name = topright;
position = "{414, 530}";
}
);
paths = (
{
closed = 1;
nodes = (
"404 129 LINE",
"404 129 OFFCURVE",
"378 131 OFFCURVE",
"369 133 CURVE SMOOTH",
"330 142 OFFCURVE",
"323 163 OFFCURVE",
"323 190 CURVE SMOOTH",
"323 742 LINE",
"126 742 LINE",
"123 173 LINE",
"123 95 OFFCURVE",
"134 -1 OFFCURVE",
"329 2 CURVE SMOOTH",
"355 3 OFFCURVE",
"371 5 OFFCURVE",
"404 9 CURVE"
);
}
);
};
layerId = "258ED206-D907-4350-8EBA-CBDDA1C16BF7";
paths = (
{
closed = 1;
nodes = (
"249 -11 OFFCURVE",
"276 -4 OFFCURVE",
"300 5 CURVE",
"317 126 LINE",
"297 128 LINE",
"244 135 OFFCURVE",
"241 161 OFFCURVE",
"245 187 CURVE SMOOTH",
"326 762 LINE",
"130 762 LINE",
"45 160 LINE",
"34 82 OFFCURVE",
"28 -11 OFFCURVE",
"223 -11 CURVE SMOOTH"
);
}
);
width = 352;
},
{
anchors = (
{
name = bottom;
position = "{85, 0}";
},
{
name = top;
position = "{195, 782}";
},
{
name = topright;
position = "{334, 742}";
}
);
background = {
anchors = (
{
name = bottom;
position = "{189, 0}";
},
{
name = top;
position = "{189, 742}";
},
{
name = topright;
position = "{334, 742}";
}
);
paths = (
{
closed = 1;
nodes = (
"319 36 LINE",
"309 36 OFFCURVE",
"296 36 OFFCURVE",
"280 36 CURVE SMOOTH",
"216 36 OFFCURVE",
"209 87 OFFCURVE",
"209 130 CURVE",
"209 742 LINE",
"169 742 LINE",
"169 130 LINE",
"169 57 OFFCURVE",
"197 2 OFFCURVE",
"268 2 CURVE SMOOTH",
"292 2 OFFCURVE",
"306 3 OFFCURVE",
"319 6 CURVE"
);
}
);
};
layerId = "91AB5BCA-6A50-42DA-B2F7-8181BF189245";
paths = (
{
closed = 1;
nodes = (
"174 1 OFFCURVE",
"188 2 OFFCURVE",
"201 5 CURVE",
"206 35 LINE",
"173 35 LINE",
"144 35 OFFCURVE",
"116 60 OFFCURVE",
"126 129 CURVE",
"215 762 LINE",
"175 762 LINE",
"86 129 LINE",
"76 56 OFFCURVE",
"96 1 OFFCURVE",
"167 1 CURVE SMOOTH"
);
}
);
width = 293;
}
);
leftMetricsKey = h;
unicode = 006C;
},
{
glyphname = lslash;
lastChange = "2017-05-01 20:16:21 +0000";
layers = (
{
background = {
components = (
{
name = l;
transform = "{1, 0, 0, 1, 44, 0}";
}
);
paths = (
{
closed = 1;
nodes = (
"378 501 OFFCURVE",
"370 514 OFFCURVE",
"351 503 CURVE SMOOTH",
"45 327 LINE SMOOTH",
"33 319 OFFCURVE",
"27 311 OFFCURVE",
"25 296 CURVE SMOOTH",
"8 176 LINE SMOOTH",
"6 159 OFFCURVE",
"13 147 OFFCURVE",
"35 160 CURVE SMOOTH",
"340 342 LINE SMOOTH",
"353 351 OFFCURVE",
"358 360 OFFCURVE",
"360 372 CURVE SMOOTH",
"376 485 LINE SMOOTH"
);
}
);
};
components = (
{
name = l;
transform = "{1, 0, 0, 1, 44, 0}";
}
);
layerId = "258ED206-D907-4350-8EBA-CBDDA1C16BF7";
paths = (
{
closed = 1;
nodes = (
"28 317 LINE",
"3 141 LINE",
"357 352 LINE",
"381 520 LINE"
);
}
);
width = 378;
},
{
background = {
components = (
{
name = l;
transform = "{1, 0, 0, 1, -12, 0}";
}
);
paths = (
{
closed = 1;
nodes = (
"259 436 OFFCURVE",
"257 440 OFFCURVE",
"251 436 CURVE SMOOTH",
"-3 226 LINE SMOOTH",
"-7 223 OFFCURVE",
"-8 220 OFFCURVE",
"-9 216 CURVE SMOOTH",
"-13 187 LINE SMOOTH",
"-14 182 OFFCURVE",
"-12 176 OFFCURVE",
"-6 180 CURVE SMOOTH",
"248 391 LINE SMOOTH",
"252 395 OFFCURVE",
"254 398 OFFCURVE",
"254 402 CURVE SMOOTH",
"258 432 LINE SMOOTH"
);
}
);
};
components = (
{
name = l;
transform = "{1, 0, 0, 1, -12, 0}";
}
);
layerId = "91AB5BCA-6A50-42DA-B2F7-8181BF189245";
paths = (
{
closed = 1;
nodes = (
"-3 222 LINE",
"-10 172 LINE",
"258 395 LINE",
"264 443 LINE"
);
}
);
width = 243;
}
);
unicode = 0142;
},
{
glyphname = m;
lastChange = "2017-05-01 20:14:47 +0000";
layers = (
{
background = {
guideLines = (
{
angle = 90;
position = "{405, 331}";
showMeasurement = 1;
}
);
paths = (
{
closed = 1;
nodes = (
"289 0 LINE SMOOTH",
"313 0 OFFCURVE",
"322 8 OFFCURVE",
"322 29 CURVE SMOOTH",
"322 349 LINE",
"341 383 OFFCURVE",
"366 399 OFFCURVE",
"396 399 CURVE SMOOTH",
"428 399 OFFCURVE",
"448 381 OFFCURVE",
"448 351 CURVE SMOOTH",
"448 25 LINE SMOOTH",
"448 6 OFFCURVE",
"455 0 OFFCURVE",
"471 0 CURVE SMOOTH",
"617 0 LINE SMOOTH",
"638 0 OFFCURVE",
"647 10 OFFCURVE",
"647 30 CURVE SMOOTH",
"647 333 LINE SMOOTH",
"647 342 OFFCURVE",
"648 350 OFFCURVE",
"655 360 CURVE SMOOTH",
"670 381 OFFCURVE",
"696 399 OFFCURVE",
"721 399 CURVE SMOOTH",
"752 399 OFFCURVE",
"773 381 OFFCURVE",
"773 351 CURVE SMOOTH",
"773 25 LINE SMOOTH",
"773 6 OFFCURVE",
"779 0 OFFCURVE",
"796 0 CURVE SMOOTH",
"942 0 LINE SMOOTH",
"963 0 OFFCURVE",
"973 10 OFFCURVE",
"973 30 CURVE SMOOTH",
"973 373 LINE SMOOTH",
"973 480 OFFCURVE",
"909 540 OFFCURVE",
"819 540 CURVE SMOOTH",
"759 540 OFFCURVE",
"683 497 OFFCURVE",
"646 446 CURVE SMOOTH",
"641 440 OFFCURVE",
"636 440 OFFCURVE",
"634 445 CURVE SMOOTH",
"611 507 OFFCURVE",
"559 541 OFFCURVE",
"492 541 CURVE SMOOTH",
"431 541 OFFCURVE",
"375 507 OFFCURVE",
"332 461 CURVE SMOOTH",
"324 453 OFFCURVE",
"319 457 OFFCURVE",
"319 465 CURVE SMOOTH",
"319 510 LINE SMOOTH",
"319 522 OFFCURVE",
"313 530 OFFCURVE",
"301 530 CURVE SMOOTH",
"141 530 LINE SMOOTH",
"130 530 OFFCURVE",
"122 521 OFFCURVE",
"122 507 CURVE SMOOTH",
"122 25 LINE SMOOTH",
"122 7 OFFCURVE",
"129 0 OFFCURVE",
"148 0 CURVE SMOOTH"
);
}
);
};
guideLines = (
{
angle = 90;
position = "{232, 331}";
showMeasurement = 1;
}
);
layerId = "258ED206-D907-4350-8EBA-CBDDA1C16BF7";
paths = (
{
closed = 1;
nodes = (
"218 0 LINE",
"267 350 LINE",
"271 380 OFFCURVE",
"307 399 OFFCURVE",
"337 399 CURVE SMOOTH",
"367 399 OFFCURVE",
"397 380 OFFCURVE",
"393 350 CURVE SMOOTH",
"344 0 LINE",
"543 0 LINE",
"587 318 LINE SMOOTH",
"589 327 OFFCURVE",
"590 336 OFFCURVE",
"592 350 CURVE SMOOTH",
"596 380 OFFCURVE",
"633 399 OFFCURVE",
"663 399 CURVE SMOOTH",
"693 399 OFFCURVE",
"722 380 OFFCURVE",
"718 350 CURVE SMOOTH",
"669 0 LINE",
"869 0 LINE",
"921 373 LINE SMOOTH",
"936 480 OFFCURVE",
"879 540 OFFCURVE",
"791 540 CURVE SMOOTH",
"737 540 OFFCURVE",
"659 521 OFFCURVE",
"592 418 CURVE",
"585 487 OFFCURVE",
"550 541 OFFCURVE",
"463 541 CURVE SMOOTH",
"410 541 OFFCURVE",
"328 521 OFFCURVE",
"275 427 CURVE",
"289 530 LINE",
"92 530 LINE",
"18 0 LINE"
);
}
);
width = 956;
},
{
background = {
guideLines = (
{
position = "{352, 454}";
}
);
paths = (
{
closed = 1;
nodes = (
"203 0 LINE SMOOTH",
"209 0 OFFCURVE",
"212 3 OFFCURVE",
"212 9 CURVE SMOOTH",
"212 410 LINE",
"288 471 OFFCURVE",
"333 502 OFFCURVE",
"400 502 CURVE SMOOTH",
"480 502 OFFCURVE",
"513 455 OFFCURVE",
"513 377 CURVE SMOOTH",
"513 9 LINE SMOOTH",
"513 3 OFFCURVE",
"517 0 OFFCURVE",
"522 0 CURVE SMOOTH",
"544 0 LINE SMOOTH",
"549 0 OFFCURVE",
"553 3 OFFCURVE",
"553 10 CURVE SMOOTH",
"553 393 LINE SMOOTH",
"553 407 OFFCURVE",
"558 413 OFFCURVE",
"570 423 CURVE SMOOTH",
"609 455 OFFCURVE",
"668 502 OFFCURVE",
"741 502 CURVE SMOOTH",
"821 502 OFFCURVE",
"854 455 OFFCURVE",
"854 377 CURVE SMOOTH",
"854 9 LINE SMOOTH",
"854 3 OFFCURVE",
"857 0 OFFCURVE",
"863 0 CURVE SMOOTH",
"885 0 LINE SMOOTH",
"891 0 OFFCURVE",
"894 3 OFFCURVE",
"894 10 CURVE SMOOTH",
"894 393 LINE SMOOTH",
"894 480 OFFCURVE",
"842 540 OFFCURVE",
"742 540 CURVE SMOOTH",
"673 540 OFFCURVE",
"630 511 OFFCURVE",
"558 457 CURVE SMOOTH",
"552 452 OFFCURVE",
"545 448 OFFCURVE",
"543 454 CURVE SMOOTH",
"530 494 OFFCURVE",
"485 540 OFFCURVE",
"401 540 CURVE SMOOTH",
"332 540 OFFCURVE",
"289 511 OFFCURVE",
"217 457 CURVE SMOOTH",
"211 452 OFFCURVE",
"209 453 OFFCURVE",
"209 460 CURVE SMOOTH",
"209 522 LINE SMOOTH",
"209 528 OFFCURVE",
"207 530 OFFCURVE",
"201 530 CURVE SMOOTH",
"180 530 LINE SMOOTH",
"174 530 OFFCURVE",
"172 527 OFFCURVE",
"172 521 CURVE SMOOTH",
"172 9 LINE SMOOTH",
"172 3 OFFCURVE",
"175 0 OFFCURVE",
"181 0 CURVE SMOOTH"
);
}
);
};
guideLines = (
{
position = "{379, 454}";
}
);
layerId = "91AB5BCA-6A50-42DA-B2F7-8181BF189245";
paths = (
{
closed = 1;
nodes = (
"108 0 LINE",
"165 410 LINE",
"250 471 OFFCURVE",
"299 502 OFFCURVE",
"366 502 CURVE SMOOTH",
"446 502 OFFCURVE",
"473 455 OFFCURVE",
"462 377 CURVE SMOOTH",
"409 0 LINE",
"449 0 LINE",
"504 393 LINE SMOOTH",
"506 407 OFFCURVE",
"512 413 OFFCURVE",
"525 423 CURVE SMOOTH",
"569 455 OFFCURVE",
"634 502 OFFCURVE",
"707 502 CURVE SMOOTH",
"787 502 OFFCURVE",
"814 455 OFFCURVE",
"803 377 CURVE SMOOTH",
"750 0 LINE",
"790 0 LINE",
"845 393 LINE SMOOTH",
"857 480 OFFCURVE",
"814 540 OFFCURVE",
"714 540 CURVE SMOOTH",
"652 540 OFFCURVE",
"614 522 OFFCURVE",
"504 448 CURVE",
"494 504 OFFCURVE",
"448 540 OFFCURVE",
"373 540 CURVE SMOOTH",
"301 540 OFFCURVE",
"251 509 OFFCURVE",
"168 451 CURVE",
"179 530 LINE",
"142 530 LINE",
"68 0 LINE"
);
}
);
width = 917;
}
);
leftKerningGroup = n;
leftMetricsKey = n;
rightMetricsKey = n;
unicode = 006D;
},
